<svg id="Warstwa_1" data-name="Warstwa 1" xmlns="http://www.w3.org/2000/svg" viewBox="0 0 334.6545 355.942"><defs><style>.cls-1{fill:#7dc1ea;}.cls-1,.cls-2{fill-rule:evenodd;}.cls-2{fill:#0c3d60;}</style></defs><title>cumulus</title><path id="shape0" class="cls-1" d="M179.5428,357.9707c3.1763-19.959-21.8617-22.9512-22.7143-39.0274-.8716-16.4742,29.5839-11.6089,31.2146-32.2121,2.3779-30.0319-72.7934-19.1172-67.0147-61.3941-40.8283,4.596-62.46-35.9378-27.2157-46.5073-68.7439,2.69-130.0021-54.1437-23.8272-86.679C72.08,50.5879,90.6374,47.2791,110.3013,51.226,107.0061.3578,168.7432-7.721,179.9705,15.1731c43.5422-31.3257,111.7354-.762,78.9265,30.2065,47.1705,14.3682,50.36,43.9014,21.0714,65.2849,61.4008-2.8288,123.7273,70.7745-22.1717,96.7585,27.6744,10.4816,4.144,39.0884-6.3742,41.6855,35.9135,38.63-8.7263,57.9565-60.804,64.4214-6.1671.766-15.7014,7.737-13.264,14.298C183.6326,344.7243,184.3391,353.7456,179.5428,357.9707Z" transform="translate(-12.6726 -2.0287)"/><path id="shape1" class="cls-2" d="M183.9,307.1571c29.8922-13.81,28.2747-36.0713-9.4738-45.9912C234.4752,261.8108,250.6392,287.22,183.9,307.1571Z" transform="translate(-12.6726 -2.0287)"/><path id="shape2" class="cls-2" d="M194.1005,253.4145c-49.6159-3.183-68.2522-18.7139-57.0527-49.9528,5.6452-15.7455-39.6691-10.42-29.2093-1.7516,14.7164,12.1957,22.89-5.7966,4.168-2.8623,33.09-8.4283,12.9081,36.5606-18.3918,10.7184-17.3016-14.285,7.0576-31.6139,29.1363-30.1335,6.5987.4424,22.6965,6.5175,25.8376,7.6651q41.6565,15.2188,68.5483-10.46c134.7164,10.1486,37.7378-90.9969-29.1264-41.3693-30.298-38.1551-83.8169-20.3032-88.6857-3.98-3.9332,13.1867,24.9272,28.5,66.6612,24.8042,41.1877-3.6475-44.8334-36.5236-20.3018-14.5517-3.5327-8.1917,12.562-2.9538,20.8617,3.5277,7.1355,5.5725,6.3884,9.37-5.0383,7.9235C72.1427,141.68,153.2,98.89,185.0873,144.2813c61.6024-35.59,115.499,31.11,25.0285,19.4388-12.475,37.0065-83.8625,10.0247-85.2978,2.0186-98.2,14.6812-127.78-70.5984-30.3162-58.91q37.3284-36.91,83.7146-9.6461c45.4747-23.39,90.7249,1.8734,109.2073,28.5937,64.2821,9.1387,51.81,65.09-59.7714,75.1016C176.13,205.501,149.9677,232.9521,194.1005,253.4145Z" transform="translate(-12.6726 -2.0287)"/><path id="shape3" class="cls-2" d="M85.3724,99.4218c29.7593-29.4065,67.03-32.6206,93.188-11.5408,29.7818-23.8689,73.234-9.6969,98.5278,14.1246,20.3217-18.9061,7.7357-38.7488-27.72-50.65C191.589,69.4824,180.0433,41.28,206.2068,34.3969c37.856-9.9589,35.4579,17.4705,5.2536,8.3973,20.23,2.7772,13.4838-6.3386,6.89-6.5025-21.7122-.54-18.4034,11.904-10.5963,14.4446,6.8974,2.2445,38.2046-1.2953,46.7685-12.8083,17.3985-23.3878-56.127-35.7837-70.7086-6.2009-3.3382,6.7723-16.3093,24.8764-37.7644,12.9216-2.5025-1.3943-2.2907-11.2736,13.7865-10.4469-23.5956,6.2184,9.1,19.8357,15.75-6.8487,4.9027-19.6729-66.203-24.1282-55.0745,38.652C98.05,47.7175,75.98,75.4514,85.3724,99.4218Z" transform="translate(-12.6726 -2.0287)"/><path id="shape4" class="cls-2" d="M236.7814,290.1043c4.2168-5.52,9.5422-24.8609-5.3748-30.3358-34.538-12.6765-46.7927-23.7515-38.0661-35.8233,6.9969-9.6791,30.1409-14.8716,53.1332-8.8518,13.8623,3.6294,14.4414,13.8571,1.82,24.3076-10.9289,9.0493-30.1729-7.7152-16.8885-13.2272,3.4649-1.4378,14.3195,1.8712,8.809,5.9874.7858-2.7873-4.9017-3.4673-5.041-1.3324-.5412,8.2906,14.1958,2.6022,10.5708-4.238-2.1312-4.0211-7.8792-4.991-12.5044-4.8441-9.5638.3038-22.236,14.205-5.8219,23.2054,4.3767,2.4,15.35,4.7066,21.7973,16.4934C253.2807,268.8776,248.3339,284.094,236.7814,290.1043Z" transform="translate(-12.6726 -2.0287)"/></svg>