<svg id="Warstwa_1" data-name="Warstwa 1" xmlns="http://www.w3.org/2000/svg" viewBox="0 0 290.7655 222.3504"><defs><style>.cls-1{fill:#0c3d60;}.cls-1,.cls-2{fill-rule:evenodd;}.cls-2{fill:#7dc1ea;}</style></defs><title>design</title><path id="shape0" class="cls-1" d="M92.33,147.7581c6.2368-4.157,28.9921-3.1918,84.821-3.3439s85.6686.4056,91.8736,3.9492,9.933,6.6841,32.5162,64.649,27.2051,66.7677,21.78,73.1321-34.1148,5.19-143.2555,4.3878c-109.14-.8009-137.6469-.9331-142.9483-5.558s-4.0418-7.6023,22.5466-74.7409S86.0933,151.915,92.33,147.7581Z" transform="translate(-34.6173 -68.8248)"/><path id="shape01" class="cls-2" d="M278.7993,79.2842,296.25,103.38c3.9932,5.5136,2.9823,12.6875-2.258,16.0233L154.5735,208.1522c-5.24,3.3357-12.7255,1.57-16.7187-3.9434l-17.4507-24.0954c-3.9932-5.5137-2.9823-12.6875,2.258-16.0233L262.0806,75.3408C267.3209,72.005,274.8061,73.7706,278.7993,79.2842Z" transform="translate(-34.6173 -68.8248)"/><path id="shape1" class="cls-2" d="M104.1326,208.6637c-4.6923-5.4685-.6189-14.4531,17.0574-43.0288,14.9151,19.7647,24.9888,34.9335,31.3659,43.1761C111.6571,216.0937,108.8249,214.1322,104.1326,208.6637Z" transform="translate(-34.6173 -68.8248)"/><path id="shape2" class="cls-2" d="M104.17,198.8412c2.7391,4.1411,10.0175,12.4129,11.1914,14.1877-20.8949,12.96-30.7491,14.76-32.7463,12.1935S87.2588,213.0753,104.17,198.8412Z" transform="translate(-34.6173 -68.8248)"/><path id="shape3" class="cls-2" d="M267.5742,77.65q31.1668-16.8558,41.7551-1.5184T292.6272,114.091Q290.5667,101.9442,267.5742,77.65Z" transform="translate(-34.6173 -68.8248)"/><path id="shape4" class="cls-1" d="M136.785,168.57,153.78,193.8626c2.5991,3.8678,3.167,8.0374,1.2687,9.313h0c-1.8984,1.2756-5.5442-.8258-8.1432-4.6936l-16.9954-25.2926c-2.599-3.8678-3.167-8.0374-1.2687-9.313h0C130.54,162.6008,134.186,164.7022,136.785,168.57Z" transform="translate(-34.6173 -68.8248)"/><path id="shape5" class="cls-1" d="M87.539,221.7868q-2.382-3.2337,17.3163-18.6508c.56,2.5077,2.3364,6.47,5.79,8.2824C96.9058,220.0774,89.127,223.9425,87.539,221.7868Z" transform="translate(-34.6173 -68.8248)"/><path id="shape6" class="cls-1" d="M277.4435,77.7586q20.7105-10.6061,28.1983,0t-8.4595,26.4088A48.9208,48.9208,0,0,0,277.4435,77.7586Z" transform="translate(-34.6173 -68.8248)"/><path id="shape7" class="cls-2" d="M69.0346,254.599c-7.6292,11.6214-7.093,11.8505-6.02,13.6113.93,1.5254,9.5771,2.7845,27.6793,2.25-11.28-2.2092-16.8236-3.1065-21.084-4.63C67.3651,265.0283,67.2324,264.1281,69.0346,254.599Z" transform="translate(-34.6173 -68.8248)"/><path id="shape011" class="cls-2" d="M97.2421,166.1563c2.6007-7.226,3.0956-7.3685,4.93-8.4633,1.5889-.9485,7.9918-1.7314,19.3413-1.3993-8.719,1.3736-12.8822,1.9315-16.6218,2.8787C102.9209,159.6715,102.2519,160.2313,97.2421,166.1563Z" transform="translate(-34.6173 -68.8248)"/><path id="shape02" class="cls-2" d="M288.4475,235.61c10.524,24.8079,9.7844,25.2968,8.3043,29.0556-1.2821,3.2562-23.4219,5.6088-49.1518,4.8152,18.9759-3.5281,34.1772-6.6424,40.0541-9.8944C290.7505,257.8734,290.9335,255.9517,288.4475,235.61Z" transform="translate(-34.6173 -68.8248)"/></svg>