<svg id="Warstwa_1" data-name="Warstwa 1" xmlns="http://www.w3.org/2000/svg" viewBox="0 0 286.0668 229.4957"><defs><style>.cls-1{fill:#0c3d60;}.cls-1,.cls-2{fill-rule:evenodd;}.cls-2{fill:#7dc1ea;}</style></defs><title>design</title><path id="shape0" class="cls-1" d="M86.7518,152.4285c6.1361-3.9882,28.5241-3.0622,83.4518-3.2081s84.2858.3891,90.3906,3.7888,9.7726,6.4129,31.9913,62.0245,24.457,80.2292,19.1192,86.3352-33.5641,4.98-140.943,4.21c-107.3781-.7684-135.425-.8952-140.6408-5.3324-5.2157-4.4357-1.6676-23.4656,24.4917-87.8787S80.6158,156.4167,86.7518,152.4285Z" transform="translate(-28.0686 -76.6996)"/><path id="shape01" class="cls-2" d="M270.211,86.7345,287.38,109.8516c3.9287,5.29,2.9341,12.1725-2.2216,15.3728l-137.168,85.1464c-5.1556,3.2-12.52,1.5065-16.4487-3.7833L114.3728,183.47c-3.9288-5.29-2.9342-12.1724,2.2215-15.3728l137.168-85.1464C258.9179,79.7508,266.2823,81.4446,270.211,86.7345Z" transform="translate(-28.0686 -76.6996)"/><path id="shape1" class="cls-2" d="M98.3639,210.8616c-4.6166-5.2465-.6089-13.8664,16.7821-41.282,14.6743,18.9623,24.5854,33.5153,30.86,41.4233C105.7669,217.99,102.9805,216.108,98.3639,210.8616Z" transform="translate(-28.0686 -76.6996)"/><path id="shape2" class="cls-2" d="M98.401,201.4378c2.6949,3.973,9.8558,11.909,11.0107,13.6117C88.8541,227.4836,79.159,229.21,77.194,226.7481S81.7625,215.0941,98.401,201.4378Z" transform="translate(-28.0686 -76.6996)"/><path id="shape3" class="cls-2" d="M259.1671,85.1668Q289.831,68.9953,300.2483,83.71t-16.4325,36.4182Q281.7884,108.4744,259.1671,85.1668Z" transform="translate(-28.0686 -76.6996)"/><path id="shape4" class="cls-1" d="M130.4893,172.3956l16.721,24.2657c2.5571,3.7109,3.1159,7.7112,1.2482,8.935h0c-1.8678,1.2238-5.4547-.7923-8.0118-4.5031l-16.7211-24.2658c-2.557-3.7108-3.1158-7.7111-1.2481-8.9349h0C124.3452,166.6686,127.9322,168.6848,130.4893,172.3956Z" transform="translate(-28.0686 -76.6996)"/><path id="shape5" class="cls-1" d="M82.0382,223.4519q-2.3436-3.1025,17.0367-17.8937c.5508,2.406,2.2988,6.2074,5.6966,7.9462C91.2537,221.8119,83.6005,225.52,82.0382,223.4519Z" transform="translate(-28.0686 -76.6996)"/><path id="shape6" class="cls-1" d="M268.8772,85.2708q20.3761-10.1754,27.7431,0t-8.3229,25.3366A47.0626,47.0626,0,0,0,268.8772,85.2708Z" transform="translate(-28.0686 -76.6996)"/><path id="shape7" class="cls-2" d="M61.5235,271.1041c-7.506,11.15-6.9785,11.3694-5.9229,13.0587.9145,1.4635,9.4225,2.6715,27.2325,2.1591-11.0977-2.1194-16.5521-2.98-20.7437-4.4419C59.8809,281.11,59.75,280.2463,61.5235,271.1041Z" transform="translate(-28.0686 -76.6996)"/><path id="shape011" class="cls-2" d="M91.5847,170.08c2.5587-6.9326,3.0455-7.0693,4.85-8.12,1.5632-.91,7.8628-1.6611,19.029-1.3425-8.5782,1.3178-12.6742,1.8532-16.3534,2.7619C97.1718,163.8583,96.5135,164.3953,91.5847,170.08Z" transform="translate(-28.0686 -76.6996)"/><path id="shape02" class="cls-2" d="M277.3946,252.8863c10.354,23.8007,9.6264,24.27,8.17,27.8759-1.2614,3.1241-23.0438,5.3811-48.3584,4.62,18.67-3.3849,33.6255-6.3728,39.4076-9.4927C279.66,274.2456,279.8405,272.4018,277.3946,252.8863Z" transform="translate(-28.0686 -76.6996)"/></svg>