<?xml version="1.0" standalone="no"?>
<!DOCTYPE svg PUBLIC "-//W3C//DTD SVG 20010904//EN" "http://www.w3.org/TR/2001/REC-SVG-20010904/DTD/svg10.dtd">
<!-- Created using Krita: https://krita.org -->
<svg xmlns="http://www.w3.org/2000/svg" 
    xmlns:xlink="http://www.w3.org/1999/xlink"
    xmlns:krita="http://krita.org/namespaces/svg/krita"
    xmlns:sodipodi="http://sodipodi.sourceforge.net/DTD/sodipodi-0.dtd"
    width="360pt"
    height="360pt"
    viewBox="0 0 360 360">
<defs/>
<path id="shape0" transform="matrix(1 0 0 0.91252576971858 9.38345893768805 131.219998194261)" fill="#0c3d60" fill-rule="evenodd" stroke="#000000" stroke-opacity="0" stroke-width="0" stroke-linecap="square" stroke-linejoin="bevel" d="M67.7298 4.32894C75.0491 -1.01715 101.754 0.224136 167.273 0.0285336C232.793 -0.167069 267.811 0.550156 275.093 5.10741C282.376 9.66464 286.75 13.7037 313.253 88.2503C339.757 162.796 345.18 174.118 338.813 182.303C332.447 190.489 298.777 188.978 170.693 187.946C42.6099 186.916 9.15492 186.746 2.93341 180.798C-3.2881 174.852 -1.80997 171.021 29.3934 84.6763C60.5968 -1.66805 60.4106 9.67502 67.7298 4.32894Z"/><rect id="shape01" transform="matrix(0.768434946789282 1.06102726122032 -1.13173475808291 0.72042536574465 287.462377483663 43.0954174908645)" fill="#7dc1ea" fill-rule="evenodd" width="48.7356403805617" height="164.250050480632" rx="11.0422775861741" ry="9.83902286083677"/><path id="shape1" transform="translate(88.8519146074531, 156.150006228847)" fill="#7dc1ea" fill-rule="evenodd" stroke="#000000" stroke-opacity="0" stroke-width="0" stroke-linecap="square" stroke-linejoin="bevel" d="M2.11253 50.4972C-3.39424 44.0795 1.38621 33.5355 22.1306 0C39.6344 23.1952 51.4566 40.9968 58.9406 50.67C10.943 59.2168 7.61931 56.9148 2.11253 50.4972Z"/><path id="shape2" transform="matrix(0.996649437559413 0.0817918003989684 -0.0817918003989684 0.996649437559413 67.8823005154751 193.221878660254)" fill="#7dc1ea" fill-rule="evenodd" d="M23.2041 0C26.8054 4.58066 36.1124 13.557 37.6558 15.5202C14.4604 32.6846 3.10735 35.7354 0.525016 32.9255C-2.05732 30.1156 4.79012 18.2721 23.2041 0Z"/><path id="shape3" transform="translate(282.77422415756, 42.5367143027165)" fill="#7dc1ea" fill-rule="evenodd" d="M0 10.3572C24.3843 -2.83041 40.7185 -3.42438 49.0025 8.57526C57.2865 20.5749 50.7528 35.4241 29.4015 53.123C27.7893 43.6195 17.9888 29.3642 0 10.3572Z"/><rect id="shape4" transform="matrix(0.557734014290526 0.830019740309459 -0.830019740309459 0.557734014290526 123.761580437023 151.375622775412)" fill="#0c3d60" fill-rule="evenodd" width="55.5653734001589" height="9.72" rx="9.9020672872598" ry="4.86"/><path id="shape5" transform="translate(71.1891488019691, 200.160000972885)" fill="#0c3d60" fill-rule="evenodd" d="M0.301572 21.888C-1.56206 19.358 5.21187 12.062 20.6234 0C21.2804 2.943 23.3654 7.59301 27.4184 9.72001C11.2941 19.8819 2.1652 24.4179 0.301572 21.888Z"/><path id="shape6" transform="translate(294.356643202103, 46.7977268759834)" fill="#0c3d60" fill-rule="evenodd" d="M0 6.22344C16.2034 -2.07448 27.2343 -2.07448 33.0926 6.22344C38.9509 14.5213 35.6416 24.8522 23.1648 37.2159C19.0349 24.2122 11.3133 13.8813 0 6.22344Z"/><path id="shape7" transform="matrix(1 0 0 0.91252576971858 41.986842515156 260.555384925873)" fill="#7dc1ea" fill-rule="evenodd" d="M7.78772 0C-1.16566 14.9459 -0.536454 15.2405 0.72272 17.505C1.81355 19.4668 11.9621 21.0861 33.2063 20.3993C19.9687 17.5582 13.4626 16.4042 8.46272 14.445C5.82842 13.4128 5.67272 12.255 7.78772 0Z"/><path id="shape011" transform="matrix(1.00000002131116 0 0.950891452185969 -0.912525744809752 77.8465081882398 156.761815488074)" fill="#7dc1ea" fill-rule="evenodd" d="M5.03152 0C-0.753114 9.2931 -0.346594 9.47627 0.466937 10.8843C1.1717 12.1041 7.72851 13.111 21.454 12.6839C12.9014 10.9174 8.69796 10.1998 5.46762 8.98165C3.76564 8.33984 3.66505 7.61994 5.03152 0Z"/><path id="shape02" transform="matrix(-1.00000002131116 0 0 0.912525744809746 318.013157676268 238.270904834313)" fill="#7dc1ea" fill-rule="evenodd" d="M10.7426 0C-1.60794 31.9045 -0.74 32.5333 0.996937 37.3673C2.50166 41.5551 28.4842 44.5806 58.68 43.56C36.4104 39.0226 18.5707 35.0174 11.6737 30.8352C8.03987 28.6318 7.82509 26.1603 10.7426 0Z"/>
</svg>
