<svg id="Warstwa_2" data-name="Warstwa 2" xmlns="http://www.w3.org/2000/svg" viewBox="0 0 285.1682 227.1458"><defs><style>.cls-1,.cls-4{fill:#7dc1ea;}.cls-1,.cls-2{fill-rule:evenodd;}.cls-2,.cls-3{fill:#0c3d60;}</style></defs><title>idea</title><path id="shape0" class="cls-1" d="M288.4559,234.0709C223.8408,341.9171-1.8874,288.8141,43.364,188.76s330.2335-125.4694,261.1837-7.2613-242.0033,66.726-193.7217,7.8422,158.8483-43.736,148.2313-13.3608-100.3309,37.3321-109.239,18.0081,25.8888-20.1442,52.3157-12.9251c-21.9226-.9914-40.0319.17-33.4387,8.2778s70.8016,5.2548,65.6053-9.5849-95.1088-29.1169-99.9553,14.8131,132.9952,53.487,135.543-18.589-180.43-45.9678-179.3019,24.6239S214.4574,321.0222,288.4559,234.0709Z" transform="translate(-37.4159 -66.4271)"/><path id="shape1" class="cls-2" d="M318.16,75.3214c5.4666,7.7065,9.1651,22.9984-9.6281,34.5041L156.69,200.3656c-6.198,3.7031-14.4884,2.4731-18.5167-2.7474l-17.6045-22.8148c-4.0284-5.2206-2.2692-12.4549,3.9288-16.1581L271.9885,71.6245C288.69,61.76,312.6931,67.6149,318.16,75.3214Z" transform="translate(-37.4159 -66.4271)"/><path id="shape2" class="cls-2" d="M126.473,158.1929q19.7506,29.6546,29.5407,42.2059c-17.54,9.5077-48.9288,11.9112-53.9393,2.7727S101.6376,173.8539,126.473,158.1929Z" transform="translate(-37.4159 -66.4271)"/><path class="cls-1" d="M107.8862,200.088c10.7474,2.806,17.9421-4.3925,19.6611-12.0144s5.1576-14.7625,20.531-20.13c-13.612,11.1443-8.87,19.5216-12.96,25.6089S119.0873,206.5,107.8862,200.088Z" transform="translate(-37.4159 -66.4271)"/><path id="shape01" class="cls-1" d="M225.7505,147.226c15.4772-7.0837,21.796-33.1709,25.8877-42.74,25.3878-59.3746,93.1689-12.8036,45.5147-1.13,24.9365-12.3227-20.1367-25.72-32.1666-3.1834C258.7415,111.8714,242.5669,140.3491,225.7505,147.226Z" transform="translate(-37.4159 -66.4271)"/><path id="shape02" class="cls-1" d="M182.3027,172.4368c20.7276-7.67,25.3274-25.0877,25.4956-36.4711s3.4351-22.5387,27.6472-34.3554c-19.1263,19.6226-8.3254,25.1669-13.8738,38.3583S204.8239,164.9905,182.3027,172.4368Z" transform="translate(-37.4159 -66.4271)"/><path id="shape03" class="cls-1" d="M140.8593,195.5762c17.0767-4.8236,22.8994-19.97,24.5023-30.1493s5.5812-19.8485,25.8982-28.0421c-17.38,15.6874-9.716,21.72-15.728,32.9872S159.2988,191.13,140.8593,195.5762Z" transform="translate(-37.4159 -66.4271)"/><ellipse class="cls-3" cx="51.0578" cy="143.6979" rx="12.3784" ry="11.6181"/><ellipse class="cls-3" cx="29.8883" cy="155.4552" rx="8.2007" ry="7.697"/><ellipse id="shape3" class="cls-3" cx="15.1954" cy="164.4283" rx="5.5703" ry="5.2282"/><ellipse id="shape4" class="cls-4" cx="238.197" cy="44.056" rx="6.0344" ry="5.6638"/><ellipse id="shape5" class="cls-4" cx="248.5639" cy="33.164" rx="3.404" ry="3.195"/><ellipse id="shape6" class="cls-4" cx="225.9734" cy="56.8359" rx="2.1662" ry="1.8879"/><ellipse id="shape7" class="cls-3" cx="252.2774" cy="77.8938" rx="6.4986" ry="6.0995"/><ellipse id="shape8" class="cls-3" cx="254.4436" cy="98.2255" rx="3.7135" ry="3.4854"/><ellipse id="shape9" class="cls-3" cx="252.5869" cy="112.4578" rx="3.0946" ry="2.9045"/><ellipse id="shape10" class="cls-3" cx="51.5933" cy="87.3335" rx="3.2493" ry="3.0498"/><ellipse id="shape11" class="cls-3" cx="61.8054" cy="79.2008" rx="1.702" ry="1.5975"/><ellipse id="shape12" class="cls-3" cx="69.5419" cy="74.5536" rx="1.0831" ry="1.0166"/></svg>