<?xml version="1.0" standalone="no"?>
<!DOCTYPE svg PUBLIC "-//W3C//DTD SVG 20010904//EN" "http://www.w3.org/TR/2001/REC-SVG-20010904/DTD/svg10.dtd">
<!-- Created using Krita: https://krita.org -->
<svg xmlns="http://www.w3.org/2000/svg" 
    xmlns:xlink="http://www.w3.org/1999/xlink"
    xmlns:krita="http://krita.org/namespaces/svg/krita"
    xmlns:sodipodi="http://sodipodi.sourceforge.net/DTD/sodipodi-0.dtd"
    width="360pt"
    height="360pt"
    viewBox="0 0 360 360">
<defs/>
<path id="shape0" transform="translate(13.240483533814, 89.3299408657146)" fill="#7dc1ea" fill-rule="evenodd" stroke="#000000" stroke-opacity="0" stroke-width="0" stroke-linecap="square" stroke-linejoin="bevel" d="M292.04 162.67C216.872 296.339 -45.7224 230.521 6.91952 106.51C59.5614 -17.5005 391.087 -49.002 310.76 97.5101C230.432 244.022 29.2325 180.213 85.3995 107.23C141.566 34.2469 270.191 53.0218 257.84 90.6701C245.488 128.318 141.123 136.941 130.76 112.99C120.396 89.0387 160.877 88.0225 191.62 96.9701C166.117 95.7414 145.05 97.1814 152.72 107.23C160.389 117.279 235.085 113.743 229.04 95.3501C222.994 76.9571 118.398 59.2614 112.76 113.71C107.121 168.159 267.476 180.004 270.44 90.6701C273.403 1.33595 60.5414 33.6957 61.8543 121.19C63.1671 208.684 205.956 270.441 292.04 162.67Z"/><path id="shape1" transform="matrix(0.768434946789281 1.06102728155543 -1.13173475808291 0.720425379551953 319.9457393188 27.7621441544566)" fill="#0c3d60" fill-rule="evenodd" stroke="#000000" stroke-opacity="0" stroke-width="0" stroke-linecap="square" stroke-linejoin="bevel" d="M25.8925 0.00610583C34.6656 0.343748 48.6589 6.04328 48.8806 25.5116L48.7356 181.493C48.7356 187.864 43.7918 193.029 37.6934 193.029L11.0423 193.029C4.9438 193.029 -7.49401e-16 187.864 0 181.493L0.880523 30.483C0.971698 13.3769 17.1194 -0.331536 25.8925 0.00610583Z"/><path id="shape2" transform="matrix(1.36796046364653 0 0 1.28249429616957 86.3576632206664 157.953513643915)" fill="#0c3d60" fill-rule="evenodd" stroke="#000000" stroke-opacity="0" stroke-width="0" stroke-linecap="square" stroke-linejoin="bevel" d="M22.2848 0C33.4822 19.1061 41.8561 32.7025 47.4064 40.7891C32.49 49.9776 5.79706 52.3004 1.53615 43.4687C-2.72475 34.6369 1.16472 15.1353 22.2848 0Z"/><path id="shape01" transform="matrix(0.980670166827337 0.195668147369068 -0.195668147369068 0.980670166827337 104.654980725265 162.592818819445)" fill="#7dc1ea" fill-rule="evenodd" stroke="#000000" stroke-opacity="0" stroke-width="0" stroke-linecap="square" stroke-linejoin="bevel" d="M0 48.2193C12.9415 49.1836 19.4037 38.7962 19.5164 29.1406C19.6292 19.485 21.8201 10.0231 38.057 0C25.2306 16.6441 32.6727 25.7471 29.4827 34.0771C26.2927 42.407 14.3336 53.4628 0 48.2193Z"/><path id="shape011" transform="matrix(0.999999983271165 0 0 0.999999983271165 232.334022794274 54.7870586826739)" fill="#7dc1ea" fill-rule="evenodd" stroke="#000000" stroke-opacity="0" stroke-width="0" stroke-linecap="square" stroke-linejoin="bevel" d="M0 89.5736C18.0049 80.7938 25.3557 48.4602 30.1157 36.5994C59.6498 -36.9919 138.501 20.7301 83.0639 35.1994C112.073 19.9261 59.6384 3.32102 45.6438 31.2537C38.3791 45.7537 19.5629 81.0501 0 89.5736Z"/><path id="shape02" transform="matrix(0.999999983271165 0 0 0.999999983271165 181.790239283988 87.8226634112633)" fill="#7dc1ea" fill-rule="evenodd" stroke="#000000" stroke-opacity="0" stroke-width="0" stroke-linecap="square" stroke-linejoin="bevel" d="M0 87.7853C24.1129 78.2786 29.464 56.6906 29.6596 42.5816C29.8551 28.4724 33.6557 14.6461 61.8222 0C39.5721 24.3211 52.1371 31.1929 45.6825 47.5429C39.228 63.8929 26.1994 78.5561 0 87.7853Z"/><path id="shape03" transform="matrix(0.990937003717127 0.134327291368705 -0.134327291368705 0.990937003717127 144.236842008705 125.660032885963)" fill="#7dc1ea" fill-rule="evenodd" stroke="#000000" stroke-opacity="0" stroke-width="0" stroke-linecap="square" stroke-linejoin="bevel" d="M0 79.3471C18.8825 70.7542 23.073 51.2413 23.2261 38.4885C23.3792 25.7355 26.3554 13.2383 48.4122 0C30.9884 21.9833 40.8279 28.1945 35.7734 42.9729C30.719 57.7513 20.5164 71.0051 0 79.3471Z"/><circle id="shape11" transform="translate(58.2370394691742, 207.920285929266)" r="14.4" cx="14.4" cy="14.4" fill="#0c3d60" fill-rule="evenodd" stroke="#000000" stroke-opacity="0" stroke-width="0" stroke-linecap="square" stroke-linejoin="bevel"/><ellipse id="shape21" transform="translate(38.4701176550915, 227.352792256651)" rx="9.54" ry="9.53999999999999" cx="9.54" cy="9.53999999999999" fill="#0c3d60" fill-rule="evenodd" stroke="#000000" stroke-opacity="0" stroke-width="0" stroke-linecap="square" stroke-linejoin="bevel"/><circle id="shape3" transform="translate(24.4376113277062, 241.534415486697)" r="6.48" cx="6.48" cy="6.48" fill="#0c3d60" fill-rule="evenodd" stroke="#000000" stroke-opacity="0" stroke-width="0" stroke-linecap="square" stroke-linejoin="bevel"/><ellipse id="shape4" transform="translate(283.32, 91.8)" rx="7.02000000000001" ry="7.02" cx="7.02000000000001" cy="7.02" fill="#7dc1ea" fill-rule="evenodd" stroke="#000000" stroke-opacity="0" stroke-width="0" stroke-linecap="square" stroke-linejoin="bevel"/><ellipse id="shape5" transform="translate(298.44, 81.36)" rx="3.96000000000001" ry="3.96" cx="3.96000000000001" cy="3.96" fill="#7dc1ea" fill-rule="evenodd" stroke="#000000" stroke-opacity="0" stroke-width="0" stroke-linecap="square" stroke-linejoin="bevel"/><ellipse id="shape6" transform="translate(273.6, 112.32)" rx="2.51999999999998" ry="2.34" cx="2.51999999999998" cy="2.34" fill="#7dc1ea" fill-rule="evenodd" stroke="#000000" stroke-opacity="0" stroke-width="0" stroke-linecap="square" stroke-linejoin="bevel"/><ellipse id="shape7" transform="translate(299.16, 133.2)" rx="7.56" ry="7.55999999999999" cx="7.56" cy="7.55999999999999" fill="#0c3d60" fill-rule="evenodd" stroke="#000000" stroke-opacity="0" stroke-width="0" stroke-linecap="square" stroke-linejoin="bevel"/><circle id="shape8" transform="translate(304.92, 161.64)" r="4.31999999999999" cx="4.31999999999999" cy="4.31999999999999" fill="#0c3d60" fill-rule="evenodd" stroke="#000000" stroke-opacity="0" stroke-width="0" stroke-linecap="square" stroke-linejoin="bevel"/><ellipse id="shape9" transform="translate(303.48, 180)" rx="3.59999999999999" ry="3.60000000000001" cx="3.59999999999999" cy="3.60000000000001" fill="#0c3d60" fill-rule="evenodd" stroke="#000000" stroke-opacity="0" stroke-width="0" stroke-linecap="square" stroke-linejoin="bevel"/><circle id="shape10" transform="translate(69.48, 148.68)" r="3.78" cx="3.78" cy="3.78" fill="#0c3d60" fill-rule="evenodd" stroke="#000000" stroke-opacity="0" stroke-width="0" stroke-linecap="square" stroke-linejoin="bevel"/><circle id="shape111" transform="translate(83.16, 140.4)" r="1.98" cx="1.98" cy="1.98" fill="#0c3d60" fill-rule="evenodd" stroke="#000000" stroke-opacity="0" stroke-width="0" stroke-linecap="square" stroke-linejoin="bevel"/><ellipse id="shape12" transform="translate(92.88, 135.36)" rx="1.26" ry="1.25999999999999" cx="1.26" cy="1.25999999999999" fill="#0c3d60" fill-rule="evenodd" stroke="#000000" stroke-opacity="0" stroke-width="0" stroke-linecap="square" stroke-linejoin="bevel"/>
</svg>
