<svg id="Warstwa_2" data-name="Warstwa 2" xmlns="http://www.w3.org/2000/svg" viewBox="0 0 270.9938 229.9798"><defs><style>.cls-1,.cls-4{fill:#7dc1ea;}.cls-1,.cls-2{fill-rule:evenodd;}.cls-2,.cls-3{fill:#0c3d60;}</style></defs><title>idea</title><path id="shape0" class="cls-1" d="M283.065,234.7455C221.6617,343.9372,7.1533,290.1717,50.1555,188.87s313.8191-127.0348,248.2016-7.3519-229.9745,67.5585-184.0928,7.94S265.217,145.176,255.1277,175.93s-95.3439,37.7978-103.8092,18.2327,24.602-20.3955,49.7153-13.0864c-20.8329-1.0037-38.0421.1726-31.7766,8.3812s67.2824,5.32,62.3443-9.7045-90.3813-29.48-94.9869,14.9978S262.9992,248.9053,265.42,175.93s-171.4622-46.5413-170.39,24.9311S212.7446,322.7816,283.065,234.7455Z" transform="translate(-44.5031 -65.0101)"/><path id="shape1" class="cls-2" d="M311.2924,74.0154c5.1949,7.8027,8.71,23.2853-9.15,34.9346L157.8482,200.62c-5.89,3.7493-13.7683,2.504-17.5964-2.7817l-16.7294-23.0994c-3.8282-5.2858-2.1565-12.61,3.7335-16.36l140.16-88.1065C283.2879,60.2845,306.0975,66.2128,311.2924,74.0154Z" transform="translate(-44.5031 -65.0101)"/><path id="shape2" class="cls-2" d="M129.1335,157.9208q18.769,30.0246,28.0724,42.7325c-16.6685,9.6263-46.4968,12.06-51.2582,2.8073S105.5327,173.7772,129.1335,157.9208Z" transform="translate(-44.5031 -65.0101)"/><path class="cls-1" d="M111.4706,200.3386c10.2132,2.841,17.05-4.4473,18.6839-12.1643s4.9012-14.9466,19.51-20.3808c-12.9355,11.2833-8.4287,19.7652-12.3156,25.9284S122.115,206.83,111.4706,200.3386Z" transform="translate(-44.5031 -65.0101)"/><path id="shape01" class="cls-1" d="M223.4765,146.8171c14.7078-7.1721,20.7126-33.5848,24.6009-43.2737C272.2032,43.4281,336.6153,90.58,291.33,102.4c23.697-12.4765-19.1359-26.0408-30.5678-3.2232C254.8276,111.0214,239.457,139.8544,223.4765,146.8171Z" transform="translate(-44.5031 -65.0101)"/><path id="shape02" class="cls-1" d="M182.1882,172.3424c19.6974-7.7658,24.0686-25.4007,24.2284-36.9261s3.2643-22.82,26.273-34.7841c-18.1757,19.8675-7.9116,25.4809-13.1842,38.8369S203.59,164.8032,182.1882,172.3424Z" transform="translate(-44.5031 -65.0101)"/><path id="shape03" class="cls-1" d="M142.8048,195.7706c16.2279-4.8838,21.7611-20.2192,23.2844-30.5256s5.3038-20.096,24.6109-28.3919c-16.5164,15.8831-9.233,21.9906-14.9462,33.3988S160.3278,191.2692,142.8048,195.7706Z" transform="translate(-44.5031 -65.0101)"/><circle class="cls-3" cx="48.5199" cy="145.4907" r="11.7631"/><circle class="cls-3" cx="28.4027" cy="157.3947" r="7.793"/><circle id="shape3" class="cls-3" cx="14.4401" cy="166.4797" r="5.2934"/><circle id="shape4" class="cls-4" cx="226.3573" cy="44.6056" r="5.7345"/><circle id="shape5" class="cls-4" cx="236.2089" cy="33.5777" r="3.2348"/><ellipse id="shape6" class="cls-4" cx="214.7413" cy="57.545" rx="2.0585" ry="1.9115"/><circle id="shape7" class="cls-3" cx="239.7378" cy="78.8656" r="6.1756"/><circle id="shape8" class="cls-3" cx="241.7964" cy="99.451" r="3.5289"/><circle id="shape9" class="cls-3" cx="240.0319" cy="113.8608" r="2.9408"/><circle id="shape10" class="cls-3" cx="49.0288" cy="88.4231" r="3.0878"/><circle id="shape11" class="cls-3" cx="58.7334" cy="80.189" r="1.6174"/><circle id="shape12" class="cls-3" cx="66.0853" cy="75.4837" r="1.0293"/></svg>