<svg id="Warstwa_3" data-name="Warstwa 3" xmlns="http://www.w3.org/2000/svg" viewBox="0 0 286.0376 229.3739"><defs><style>.cls-1{fill:#0c8bb3;}.cls-2{fill:#7dc1ea;}.cls-2,.cls-3{fill-rule:evenodd;}.cls-3,.cls-4{fill:#0c3d60;}</style></defs><title>rysu</title><path id="shape7" class="cls-1" d="M178.49,177.3847l3.02,5.2306" transform="translate(-34.0263 -64.0831)"/><path id="shape0" class="cls-2" d="M209.9762,237.4072l-.75.8443-.5889.8462-.4351.8462-.2886.8482-.15.8483-.0169.8492.11.8513.2286.85.34.8523.4456.8522.5436.8523.6342.8532.7184.8543.7964.8532.866.8543.93.8542.986.8543,1.0355.8543,1.0788.8542,1.1135.8543,1.143.8532,1.164.8533,1.1788.8532,1.1873.8533,1.1882.8512,1.182.8523,1.1683.85,1.1493.85,1.123.8492,1.0882.8482,1.0482.8473,1,.8462.946.8452.8838.8442.8164.8423.74.8412.6584.84.5688.8382.473.8362.3687.8351.26.8342.1422.8312.018.83-.1117.8272-.2507.8262-.3951.8241-.5467.8211-.5015.6053-.5709.5923-.6384.5782-.7037.5652-.7669.5521-.827.539-.8849.526-.9417.514-.9956.5-1.0481.4888-1.0967.4759-1.1451.4627-1.19.4518-1.2336.4386-1.2736.4267-1.3126.4155-1.3494.4026-1.3843.3915-1.4158.38-1.4453.3684-1.4738.3574-1.4991.3463-1.5222.3343-1.5433.3242-1.5623.3122-1.5791.3022-1.5928.2921-1.6065.281-1.616.27-1.6244.26-1.63.25-1.6328.24-1.635.23-1.6339.22-1.6307.21-1.6255.2-1.6181.1907-1.6086.1817-1.597.1717-1.5823.1626-1.5665.1536-1.5485.1456-1.5275.1355-1.5044.1264-1.48.1185-1.4517.1094-1.4232.1014-1.3916.0934-1.3579.0843-1.3221.0763-1.2831.0682-1.243.0613-1.201.0532-1.1556.0451-1.1093.0372-1.06.03-1.0081.0231-.9544.015-.8986.0091-.8417.001-.7806-.005-.7185-.0121-.6542-.0191-1.8193-.0742-1.8835-.0944-1.9426-.1164-2-.14-2.0542-.1626-2.1058-.1867-2.1543-.2118-2.2-.2379-2.2425-.264-2.2818-.2921-2.32-.32-2.3523-.3483-2.3829-.3794-2.4124-.41-2.4366-.4417-2.4577-.4738-2.4788-.5069-2.4935-.5411-2.5072-.5762-2.5177-.6113-2.5262-.6485-2.5293-.6856-2.5315-.7238-2.53-.7619-2.5261-.802-2.5188-.8432-2.5093-.8844-2.4956-.9265-2.48-.97-2.4611-1.0129-2.4393-1.058L80.74,276.6118l-2.387-1.1494-2.3564-1.1966L73.6737,273.02l-2.2866-1.293L69.14,270.383l-2.205-1.3933-2.16-1.4455-2.1117-1.4967-2.0606-1.55-2.0068-1.6041-1.95-1.6573-1.89-1.7135-1.8273-1.77-1.7617-1.8269-1.6931-1.8842-1.6215-1.9434-1.5472-2.0017-1.47-2.0628-1.39-2.1241L42.14,243.7243l-1.22-2.2485-1.1311-2.3119-1.0392-2.376-.9442-2.4413-.8463-2.5076-.7457-2.5738-.6419-2.6421-.5354-2.7106-.4258-2.78-.3133-2.85-.1979-2.92-.0724-2.9372.06-2.8991.19-2.86.3179-2.82.4434-2.7807.5664-2.7394.6872-2.6983.8056-2.6571.9217-2.614,1.0355-2.5718,1.1469-2.5286,1.2559-2.4845,1.3628-2.4393,1.4672-2.3951,1.5693-2.349,1.669-2.3028,1.7665-2.2556,1.8616-2.2094,1.9544-2.1613,2.0448-2.112,2.1331-2.0639,2.2186-2.0147,2.3022-1.9635,2.3834-1.9132,2.4621-1.8632,2.5386-1.81,2.6126-1.7587,2.6845-1.7055,2.754-1.6523,2.8212-1.5981,2.8858-1.5438,2.9484-1.4887,3.0087-1.4325,3.0666-1.3772,3.1214-1.32L98.269,137.78l3.2256-1.2047,3.2741-1.1465,3.3205-1.0876,3.3647-1.0281,3.4058-.9681,3.4448-.9074,3.4816-.8463,3.5164-.7845,3.548-.7222,3.5786-.66,3.606-.596,3.63-.5321,3.6544-.4675,3.6745-.4026,3.6923-.3369,3.7081-.2707,3.7218-.204,3.7335-.1367,3.7418-.069,3.7482-.0005,3.7523.0685,3.7545.1379,3.7545.2081,3.75.2786,3.7461.35,3.7386.4215,3.7292.4938,3.6934.5647,3.6355.6325,3.5754.6982,3.5153.762,3.4564.824,3.3953.8837,3.3352.9416,3.2741.9974,3.2119,1.0514,3.1509,1.1033,3.0877,1.1529,3.0265,1.2015,2.9634,1.2468,2.899,1.2909,2.837,1.3331,2.7726,1.3722,2.7074,1.4114,2.6442,1.4465,2.5788,1.4817,2.5135,1.5127,2.4472,1.5429,2.3818,1.571,2.3155,1.5971,2.2481,1.6212,2.1817,1.6433,2.1142,1.6633,2.0458,1.6814,1.9784,1.6975,1.9088,1.7125,1.8415,1.7236,1.7708,1.7346,1.7024,1.7417,1.6318,1.7486,1.5612,1.7527,1.4917,1.7557,1.42,1.7547,1.3484,1.7537,1.2778,1.75,1.2052,1.7447,1.1324,1.7366,1.06,1.7266.9871,1.7146.9133,1.7014.84,1.6865.7648,1.6673.6911,1.6493.6163,1.6262.54,1.6041.4645,1.577.39,1.551.3129,1.5208.236,1.4886.159,1.4556.0822,1.42.0042,1.3823-.0737,1.3431-.1528,1.302-.2307,1.2578-.31,1.2136-.39,1.1644-.47,1.1163-.55,1.0651-.63,1.0108-1.1335,1.5871-1.1735,1.4926-1.21,1.4024-1.2462,1.315-1.281,1.2287-1.3147,1.1454-1.3453,1.066-1.3758.9881-1.4053.9135-1.4316.84-1.458.77-1.4811.7037-1.5054.6384-1.5254.5762-1.5465.516-1.5643.46-1.5813.4055-1.597.3544-1.6107.3041-1.6223.258-1.635.2148L267.41,233.8l-1.6518.1345-1.6581.0984-1.6634.0642-1.6676.0331-1.67.0061-1.67-.02-1.67-.0442-1.6666-.0632-1.6634-.0823-1.6581-.0974-1.6518-.1094-1.6434-.12-1.6339-.1275-1.6223-.1325-1.6107-.1345-1.596-.1345-1.58-.1315-1.5643-.1265-1.5444-.1174-1.5254-.1074-1.5043-.0944-1.4811-.0783-1.457-.0592-1.43-.0392-1.4043-.014-1.3747.011-1.3442.04-1.3137.0722-1.2789.1054-1.2451.1426-1.2094.1817-1.1714.2238-1.1325.2691-1.0924.3152-1.0492.3644-1.0071.4175-.9608.4728-.9154.5291-.867.59-.8175.6525-.7669.7177M195.6577,253.9l.38-1.0771.2592-1.1.1422-1.1182.0284-1.1313-.0832-1.1424-.1928-1.1474-.2981-1.15-.4013-1.1484-.5015-1.1423-.5994-1.1323-.6932-1.1193-.7858-1.1022-.8744-1.0791-.9607-1.055-1.044-1.0249-1.1251-.9918-1.203-.9547-1.2768-.9124-1.3505-.8674-1.419-.8191-1.4854-.7649-1.5486-.7087-1.61-.6475-1.3979-.4928-1.398-.4327-1.3937-.3714-1.3884-.3122-1.379-.252-1.3674-.1937-1.3515-.1365-1.3337-.0783-1.3126-.0221-1.2884.0341-1.2609.0894-1.2305.1435-1.1977.1978-1.1609.2519-1.1219.3042-1.0788.3564-1.0345.4075-.9849.4578-.9344.5089-.88.5571-.8227.6073-.7617.6545-.6984.7017-.6321.75-.5614.795-.49.84-.414.8864-.38,1.0771-.2591,1.1-.1423,1.1182-.0284,1.1314.0832,1.1423.1928,1.1474.2981,1.15.4014,1.1484.5014,1.1423.5994,1.1323.6932,1.1193.7859,1.1022.8743,1.0791.9608,1.055,1.0439,1.0249,1.1251.9918,1.2031.9547,1.2768.9125,1.3505.8673,1.419.8191,1.4853.7649,1.5486.7087,1.61.6475,1.3979.4929,1.3979.4326,1.3937.3714,1.3885.3122,1.3789.252,1.3674.1937,1.3516.1365,1.3336.0783,1.3126.0221,1.2884-.0341,1.261-.0893,1.23-.1436,1.1978-.1978,1.1609-.2519,1.1219-.3042,1.0787-.3563,1.0345-.4076.985-.4577.9344-.509.88-.5571.8228-.6073.7616-.6545.6984-.7017.6321-.75.5615-.795.49-.84.414-.8864" transform="translate(-34.0263 -64.0831)"/><path id="shape1" class="cls-3" d="M300.41,69.0139l17.5026,23.0286c4.0051,5.27,2.2561,12.5718-3.9065,16.31L150.0481,207.8068c-6.1626,3.7381-14.4051,2.4966-18.41-2.7729l-17.5026-23.0287c-4.0051-5.2695-2.2561-12.5717,3.9065-16.31L282,66.241C288.1627,62.5029,296.4052,63.7443,300.41,69.0139Z" transform="translate(-34.0263 -64.0831)"/><path id="shape2" class="cls-3" d="M115.427,167.0213l32.4443,42.23L69.7458,227.152Q69.9717,226.8043,115.427,167.0213Z" transform="translate(-34.0263 -64.0831)"/><ellipse id="shape3" class="cls-4" cx="226.0985" cy="133.5722" rx="18.2036" ry="14.8165"/><ellipse id="shape4" class="cls-4" cx="111.5035" cy="257.9543" rx="14.0001" ry="17.8903" transform="translate(-202.8365 213.8127) rotate(-70.6922)"/><ellipse id="shape5" class="cls-4" cx="34.7715" cy="123.4979" rx="11.1876" ry="9.9379"/><path id="shape6" class="cls-2" d="M100.18,198.74l17.6821-26.4258,9.8129.4066.2113,9.5,11.9334.1277-.9571,11.4225,8.9122,1.0842-2.1807,8.7182-36.7863,7.2728-2.2755-7.2728Z" transform="translate(-34.0263 -64.0831)"/><path id="shape8" class="cls-2" d="M293.7466,72.5042l16.7265,22.7779a4.3242,4.3242,0,0,1-1.2467,6.1833L293.0974,112.22a4.8238,4.8238,0,0,1-6.5232-1.0025L269.8477,88.44a4.3241,4.3241,0,0,1,1.2467-6.1832l16.129-10.7545A4.8238,4.8238,0,0,1,293.7466,72.5042Z" transform="translate(-34.0263 -64.0831)"/></svg>