<svg id="Warstwa_1" data-name="Warstwa 1" xmlns="http://www.w3.org/2000/svg" viewBox="0 0 456.5815 390.0813"><defs><style>.cls-1{fill:#0c8bb3;}.cls-2{fill:#7dc1ea;}.cls-2,.cls-3{fill-rule:evenodd;}.cls-3,.cls-4{fill:#0c3d60;}</style></defs><title>rysu</title><path id="shape7" class="cls-1" d="M471.3888,193.0762l3.02,5.2307" transform="translate(-17.8272 -45.9042)"/><path id="shape0" class="cls-2" d="M292.3194,340.6654l-1.17,1.4357-.9187,1.4391-.6787,1.4391-.45,1.4426-.2333,1.4425-.0263,1.4442.1709,1.4477.3566,1.446.5308,1.4493.6952,1.4494.8481,1.4493.9893,1.4511,1.1208,1.4528,1.2425,1.4511,1.3509,1.4528,1.4511,1.4527,1.5383,1.4528,1.6155,1.4528,1.6829,1.4528,1.7371,1.4528,1.7831,1.451,1.816,1.4511,1.839,1.4511,1.8522,1.4511,1.8538,1.4476,1.8439,1.4494,1.8226,1.4459,1.793,1.446,1.7519,1.4442,1.6977,1.4426,1.6352,1.4408,1.56,1.4391,1.4758,1.4375,1.3789,1.4356,1.2736,1.4323,1.1537,1.4306,1.0272,1.4289.8874,1.4255.7379,1.422.5752,1.42.406,1.4186.2218,1.4135.028,1.4118-.1742,1.4067-.3912,1.405-.6163,1.4016-.8529,1.3964-.7823,1.0294-.8907,1.0072-.996.9834-1.0978.9611-1.1964.9389-1.29.9168L324.917,415l-1.4692.8741-1.5531.85-1.6352.8314-1.7108.8092-1.7864.787-1.8571.7682-1.9245.746-1.9869.7256-2.0477.7067-2.1053.6846-2.1595.6658-2.2087.647-2.2548.6265-2.2992.6077-2.3386.589-2.3748.5685-2.4076.5514-2.4372.5309-2.4636.5139-2.4848.4967-2.5063.478-2.521.4593-2.5342.4421-2.5424.4251-2.5473.408-2.5507.3909-2.5489.3739-2.5441.3568-2.5358.34-2.5243.3244-2.51.309-2.4914.2919-2.4684.2766-2.4438.2612-2.4159.2475-2.383.2305-2.3468.215-2.3091.2015-2.2646.1861-2.22.1724-2.171.1588-2.1184.1434-2.0625.13-2.0017.1161-1.9393.1041-1.8735.0905-1.8028.0768-1.7306.0632-1.6533.0512-1.5728.0393-1.4889.0256-1.4019.0153-1.3131.0017-1.2178-.0085-1.1208-.02-1.0206-.0324-2.8382-.1263-2.9384-.1605-3.0306-.198-3.1208-.2373-3.2048-.2766-3.2852-.3175-3.3608-.36-3.4315-.4046-3.4984-.449-3.56-.4968-3.6189-.5446-3.67-.5923-3.7174-.6453-3.7635-.6966-3.8013-.7511-3.8341-.8058L149.1747,428l-3.89-.92-3.9114-.98-3.9278-1.04-3.941-1.1028-3.9459-1.166-3.9492-1.2308-3.9475-1.2958-3.941-1.364-3.93-1.434-3.9146-1.504-3.8933-1.5757-3.8684-1.6491-3.8394-1.7225L94.47,409.2158l-3.7669-1.8779L86.98,405.3833l-3.6762-2.035L79.68,401.23l-3.5672-2.1988-3.5058-2.2859-3.44-2.3695-3.3693-2.4583-3.2945-2.5454-3.2147-2.6358-3.1306-2.728-3.042-2.8185-2.9485-2.9141-2.8507-3.01-2.7483-3.107-2.6414-3.2043-2.53-3.3051-2.4137-3.404-2.293-3.5082-2.1677-3.6123-2.0378-3.7165-1.9036-3.824-1.7646-3.9315-1.6212-4.0408L23.7222,335.46l-1.32-4.2645-1.1632-4.3771-1.0015-4.4932-.8352-4.61-.6643-4.7271-.4888-4.8466-.3088-4.9661-.1129-4.9951.0939-4.93.2966-4.8637.496-4.7953.6917-4.7288.8837-4.6588,1.072-4.5888,1.2568-4.5189,1.438-4.4454,1.6153-4.3737,1.7892-4.3,1.9593-4.2252,2.1261-4.1483,2.2889-4.0733,2.4482-3.9947,2.6037-3.9162,2.7559-3.8359,2.9043-3.7575,3.0489-3.6755,3.19-3.5918,3.3277-3.51,3.4612-3.4262,3.5916-3.3392,3.7181-3.2538,3.8411-3.1685,3.96-3.078,4.0759-2.9909,4.188-2.9,4.2964-2.81,4.4012-2.7178,4.502-2.6256,4.6-2.5316,4.6938-2.4361,4.784-2.3422,4.87-2.2449,4.9533-2.1476,5.0322-2.0488,5.1078-1.95,5.18-1.85,5.2492-1.7485,5.3132-1.6463,5.374-1.5431,5.4316-1.4393,5.4858-1.3342,5.5351-1.2282,5.5828-1.1215,5.6255-1.0137,5.6628-.9048,5.7011-.7951,5.7323-.6846,5.76-.5729,5.785-.46,5.8062-.3469,5.8244-.2326,5.8375-.1172,5.8473-.0009,5.8539.1164,5.8573.2346,5.8572.3539,5.8506.4737,5.8441.595,5.8326.7168,5.8178.84,5.7618.96,5.6716,1.0757,5.5778,1.1875,5.4842,1.2959,5.3921,1.4012,5.2968,1.503,5.2031,1.6013,5.1078,1.6962,5.0109,1.7879,4.9155,1.8763,4.8169,1.9607,4.7216,2.0434,4.623,2.12,4.5228,2.1954,4.4257,2.2671,4.3256,2.3336,4.2236,2.4,4.125,2.46,4.0232,2.52,3.9212,2.5727,3.8177,2.6239,3.7159,2.6717,3.6122,2.716,3.5071,2.7571,3.4036,2.7946,3.2984,2.8287,3.1915,2.8595,3.0864,2.8868,2.9779,2.9124,2.8727,2.9311,2.7627,2.95,2.6558,2.9619,2.5457,2.9738,2.4355,2.9807,2.3271,2.9858,2.2154,2.9841,2.1036,2.9824,1.9935,2.9755,1.88,2.967,1.7667,2.9534,1.6533,2.9363,1.54,2.9158,1.4249,2.8936,1.31,2.868,1.1931,2.8356,1.0781,2.8048.9614,2.7656.8431,2.728.7248,2.6819.608,2.6376.4881,2.5863.3682,2.5317.2481,2.4754.1282,2.4156.0066,2.3507-.1151,2.2842-.2382,2.2141-.36,2.1391-.4831,2.0639-.6081,1.98-.733,1.8984-.8579,1.8113-.9827,1.719-1.7684,2.699-1.8308,2.5386-1.8883,2.3849-1.9442,2.2363-1.9984,2.09-2.051,1.9478-2.0987,1.813-2.1463,1.68-2.1923,1.5536-2.2335,1.4288-2.2745,1.3094-2.3107,1.1967-2.3485,1.0858-2.38.98-2.4125.8774-2.4405.7819-2.4668.69-2.4915.6026-2.5128.5173-2.5309.4387-2.5506.3654-2.5638.2936-2.5769.2287-2.5868.1673-2.595.1093-2.6015.0563-2.6049.01-2.6048-.0342-2.6049-.0751-2.6-.1075-2.595-.14-2.5868-.1656-2.5769-.1861-2.5637-.2048-2.549-.2169-2.5309-.2253-2.5128-.2288-2.49-.2287-2.4651-.2236-2.44-.2152-2.4093-.2-2.38-.1827-2.3468-.16-2.3107-.1332-2.2729-.1007-2.2318-.0666-2.1907-.0239-2.1447.0188-2.097.0683-2.0494.1229-1.9951.1792-1.9425.2425-1.8867.309-1.8275.3807-1.7667.4575-1.7043.536-1.6368.62-1.5712.71-1.4988.804-1.4281.9-1.3526,1.0038-1.2753,1.11-1.1964,1.2206m-22.3376,28.0484.5933-1.8318.4042-1.871.2219-1.9018.0444-1.9239-.13-1.9428-.3007-1.9513-.4651-1.9563-.6261-1.953-.7823-1.9427-.9351-1.9257L266.925,347.61l-1.226-1.8744L264.3349,343.9l-1.4988-1.7942-1.6287-1.743-1.7551-1.6867-1.8768-1.6235-1.9919-1.5518-2.1069-1.4749-2.2137-1.3931-2.3173-1.3008-2.4158-1.2052-2.5112-1.1012-2.1808-.8382-2.1809-.7357-2.1742-.6317-2.1661-.5309-2.1512-.4285-2.1332-.3295-2.1086-.2322-2.0806-.1331-2.0477-.0376-2.01.0581-1.9672.1519-1.92.2441-1.8685.3363-1.8111.4285-1.75.5173-1.6829.606-1.6138.6931-1.5366.7785-1.4578.8655-1.3722.9475-1.2836,1.0328-1.1882,1.1131-1.09,1.1933-.986,1.2752-.876,1.3521-.7642,1.4288-.6459,1.5074-.5932,1.8318-.4043,1.871-.2219,1.9018-.0444,1.924.13,1.9427.3007,1.9513.4651,1.9563.6262,1.953.7822,1.9427.9352,1.9257,1.0813,1.9035,1.2261,1.8744,1.364,1.8352,1.4988,1.7942,1.6287,1.743,1.7552,1.6867,1.8768,1.6235,1.9918,1.5518,2.1069,1.4749,2.2137,1.3931,2.3173,1.3008,2.4158,1.2053,2.5112,1.1011,2.1808.8382,2.1809.7358,2.1743.6316,2.166.5309,2.1513.4285,2.1332.3295,2.1085.2322,2.0806.1331,2.0477.0376,2.01-.0581,1.9672-.1519,1.92-.2441,1.8685-.3363,1.8111-.4285,1.75-.5173,1.6829-.606,1.6138-.6931,1.5366-.7785,1.4578-.8655,1.3722-.9475,1.2836-1.0328,1.1882-1.1131,1.09-1.1933.986-1.2752.876-1.3521.7642-1.4288.6459-1.5074" transform="translate(-17.8272 -45.9042)"/><path id="shape1" class="cls-3" d="M433.4018,54.29l27.305,39.1633c6.2482,8.9616,3.52,21.38-6.0944,27.7372L198.8281,290.3258c-9.614,6.3572-22.4728,4.2459-28.7209-4.7157l-27.3051-39.1633c-6.2481-8.9617-3.52-21.38,6.0945-27.7372L404.6808,49.574C414.2949,43.2168,427.1537,45.3281,433.4018,54.29Z" transform="translate(-17.8272 -45.9042)"/><path id="shape2" class="cls-3" d="M144.8171,220.9645l50.615,71.8173L73.5518,323.225Q73.9043,322.6337,144.8171,220.9645Z" transform="translate(-17.8272 -45.9042)"/><ellipse id="shape3" class="cls-4" cx="352.727" cy="227.1577" rx="28.3986" ry="25.1975"/><ellipse id="shape4" class="cls-4" cx="138.6962" cy="375.6084" rx="23.4899" ry="28.2893" transform="translate(-276.0036 276.6906) rotate(-62.1245)"/><ellipse id="shape5" class="cls-4" cx="54.2455" cy="210.0249" rx="17.4533" ry="16.9007"/><path id="shape6" class="cls-2" d="M121.0308,274.9056l27.5851-44.9406,15.3087.6914.33,16.156,18.6168.2173-1.4931,19.4255,13.9035,1.8438L191.88,283.1255l-57.3889,12.3683-3.55-12.3683Z" transform="translate(-17.8272 -45.9042)"/><path id="shape8" class="cls-2" d="M423.0062,60.2255,449.1,98.9624a7.7581,7.7581,0,0,1-1.9449,10.5154l-25.1622,18.29a7.117,7.117,0,0,1-10.1766-1.7048L385.7225,87.3256A7.758,7.758,0,0,1,387.6673,76.81L412.83,58.5207A7.117,7.117,0,0,1,423.0062,60.2255Z" transform="translate(-17.8272 -45.9042)"/></svg>