<?xml version="1.0" standalone="no"?>
<!DOCTYPE svg PUBLIC "-//W3C//DTD SVG 20010904//EN" "http://www.w3.org/TR/2001/REC-SVG-20010904/DTD/svg10.dtd">
<!-- Created using Krita: http://krita.org -->
<svg xmlns="http://www.w3.org/2000/svg" 
    xmlns:xlink="http://www.w3.org/1999/xlink"
    xmlns:krita="http://krita.org/namespaces/svg/krita"
    xmlns:sodipodi="http://sodipodi.sourceforge.net/DTD/sodipodi-0.dtd"
    width="324pt"
    height="234pt"
    viewBox="0 0 324 234">
<defs/>
<rect id="shape02" transform="matrix(2.37564778601013 0 0 2.37564776745599 39.0492685039828 37.8900000163541)" fill="#805122" fill-rule="evenodd" width="102.6" height="69.48" rx="12.219846825232" ry="12.219846825232"/><path id="shape022" transform="matrix(2.69654287138538 0 0 2.69654286789585 162.157711604235 41.9968036015666)" fill="#ffa245" fill-rule="evenodd" d="M0 23.4194L12.9188 37.2928L23.7376 25.774L28.7651 0L23.2285 1.90919Z"/><path id="shape18" transform="matrix(2.69654287138538 0 0 2.69654286789585 91.2840412981901 113.21368500841)" fill="#0c8bb3" fill-rule="evenodd" d="M0 28.956L0 24.6922L10.4369 12.537L11.3915 0L15.1462 13.8098L29.4015 15.1462L16.4827 17.6918L4.07294 28.8924Z"/><path id="shape19" transform="matrix(2.69654287138538 0 0 2.69654286789585 129.552389669945 94.6801351483168)" fill="#ffa245" fill-rule="evenodd" d="M0 1.90919L2.99106 18.3282L22.1466 18.5828L4.13657 0Z"/><path id="shape20" transform="matrix(2.69654287138538 0 0 2.69654286789585 134.87221091417 42.3400174878643)" fill="#45d3ff" fill-rule="evenodd" d="M0.720807 38.2021L0 32.2016L33.4108 1.65463L38.9474 0L37.611 5.09117L7.08831 37.9096Z"/><path id="shape211" transform="matrix(2.69654287138538 0 0 2.69654286789585 147.227904835328 42.3400174878644)" fill="#ffa245" fill-rule="evenodd" d="M3.30926 22.0193L15.0189 11.3279L13.7462 0L9.22774 0.190919L0 19.1555Z"/><path id="shape22" transform="matrix(2.69654287138538 0 0 2.69654286789585 177.087512983739 149.251143069706)" fill="#ffa245" fill-rule="evenodd" d="M0 0.127279L6.1094 0L23.6103 16.7372L4.83661 12.1552Z"/><path id="shape23" transform="matrix(2.69654287138538 0 0 2.69654286789585 87.5086239911166 63.962467376547)" fill="#ffa245" fill-rule="evenodd" d="M1.71827 7.38219L5.37756 6.39579L5.53666 4.1684L0 3.81838L3.37291 1.24098L7.28675 1.90919L10.246 0L23.6739 2.41831L18.9646 6.23668L21.0011 7.31855L14.0962 10.8506Z"/><path id="shape24" transform="matrix(2.69654287138538 0 0 2.69654286789585 111.616068994651 69.5133687481053)" fill="#0c8bb3" fill-rule="evenodd" d="M0 1.5525L2.45249 0L8.30249 0.945L4.54499 2.8125C5.085 2.8725 3.57 2.4525 0 1.5525Z"/><path id="shape9" transform="matrix(2.69654287138538 0 0 2.69654286789585 117.804651809436 111.559234264638)" fill="#402811" fill-rule="evenodd" d="M5.265 14.175L1.575 0L0 19.395L21.015 15.66C20.595 15.93 15.345 15.435 5.265 14.175Z"/><rect id="shape021" transform="matrix(2.37564778601013 0 0 2.37564776745599 39.0492685039828 37.8900000163541)" fill="#805122" fill-rule="evenodd" width="102.6" height="69.48" rx="12.219846825232" ry="12.219846825232"/><path id="shape0221" transform="matrix(2.69654287138538 0 0 2.69654286789585 162.157711604235 41.9968036015666)" fill="#ffa245" fill-rule="evenodd" d="M0 23.4194L12.9188 37.2928L23.7376 25.774L28.7651 0L23.2285 1.90919Z"/><path id="shape181" transform="matrix(2.69654287138538 0 0 2.69654286789585 91.2840412981901 113.21368500841)" fill="#0c8bb3" fill-rule="evenodd" d="M0 28.956L0 24.6922L10.4369 12.537L11.3915 0L15.1462 13.8098L29.4015 15.1462L16.4827 17.6918L4.07294 28.8924Z"/><path id="shape191" transform="matrix(2.69654287138538 0 0 2.69654286789585 129.552389669945 94.6801351483168)" fill="#ffa245" fill-rule="evenodd" d="M0 1.90919L2.99106 18.3282L22.1466 18.5828L4.13657 0Z"/><path id="shape201" transform="matrix(2.69654287138538 0 0 2.69654286789585 134.87221091417 42.3400174878643)" fill="#45d3ff" fill-rule="evenodd" d="M0.720807 38.2021L0 32.2016L33.4108 1.65463L38.9474 0L37.611 5.09117L7.08831 37.9096Z"/><path id="shape2111" transform="matrix(2.69654287138538 0 0 2.69654286789585 147.227904835328 42.3400174878644)" fill="#ffa245" fill-rule="evenodd" d="M3.30926 22.0193L15.0189 11.3279L13.7462 0L9.22774 0.190919L0 19.1555Z"/><path id="shape221" transform="matrix(2.69654287138538 0 0 2.69654286789585 177.087512983739 149.251143069706)" fill="#ffa245" fill-rule="evenodd" d="M0 0.127279L6.1094 0L23.6103 16.7372L4.83661 12.1552Z"/><path id="shape231" transform="matrix(2.69654287138538 0 0 2.69654286789585 87.5086239911166 63.962467376547)" fill="#ffa245" fill-rule="evenodd" d="M1.71827 7.38219L5.37756 6.39579L5.53666 4.1684L0 3.81838L3.37291 1.24098L7.28675 1.90919L10.246 0L23.6739 2.41831L18.9646 6.23668L21.0011 7.31855L14.0962 10.8506Z"/><path id="shape241" transform="matrix(2.69654287138538 0 0 2.69654286789585 111.616068994651 69.5133687481053)" fill="#0c8bb3" fill-rule="evenodd" d="M0 1.5525L2.45249 0L8.30249 0.945L4.54499 2.8125C5.085 2.8725 3.57 2.4525 0 1.5525Z"/><path id="shape91" transform="matrix(2.69654287138538 0 0 2.69654286789585 117.804651809436 111.559234264638)" fill="#402811" fill-rule="evenodd" d="M5.265 14.175L1.575 0L0 19.395L21.015 15.66C20.595 15.93 15.345 15.435 5.265 14.175Z"/>
</svg>
