<?xml version="1.0" standalone="no"?>
<!DOCTYPE svg PUBLIC "-//W3C//DTD SVG 20010904//EN" "http://www.w3.org/TR/2001/REC-SVG-20010904/DTD/svg10.dtd">
<!-- Created using Krita: http://krita.org -->
<svg xmlns="http://www.w3.org/2000/svg" 
    xmlns:xlink="http://www.w3.org/1999/xlink"
    xmlns:krita="http://krita.org/namespaces/svg/krita"
    xmlns:sodipodi="http://sodipodi.sourceforge.net/DTD/sodipodi-0.dtd"
    width="324pt"
    height="234pt"
    viewBox="0 0 324 234">
<defs/>
<rect id="shape011" transform="matrix(2.381178041451 0 0 2.38117791807532 39.8455664735637 37.9557588081703)" fill="#805122" fill-rule="evenodd" width="102.6" height="69.48" rx="12.3953228367202" ry="12.3953228367202"/><path id="shape9" transform="matrix(2.38117811580096 0 0 2.38117800794119 106.549802434463 100.171936848731)" fill="#402811" fill-rule="evenodd" d="M0 5.87294L52.2 5.87294L41.22 0L9.99 0.09Z"/><path id="shape012" transform="matrix(2.38117811580096 0 0 2.38117800794119 134.099438626104 98.2500497796852)" fill="none" stroke="#ffa245" stroke-width="1.9800018" stroke-linecap="square" stroke-linejoin="miter" stroke-miterlimit="2" d="M0 9.14811C13.4242 -4.52603 26.5034 -1.53075 39.42 9.32811"/><path id="shape1" transform="matrix(2.38117811580096 0 0 2.38117800794119 117.194598943451 88.5543826931715)" fill="none" stroke="#45d3ff" stroke-width="1.9800018" stroke-linecap="square" stroke-linejoin="miter" stroke-miterlimit="2" d="M0 10.6056C12.3123 -10.7681 14.5594 5.44089 31.6289 13.533"/><path id="shape2" transform="matrix(2.38117811580096 0 0 2.38117800794119 148.933249715363 90.2856651883261)" fill="none" stroke="#0c8bb3" stroke-width="1.9800018" stroke-linecap="square" stroke-linejoin="miter" stroke-miterlimit="2" d="M0 10.5733C10.8654 -5.71099 20.2427 -1.155 29.1079 10.5733"/><path id="shape8" transform="matrix(2.38117811580096 0 0 2.38117800794119 75.2861697562891 114.036638478187)" fill="#ffa245" fill-rule="evenodd" d="M0 29.9106L81.4587 29.9106L65.4215 0L13.1734 0.0636449C13.1734 0.0636449 8.78227 10.0126 0 29.9106Z"/><path id="shape10" transform="matrix(2.38117811580096 0 0 2.38117800794119 83.2418703682167 162.607998470916)" fill="#402811" fill-rule="evenodd" d="M0 9.44894L7.1001 0L14.0751 9.45Z"/><path id="shape016" transform="matrix(2.38117802974278 0 0 2.38117800794119 128.477708781536 162.789786750286)" fill="#402811" fill-rule="evenodd" d="M0 9.5383L6.81213 0L13.8098 9.50646Z"/><path id="shape017" transform="matrix(2.38117804693408 0 0 2.38117805824771 177.265327522458 162.916904326956)" fill="#402811" fill-rule="evenodd" d="M0 9.44894L7.1001 0L14.0751 9.45Z"/><path id="shape018" transform="matrix(2.3811779608759 0 0 2.38117805824771 226.169713637045 162.584004408472)" fill="#402811" fill-rule="evenodd" d="M0 9.5383L6.81213 0L13.8098 9.50646Z"/><path id="shape1111" transform="matrix(2.38117811580096 0 0 2.38117800794119 107.866678932274 124.973335147451)" fill="#45d3ff" fill-rule="evenodd" d="M15.719 8.33679L2.92742 0L0 6.1094C0 6.1094 5.23966 6.85186 15.719 8.33679Z"/><path id="shape019" transform="matrix(-2.38117807935187 0 0 2.38117810829253 228.572610474268 125.302353738865)" fill="#45d3ff" fill-rule="evenodd" d="M15.719 8.33679L2.92742 0L0 6.1094C0 6.1094 5.23966 6.85186 15.719 8.33679Z"/><path id="shape12" transform="matrix(2.66281102302975 -0.0825553560550024 0.0849636694403114 2.74049057332987 44.6730128295497 26.6640551710558)" fill="#0c8bb3" fill-rule="evenodd" d="M20.9537 15.0953C21.5803 3.31971 17.6285 -0.481071 15.621 0.0476215C12.4413 0.885028 9.71188 5.16854 9.06047 22.3251C8.40906 39.4814 4.12102 48.2719 0.0193928 34.7046C-0.145723 40.6573 0.657571 48.7578 5.78796 49.0675C13.515 49.534 7.64607 -13.3064 20.9537 15.0953Z"/><path id="shape61" transform="matrix(2.38117811580096 0 0 2.38117800794119 122.718785226092 98.8070256272508)" fill="#0c8bb3" fill-rule="evenodd" d="M0 6.71403L4.13657 6.71403C3.95607 2.22581 3.28785 -0.0121793 2.13193 4.98458e-05C0.976003 0.012279 0.26536 2.25027 0 6.71403Z"/>
</svg>
