<?xml version="1.0" standalone="no"?>
<!DOCTYPE svg PUBLIC "-//W3C//DTD SVG 20010904//EN" "http://www.w3.org/TR/2001/REC-SVG-20010904/DTD/svg10.dtd">
<!-- Created using Krita: http://krita.org -->
<svg xmlns="http://www.w3.org/2000/svg" 
    xmlns:xlink="http://www.w3.org/1999/xlink"
    xmlns:krita="http://krita.org/namespaces/svg/krita"
    xmlns:sodipodi="http://sodipodi.sourceforge.net/DTD/sodipodi-0.dtd"
    width="324pt"
    height="234pt"
    viewBox="0 0 324 234">
<defs/>
<rect id="shape01" transform="matrix(0.999999933488284 0 0 0.999999983359268 100.997658682505 -509.447990357877)" fill="#805122" fill-rule="evenodd" width="102.6" height="69.48" rx="12.7976586737563" ry="12.7976586737563"/><rect id="shape2" transform="matrix(0.943787804970573 0 0 0.962230146625543 136.808352186649 -490.150432843029)" fill="#402811" fill-rule="evenodd" width="49.3510353910047" height="41.76" rx="3.14689031925953" ry="3.14689031925953"/><rect id="shape3" transform="matrix(0.943787804970573 0.539341038418086 0 0.962230146625543 122.462787708728 -498.156106570974)" fill="#0c8bb3" fill-rule="evenodd" width="14.76" height="41.76" rx="2.04822782948993" ry="2.04822782948993"/><rect id="shape4" transform="matrix(0.943787804970573 0 1.67990308291162 0.962230146625543 122.00597205178 -498.162693449378)" fill="#ffa245" fill-rule="evenodd" width="49.68" height="8.49275128933164" rx="1.53065405243592" ry="1.53065405243592"/><rect id="shape5" transform="matrix(0.999999964712304 0 0 1.00000002109935 140.398670368503 -486.845202701659)" fill="#ffa245" fill-rule="evenodd" width="4.68000000000001" height="4.68000000000001"/><rect id="shape07" transform="matrix(0.999999956306415 0 0 0.999999996398765 147.903427899118 -486.825824831277)" fill="#ffa245" fill-rule="evenodd" width="4.68000000000001" height="4.68000000000001"/><rect id="shape08" transform="matrix(0.99999994392036 0 0 0.999999994424122 155.396802017644 -486.826934944273)" fill="#ffa245" fill-rule="evenodd" width="4.68000000000001" height="4.68000000000001"/><rect id="shape09" transform="matrix(0.999999935514471 0 0 0.999999969723532 162.966798020863 -486.785057074267)" fill="#ffa245" fill-rule="evenodd" width="4.68000000000001" height="4.68000000000001"/><rect id="shape010" transform="matrix(0.99999994392036 0 0 0.999999994424122 170.226388993498 -486.822331889198)" fill="#ffa245" fill-rule="evenodd" width="4.68000000000001" height="4.68000000000001"/><rect id="shape011" transform="matrix(0.999999935514471 0 0 0.999999969723532 177.19001570646 -486.851814409868)" fill="#ffa245" fill-rule="evenodd" width="4.68000000000001" height="4.68000000000001"/><rect id="shape012" transform="matrix(0.999999949252369 0 0 1.00000001912361 140.381948959086 -479.906566383669)" fill="#ffa245" fill-rule="evenodd" width="4.68000000000001" height="4.68000000000001"/><rect id="shape013" transform="matrix(0.99999994084648 0 0 0.999999994423022 147.213031081612 -479.887188513326)" fill="#45d3ff" fill-rule="evenodd" width="4.68000000000001" height="4.68000000000001"/><rect id="shape0131" transform="matrix(0.999999928460424 0 0 0.999999992448379 155.380080376357 -479.888298626319)" fill="#ffa245" fill-rule="evenodd" width="4.68000000000001" height="4.68000000000001"/><rect id="shape023" transform="matrix(0.999999920054536 0 0 0.999999967747789 162.950076262544 -479.846420756396)" fill="#ffa245" fill-rule="evenodd" width="4.68000000000001" height="4.68000000000001"/><rect id="shape031" transform="matrix(0.999999928460424 0 0 0.999999992448379 169.318713858602 -479.883695571253)" fill="#45d3ff" fill-rule="evenodd" width="4.68000000000001" height="4.68000000000001"/><rect id="shape041" transform="matrix(0.999999920054536 0 0 0.999999967747789 177.173293728251 -479.913178091865)" fill="#ffa245" fill-rule="evenodd" width="4.68000000000001" height="4.68000000000001"/><rect id="shape014" transform="matrix(0.999999949252369 0 0 1.00000001912361 140.381948959086 -472.71529036249)" fill="#ffa245" fill-rule="evenodd" width="4.68000000000001" height="4.68000000000001"/><rect id="shape015" transform="matrix(0.99999994084648 0 0 0.999999994423022 147.886706373678 -472.695912492146)" fill="#ffa245" fill-rule="evenodd" width="4.68000000000001" height="4.68000000000001"/><rect id="shape0141" transform="matrix(0.999999928460424 0 0 0.999999992448379 155.380080376357 -472.69702260514)" fill="#ffa245" fill-rule="evenodd" width="4.68000000000001" height="4.68000000000001"/><rect id="shape024" transform="matrix(0.999999920054536 0 0 0.999999967747789 162.950076262544 -472.655144735217)" fill="#ffa245" fill-rule="evenodd" width="4.68000000000001" height="4.68000000000001"/><rect id="shape032" transform="matrix(0.999999928460424 0 0 0.999999992448379 170.209667122947 -472.692419550074)" fill="#ffa245" fill-rule="evenodd" width="4.68000000000001" height="4.68000000000001"/><rect id="shape042" transform="matrix(0.999999920054536 0 0 0.999999967747789 177.173293728251 -472.721902070686)" fill="#ffa245" fill-rule="evenodd" width="4.68000000000001" height="4.68000000000001"/><rect id="shape016" transform="matrix(0.999999949252369 0 0 1.00000001912361 140.381948959086 -465.524014341311)" fill="#ffa245" fill-rule="evenodd" width="4.68000000000001" height="4.68000000000001"/><rect id="shape017" transform="matrix(0.99999994084648 0 0 0.999999994423022 147.123031078278 -465.504636470967)" fill="#45d3ff" fill-rule="evenodd" width="4.68000000000001" height="4.68000000000001"/><rect id="shape0151" transform="matrix(0.999999928460424 0 0 0.999999992448379 155.380080376357 -465.50574658396)" fill="#ffa245" fill-rule="evenodd" width="4.68000000000001" height="4.68000000000001"/><rect id="shape025" transform="matrix(0.999999920054536 0 0 0.999999967747789 162.950076262544 -465.463868714038)" fill="#ffa245" fill-rule="evenodd" width="4.68000000000001" height="4.68000000000001"/><rect id="shape033" transform="matrix(0.999999928460424 0 0 0.999999992448379 169.445991827547 -465.501143528894)" fill="#45d3ff" fill-rule="evenodd" width="4.68000000000001" height="4.68000000000001"/><rect id="shape043" transform="matrix(0.999999920054536 0 0 0.999999967747789 177.173293728251 -465.530626049506)" fill="#ffa245" fill-rule="evenodd" width="4.68000000000001" height="4.68000000000001"/><rect id="shape018" transform="matrix(0.999999949252369 0 0 1.00000001912361 140.25466974465 -458.14181948771)" fill="#ffa245" fill-rule="evenodd" width="4.68000000000001" height="4.68000000000001"/><rect id="shape019" transform="matrix(0.99999994084648 0 0 0.999999994423022 147.759427159241 -458.122441617368)" fill="#ffa245" fill-rule="evenodd" width="4.68000000000001" height="4.68000000000001"/><rect id="shape0161" transform="matrix(0.999999928460424 0 0 0.999999992448379 154.489125866521 -458.12355173036)" fill="#45d3ff" fill-rule="evenodd" width="4.68000000000001" height="4.68000000000001"/><rect id="shape026" transform="matrix(0.999999920054536 0 0 0.999999967747789 162.059121752708 -458.081673860437)" fill="#45d3ff" fill-rule="evenodd" width="4.68000000000001" height="4.68000000000001"/><rect id="shape034" transform="matrix(0.999999928460424 0 0 0.999999992448379 170.082387908509 -458.118948675295)" fill="#ffa245" fill-rule="evenodd" width="4.68000000000001" height="4.68000000000001"/><rect id="shape044" transform="matrix(0.999999920054536 0 0 0.999999967747789 177.046014513815 -458.148431195906)" fill="#ffa245" fill-rule="evenodd" width="4.68000000000001" height="4.68000000000001"/><ellipse id="shape6" transform="matrix(0.999999964712304 0 0 1.00000002109935 169.327274401943 -497.712691860453)" rx="3.37179646401425" ry="3.37179646401424" cx="3.37179646401425" cy="3.37179646401424" fill="#45d3ff" fill-rule="evenodd"/><path id="shape7" transform="matrix(0.999999964712304 0 0 1.00000002109935 167.767725327642 -503.024791922021)" fill="none" stroke="#45d3ff" stroke-width="2.52" stroke-linecap="square" stroke-linejoin="bevel" d="M0 2.61211C6.46046 -3.41398 15.0839 1.84374 13.41 9.67711"/><path id="shape020" transform="matrix(0.999999960060209 0 0 1.00000000568222 164.503865198315 -514.777609270802)" fill="none" stroke="#45d3ff" stroke-width="2.52" stroke-linecap="square" stroke-linejoin="bevel" d="M0 3.51782C11.8729 -4.78335 28.0346 2.23676 27.6196 17.964"/><path id="shape021" transform="matrix(0.999999960060209 0 0 1.00000000568222 166.732725301674 -508.936857020478)" fill="none" stroke="#45d3ff" stroke-width="2.52" stroke-linecap="square" stroke-linejoin="bevel" d="M0 3.16917C9.8435 -4.12468 20.7417 1.8968 19.98 13.8342"/><path id="shape8" transform="matrix(0.999999964712304 0 0 1.00000002109935 92.5801890404026 -475.122703774942)" fill="none" stroke="#0c8bb3" stroke-width="1.8" stroke-linecap="square" stroke-linejoin="bevel" d="M32.0698 0C30.4438 7.05087 27.2038 10.8309 22.3498 11.34C14.7043 12.1419 9.49963 6.11029 0 14.6002"/><path id="shape022" transform="matrix(-0.976481733995593 -0.21559978819383 -0.215599784624041 0.976481827949371 95.6378077696254 -461.815541073)" fill="#45d3ff" fill-rule="evenodd" d="M4.47373 11.5116L5.52377 10.5888L3.67822 7.66142L7.30568 5.11584L9.43761 7.88416L10.424 7.08866C8.25777 3.24475 6.56071 0.98554 5.33285 0.311046C4.51058 -0.140649 2.83741 -0.177967 1.5463 0.724703C0.455862 1.48707 -0.113735 2.65355 0.0189599 4.51127C0.0698716 5.22403 1.5548 7.55749 4.47373 11.5116Z"/><rect id="shape05" transform="matrix(2.38733795627408 0 0 2.38733782664221 37.3691886828241 36.5954634883461)" fill="#805122" fill-rule="evenodd" width="102.6" height="69.48" rx="14.9667095274621" ry="14.9667095274621"/><path id="shape0" transform="matrix(2.83321717565063 0 0 2.83321691817918 65.9908211207513 147.83273178097)" sodipodi:type="arc" sodipodi:rx="5.94" sodipodi:ry="7.37999999999999" sodipodi:cx="5.94001803248845" sodipodi:cy="7.38004883404796" sodipodi:start="6.28318530717959" sodipodi:end="6.24846930817966" sodipodi:open="true" d="M11.8764 7.1239C11.7633 3.07547 9.04473 -0.10291 5.78538 0.00255024C2.52602 0.108011 -0.0556793 3.45788 0.000912871 7.50814C0.057505 11.5584 2.73124 14.7949 5.99157 14.7598C9.2519 14.7246 11.88 11.4309 11.88 7.38005" fill="#1d2460" fill-rule="evenodd"/><path id="shape011" transform="matrix(2.83321721248778 0 0 2.8332170771062 65.9155643173651 147.38668942781)" fill="#402811" fill-rule="evenodd" d="M8.98159 15.0075L4.49236 14.9135C-2.28414 11.5272 -0.77596 2.66567 4.90909 0L9.48807 0.0536618C9.61711 0.031469 9.44828 5.01608 8.98159 15.0075Z"/><ellipse id="shape012" transform="matrix(2.83321717565063 0 0 2.83321691817918 75.2725929139796 148.108537876059)" rx="5.94" ry="7.37999999999999" cx="5.94" cy="7.37999999999999" fill="#0c8bb3" fill-rule="evenodd"/><ellipse id="shape02" transform="matrix(2.83321717565063 0 0 2.83321691817918 83.8370725610539 158.955381952359)" rx="3.02908835336371" ry="3.76341280266399" cx="3.02908835336371" cy="3.76341280266399" fill="#402811" fill-rule="evenodd"/><path id="shape03" transform="matrix(1.83403350702703 0 0 1.83403341384262 193.976558793925 143.702866737168)" sodipodi:type="arc" sodipodi:rx="5.94" sodipodi:ry="7.37999999999999" sodipodi:cx="5.94001803248845" sodipodi:cy="7.38004883404796" sodipodi:start="6.28318530717959" sodipodi:end="6.24846930817966" sodipodi:open="true" d="M11.8764 7.1239C11.7633 3.07547 9.04473 -0.10291 5.78538 0.00255024C2.52602 0.108011 -0.0556793 3.45788 0.000912871 7.50814C0.057505 11.5584 2.73124 14.7949 5.99157 14.7598C9.2519 14.7246 11.88 11.4309 11.88 7.38005" fill="#1d2460" fill-rule="evenodd"/><path id="shape04" transform="matrix(1.83403353087292 0 0 1.83403351672124 193.927843672557 143.414129021943)" fill="#1d2460" fill-rule="evenodd" d="M8.98159 15.0075L4.49236 14.9135C-2.28414 11.5272 -0.775961 2.66567 4.90909 0L9.48807 0.0536618C9.61711 0.031469 9.44828 5.01608 8.98159 15.0075Z"/><ellipse id="shape0111" transform="matrix(1.83403350702703 0 0 1.83403341384262 199.984951168379 143.881404988468)" rx="5.94" ry="7.37999999999999" cx="5.94" cy="7.37999999999999" fill="#0c8bb3" fill-rule="evenodd"/><ellipse id="shape0211" transform="matrix(1.83403350702703 0 0 1.83403341384262 205.529017037379 150.902919770139)" rx="3.02908835336371" ry="3.76341280266399" cx="3.02908835336371" cy="3.76341280266399" fill="#1d2460" fill-rule="evenodd"/><path id="shape01" transform="matrix(2.38733803081637 0 0 2.38733791674055 138.880689751111 132.006239612005)" fill="#ffa245" fill-rule="evenodd" d="M19.8681 0L46.8909 4.32578L27.36 16.9713L0 11.5938"/><path id="shape1" transform="matrix(2.38733803081637 0 0 2.38733791674055 75.2158200143827 153.760829501462)" fill="#ffa245" fill-rule="evenodd" d="M17.5023 0C20.8214 0.67171 24.7142 1.44962 28.0333 2.12133C35.7513 3.6833 43.3259 5.21871 50.9005 6.75412C58.4752 8.28954 66.0498 9.82495 73.7678 11.3869L54.1944 22.8418L0 9.8623L17.5023 0"/><path id="shape0231" transform="matrix(3.25111411284416 0 0 3.25111394766005 203.282232294409 174.431628451923)" sodipodi:type="arc" sodipodi:rx="5.94" sodipodi:ry="7.37999999999999" sodipodi:cx="5.94001803248845" sodipodi:cy="7.38004883404796" sodipodi:start="6.28318530717959" sodipodi:end="6.24846930817966" sodipodi:open="true" d="M11.8764 7.1239C11.7633 3.07547 9.04473 -0.10291 5.78538 0.00255024C2.52602 0.108011 -0.0556793 3.45788 0.000912871 7.50814C0.057505 11.5584 2.73124 14.7949 5.99157 14.7598C9.2519 14.7246 11.88 11.4309 11.88 7.38005" fill="#1d2460" fill-rule="evenodd"/><path id="shape0241" transform="matrix(3.25111415511475 0 0 3.25111413002867 203.195877046275 173.919795239894)" fill="#402811" fill-rule="evenodd" d="M8.98159 15.0075L4.49236 14.9135C-2.28414 11.5272 -0.775961 2.66567 4.90909 0L9.48807 0.0536618C9.61711 0.031469 9.44828 5.01608 8.98159 15.0075Z"/><ellipse id="shape0171" transform="matrix(3.25111411284416 0 0 3.25111394766005 213.933056921797 174.748115705983)" rx="5.94" ry="7.37999999999999" cx="5.94" cy="7.37999999999999" fill="#0c8bb3" fill-rule="evenodd"/><ellipse id="shape027" transform="matrix(3.25111411284416 0 0 3.25111394766005 223.760789468765 187.194859842756)" rx="3.02908835336371" ry="3.76341280266399" cx="3.02908835336371" cy="3.76341280266399" fill="#402811" fill-rule="evenodd"/><path id="shape10" transform="matrix(2.95899270538181 0 0 2.95899256399021 127.412834325514 46.0799979231247)" fill="none" stroke="#402811" stroke-width="1.8" stroke-linecap="square" stroke-linejoin="bevel" d="M19.7649 49.7506C24.3125 42.6582 22.0325 36.4182 17.7849 36.3406C13.5374 36.263 11.4678 40.2016 7.25493 39.6706C3.04211 39.1396 -2.17658 35.2889 0.954927 29.1406C4.08644 22.9923 14.4058 29.0083 15.3549 18.9706C15.1347 16.7861 13.4851 14.998 11.6888 13.3758C9.77697 11.6492 7.70746 10.0812 7.30896 7.42144C6.65869 3.08122 9.22357 0.671127 14.1221 0"/><path id="shape11" transform="matrix(2.95899270538181 0 0 2.95899256399021 162 33.0145591264728)" fill="#1d2460" fill-rule="evenodd" stroke="#ffa245" stroke-width="2.7" stroke-linecap="square" stroke-linejoin="miter" stroke-miterlimit="2" d="M0 49.0661L0 0"/><path id="shape12" transform="matrix(2.95899270538181 0 0 2.95899256399021 136.663937507398 2.41455784489659)" fill="#0c8bb3" fill-rule="evenodd" d="M0.178469 14.5323C3.49047 14.9463 9.01047 15.6363 16.7385 16.6023C16.7835 6.94235 15.4635 1.67735 8.45848 0.222354C1.45348 -1.23264 -0.676531 4.55735 0.178469 14.5323Z"/><ellipse id="shape13" transform="matrix(-2.06103349100602 0 0 2.06103339252223 154.657344839136 15.5767138964979)" rx="4.484002208298" ry="5.24012085497934" cx="4.484002208298" cy="5.24012085497934" fill="#402811" fill-rule="evenodd"/><path id="shape14" transform="matrix(-2.06103349100602 0 0 2.06103339252223 154.732077691664 15.5767004280445)" fill="#402811" fill-rule="evenodd" d="M7.50873 0.0954594L4.07219 0C-1.70163 0.869669 -1.03166 9.88364 4.16765 10.5324L7.636 10.3414C7.636 10.3414 7.59358 6.92611 7.50873 0.0954594Z"/><ellipse id="shape0251" transform="matrix(-2.06103347304305 0 0 2.06103336357711 148.342747624907 15.4558956229789)" rx="4.484002208298" ry="5.24012085497934" cx="4.484002208298" cy="5.24012085497934" fill="#45d3ff" fill-rule="evenodd"/><ellipse id="shape0261" transform="matrix(-2.13038062689974 0 0 2.1303803924409 181.902469614249 20.3743473075115)" rx="4.484002208298" ry="5.24012085497934" cx="4.484002208298" cy="5.24012085497934" fill="#402811" fill-rule="evenodd"/><path id="shape111" transform="matrix(-2.13038062689974 0 0 2.1303803924409 181.97971526537 20.3743333858865)" fill="#402811" fill-rule="evenodd" d="M7.50873 0.0954594L4.07219 0C-1.70163 0.869669 -1.03166 9.88364 4.16765 10.5324L7.636 10.3414C7.636 10.3414 7.59358 6.92611 7.50873 0.0954594Z"/><ellipse id="shape0271" transform="matrix(-2.13038060833238 0 0 2.13038036252187 175.385630310762 20.2494638961661)" rx="4.484002208298" ry="5.24012085497934" cx="4.484002208298" cy="5.24012085497934" fill="#45d3ff" fill-rule="evenodd"/><path id="shape15" transform="matrix(2.95899270538181 0 0 2.95899256399021 153.407423676775 76.7148694988932)" fill="#402811" fill-rule="evenodd" stroke="#402811" stroke-width="1.8" stroke-linecap="square" stroke-linejoin="bevel" d="M4.84766 5.03968C3.9317 3.88827 1.88081 2.11837 0 0"/><ellipse id="shape16" transform="matrix(2.95899270538181 0 0 2.95899256399021 177.6039609017 189.563397298501)" rx="2.34" ry="1.79999999999998" cx="2.34" cy="1.79999999999998" fill="#45d3ff" fill-rule="evenodd"/>
</svg>
