<?xml version="1.0" standalone="no"?>
<!DOCTYPE svg PUBLIC "-//W3C//DTD SVG 20010904//EN" "http://www.w3.org/TR/2001/REC-SVG-20010904/DTD/svg10.dtd">
<!-- Created using Krita: http://krita.org -->
<svg xmlns="http://www.w3.org/2000/svg" 
    xmlns:xlink="http://www.w3.org/1999/xlink"
    xmlns:krita="http://krita.org/namespaces/svg/krita"
    xmlns:sodipodi="http://sodipodi.sourceforge.net/DTD/sodipodi-0.dtd"
    width="324pt"
    height="234pt"
    viewBox="0 0 324 234">
<defs/>
<rect id="shape01" transform="matrix(2.38916038548123 0 0 2.38916050463101 38.7238007972971 37.3933154120177)" fill="#805122" fill-rule="evenodd" width="102.6" height="69.48" rx="12.7976586737563" ry="12.7976586737563"/><rect id="shape2" transform="matrix(2.25486058591062 0 0 2.29892230093881 124.281296784584 83.4982784295581)" fill="#402811" fill-rule="evenodd" width="49.3510353910047" height="41.76" rx="3.14689031925953" ry="3.14689031925953"/><rect id="shape3" transform="matrix(2.25486058591062 1.28857232895796 0 2.29892230093881 90.0074401469552 64.3714386275063)" fill="#0c8bb3" fill-rule="evenodd" width="14.76" height="41.76" rx="2.04822782948993" ry="2.04822782948993"/><rect id="shape4" transform="matrix(2.25486058591062 0 4.01355816408887 2.29892230093881 88.9160342033161 64.3557015175133)" fill="#ffa245" fill-rule="evenodd" width="49.68" height="8.49275128933164" rx="1.53065405243592" ry="1.53065405243592"/><rect id="shape5" transform="matrix(2.38916046008042 0 0 2.38916059479814 132.85914332647 91.3950038734434)" fill="#ffa245" fill-rule="evenodd" width="4.68000000000001" height="4.68000000000001"/><rect id="shape07" transform="matrix(2.38916043999741 0 0 2.38916053578447 150.789213913815 91.4413007167939)" fill="#ffa245" fill-rule="evenodd" width="4.68000000000001" height="4.68000000000001"/><rect id="shape08" transform="matrix(2.38916041040513 0 0 2.38916053106673 168.692087702139 91.4386484786252)" fill="#ffa245" fill-rule="evenodd" width="4.68000000000001" height="4.68000000000001"/><rect id="shape09" transform="matrix(2.38916039032211 0 0 2.38916047205305 186.778023474208 91.5387014333258)" fill="#ffa245" fill-rule="evenodd" width="4.68000000000001" height="4.68000000000001"/><rect id="shape010" transform="matrix(2.38916041040513 0 0 2.38916053106673 204.122351794425 91.4496459161944)" fill="#ffa245" fill-rule="evenodd" width="4.68000000000001" height="4.68000000000001"/><rect id="shape011" transform="matrix(2.38916039032211 0 0 2.38916047205305 220.759573982885 91.3792074410607)" fill="#ffa245" fill-rule="evenodd" width="4.68000000000001" height="4.68000000000001"/><rect id="shape012" transform="matrix(2.38916042314416 0 0 2.38916059007777 132.819193194844 107.972519996245)" fill="#ffa245" fill-rule="evenodd" width="4.68000000000001" height="4.68000000000001"/><rect id="shape013" transform="matrix(2.38916040306114 0 0 2.3891605310641 149.13974507746 108.018816839505)" fill="#45d3ff" fill-rule="evenodd" width="4.68000000000001" height="4.68000000000001"/><rect id="shape0131" transform="matrix(2.38916037346886 0 0 2.38916052634636 168.652137016539 108.016164601341)" fill="#ffa245" fill-rule="evenodd" width="4.68000000000001" height="4.68000000000001"/><rect id="shape023" transform="matrix(2.38916035338585 0 0 2.38916046733269 186.738072509 108.116217555843)" fill="#ffa245" fill-rule="evenodd" width="4.68000000000001" height="4.68000000000001"/><rect id="shape031" transform="matrix(2.38916037346886 0 0 2.38916052634636 201.953770175009 108.027162038889)" fill="#45d3ff" fill-rule="evenodd" width="4.68000000000001" height="4.68000000000001"/><rect id="shape041" transform="matrix(2.38916035338585 0 0 2.38916046733269 220.719622492324 107.956723563893)" fill="#ffa245" fill-rule="evenodd" width="4.68000000000001" height="4.68000000000001"/><rect id="shape014" transform="matrix(2.38916042314416 0 0 2.38916059007777 132.819193194844 125.153632929853)" fill="#ffa245" fill-rule="evenodd" width="4.68000000000001" height="4.68000000000001"/><rect id="shape015" transform="matrix(2.38916040306114 0 0 2.3891605310641 150.749263504992 125.199929773113)" fill="#ffa245" fill-rule="evenodd" width="4.68000000000001" height="4.68000000000001"/><rect id="shape0141" transform="matrix(2.38916037346886 0 0 2.38916052634636 168.652137016539 125.197277534949)" fill="#ffa245" fill-rule="evenodd" width="4.68000000000001" height="4.68000000000001"/><rect id="shape024" transform="matrix(2.38916035338585 0 0 2.38916046733269 186.738072509 125.297330489451)" fill="#ffa245" fill-rule="evenodd" width="4.68000000000001" height="4.68000000000001"/><rect id="shape032" transform="matrix(2.38916037346886 0 0 2.38916052634636 204.082400561077 125.208274972497)" fill="#ffa245" fill-rule="evenodd" width="4.68000000000001" height="4.68000000000001"/><rect id="shape042" transform="matrix(2.38916035338585 0 0 2.38916046733269 220.719622492324 125.137836497501)" fill="#ffa245" fill-rule="evenodd" width="4.68000000000001" height="4.68000000000001"/><rect id="shape016" transform="matrix(2.38916042314416 0 0 2.38916059007777 132.819193194844 142.334745863461)" fill="#ffa245" fill-rule="evenodd" width="4.68000000000001" height="4.68000000000001"/><rect id="shape017" transform="matrix(2.38916040306114 0 0 2.3891605310641 148.924720620499 142.38104270672)" fill="#45d3ff" fill-rule="evenodd" width="4.68000000000001" height="4.68000000000001"/><rect id="shape0151" transform="matrix(2.38916037346886 0 0 2.38916052634636 168.652137016539 142.378390468557)" fill="#ffa245" fill-rule="evenodd" width="4.68000000000001" height="4.68000000000001"/><rect id="shape025" transform="matrix(2.38916035338585 0 0 2.38916046733269 186.738072509 142.478443423059)" fill="#ffa245" fill-rule="evenodd" width="4.68000000000001" height="4.68000000000001"/><rect id="shape033" transform="matrix(2.38916037346886 0 0 2.38916052634636 202.257857676584 142.389387906105)" fill="#45d3ff" fill-rule="evenodd" width="4.68000000000001" height="4.68000000000001"/><rect id="shape043" transform="matrix(2.38916035338585 0 0 2.38916046733269 220.719622492324 142.318949431109)" fill="#ffa245" fill-rule="evenodd" width="4.68000000000001" height="4.68000000000001"/><rect id="shape018" transform="matrix(2.38916042314416 0 0 2.38916059007777 132.515102717591 159.97199453867)" fill="#ffa245" fill-rule="evenodd" width="4.68000000000001" height="4.68000000000001"/><rect id="shape019" transform="matrix(2.38916040306114 0 0 2.3891605310641 150.44517302774 160.018291381927)" fill="#ffa245" fill-rule="evenodd" width="4.68000000000001" height="4.68000000000001"/><rect id="shape0161" transform="matrix(2.38916037346886 0 0 2.38916052634636 166.523503654793 160.015639143767)" fill="#45d3ff" fill-rule="evenodd" width="4.68000000000001" height="4.68000000000001"/><rect id="shape026" transform="matrix(2.38916035338585 0 0 2.38916046733269 184.609439147254 160.115692098268)" fill="#45d3ff" fill-rule="evenodd" width="4.68000000000001" height="4.68000000000001"/><rect id="shape034" transform="matrix(2.38916037346886 0 0 2.38916052634636 203.778310083822 160.026636581312)" fill="#ffa245" fill-rule="evenodd" width="4.68000000000001" height="4.68000000000001"/><rect id="shape044" transform="matrix(2.38916035338585 0 0 2.38916046733269 220.415532015071 159.956198106318)" fill="#ffa245" fill-rule="evenodd" width="4.68000000000001" height="4.68000000000001"/><ellipse id="shape6" transform="matrix(2.38916046008042 0 0 2.38916059479814 201.9742226874 65.430827558684)" rx="3.37179646401425" ry="3.37179646401424" cx="3.37179646401425" cy="3.37179646401424" fill="#45d3ff" fill-rule="evenodd"/><path id="shape7" transform="matrix(2.38916046008042 0 0 2.38916059479814 198.248209572042 52.7393676837424)" fill="none" stroke="#45d3ff" stroke-width="2.52" stroke-linecap="square" stroke-linejoin="bevel" d="M0 2.61211C6.46046 -3.41398 15.0839 1.84374 13.41 9.67711"/><path id="shape020" transform="matrix(2.38916044896582 0 0 2.38916055796413 190.450323728652 24.6600001886311)" fill="none" stroke="#45d3ff" stroke-width="2.52" stroke-linecap="square" stroke-linejoin="bevel" d="M0 3.51782C11.8729 -4.78335 28.0346 2.23676 27.6196 17.964"/><path id="shape021" transform="matrix(2.38916044896582 0 0 2.38916055796413 195.775428346558 38.614495014655)" fill="none" stroke="#45d3ff" stroke-width="2.52" stroke-linecap="square" stroke-linejoin="bevel" d="M0 3.16917C9.8435 -4.12468 20.7417 1.8968 19.98 13.8342"/><path id="shape8" transform="matrix(2.38916046008042 0 0 2.38916059479814 18.6131144447984 119.401935790791)" fill="none" stroke="#0c8bb3" stroke-width="1.8" stroke-linecap="square" stroke-linejoin="bevel" d="M32.0698 0C30.4438 7.05087 27.2038 10.8309 22.3498 11.34C14.7043 12.1419 9.49963 6.11029 0 14.6002"/><path id="shape022" transform="matrix(-2.33297163117824 -0.515102507331193 -0.515102498802394 2.33297185564889 25.9182564724405 151.194883876027)" fill="#45d3ff" fill-rule="evenodd" d="M4.47373 11.5116L5.52377 10.5888L3.67822 7.66142L7.30568 5.11584L9.43761 7.88416L10.424 7.08866C8.25777 3.24475 6.56071 0.98554 5.33285 0.311046C4.51058 -0.140649 2.83741 -0.177967 1.5463 0.724703C0.455862 1.48707 -0.113735 2.65355 0.0189599 4.51127C0.0698716 5.22403 1.5548 7.55749 4.47373 11.5116Z"/><rect id="shape011" transform="matrix(2.38916038548123 0 0 2.38916050463101 38.7238007972971 37.3933154120177)" fill="#805122" fill-rule="evenodd" width="102.6" height="69.48" rx="12.7976586737563" ry="12.7976586737563"/><rect id="shape21" transform="matrix(2.25486058591062 0 0 2.29892230093881 124.281296784584 83.4982784295581)" fill="#402811" fill-rule="evenodd" width="49.3510353910047" height="41.76" rx="3.14689031925953" ry="3.14689031925953"/><rect id="shape31" transform="matrix(2.25486058591062 1.28857232895796 0 2.29892230093881 90.0074401469552 64.3714386275063)" fill="#0c8bb3" fill-rule="evenodd" width="14.76" height="41.76" rx="2.04822782948993" ry="2.04822782948993"/><rect id="shape41" transform="matrix(2.25486058591062 0 4.01355816408887 2.29892230093881 88.9160342033161 64.3557015175133)" fill="#ffa245" fill-rule="evenodd" width="49.68" height="8.49275128933164" rx="1.53065405243592" ry="1.53065405243592"/><rect id="shape51" transform="matrix(2.38916046008042 0 0 2.38916059479814 132.85914332647 91.3950038734434)" fill="#ffa245" fill-rule="evenodd" width="4.68000000000001" height="4.68000000000001"/><rect id="shape071" transform="matrix(2.38916043999741 0 0 2.38916053578447 150.789213913815 91.4413007167939)" fill="#ffa245" fill-rule="evenodd" width="4.68000000000001" height="4.68000000000001"/><rect id="shape081" transform="matrix(2.38916041040513 0 0 2.38916053106673 168.692087702139 91.4386484786252)" fill="#ffa245" fill-rule="evenodd" width="4.68000000000001" height="4.68000000000001"/><rect id="shape091" transform="matrix(2.38916039032211 0 0 2.38916047205305 186.778023474208 91.5387014333258)" fill="#ffa245" fill-rule="evenodd" width="4.68000000000001" height="4.68000000000001"/><rect id="shape0101" transform="matrix(2.38916041040513 0 0 2.38916053106673 204.122351794425 91.4496459161944)" fill="#ffa245" fill-rule="evenodd" width="4.68000000000001" height="4.68000000000001"/><rect id="shape0111" transform="matrix(2.38916039032211 0 0 2.38916047205305 220.759573982885 91.3792074410607)" fill="#ffa245" fill-rule="evenodd" width="4.68000000000001" height="4.68000000000001"/><rect id="shape0121" transform="matrix(2.38916042314416 0 0 2.38916059007777 132.819193194844 107.972519996245)" fill="#ffa245" fill-rule="evenodd" width="4.68000000000001" height="4.68000000000001"/><rect id="shape0131" transform="matrix(2.38916040306114 0 0 2.3891605310641 149.13974507746 108.018816839505)" fill="#45d3ff" fill-rule="evenodd" width="4.68000000000001" height="4.68000000000001"/><rect id="shape01311" transform="matrix(2.38916037346886 0 0 2.38916052634636 168.652137016539 108.016164601341)" fill="#ffa245" fill-rule="evenodd" width="4.68000000000001" height="4.68000000000001"/><rect id="shape0231" transform="matrix(2.38916035338585 0 0 2.38916046733269 186.738072509 108.116217555843)" fill="#ffa245" fill-rule="evenodd" width="4.68000000000001" height="4.68000000000001"/><rect id="shape0311" transform="matrix(2.38916037346886 0 0 2.38916052634636 201.953770175009 108.027162038889)" fill="#45d3ff" fill-rule="evenodd" width="4.68000000000001" height="4.68000000000001"/><rect id="shape0411" transform="matrix(2.38916035338585 0 0 2.38916046733269 220.719622492324 107.956723563893)" fill="#ffa245" fill-rule="evenodd" width="4.68000000000001" height="4.68000000000001"/><rect id="shape0141" transform="matrix(2.38916042314416 0 0 2.38916059007777 132.819193194844 125.153632929853)" fill="#ffa245" fill-rule="evenodd" width="4.68000000000001" height="4.68000000000001"/><rect id="shape0151" transform="matrix(2.38916040306114 0 0 2.3891605310641 150.749263504992 125.199929773113)" fill="#ffa245" fill-rule="evenodd" width="4.68000000000001" height="4.68000000000001"/><rect id="shape01411" transform="matrix(2.38916037346886 0 0 2.38916052634636 168.652137016539 125.197277534949)" fill="#ffa245" fill-rule="evenodd" width="4.68000000000001" height="4.68000000000001"/><rect id="shape0241" transform="matrix(2.38916035338585 0 0 2.38916046733269 186.738072509 125.297330489451)" fill="#ffa245" fill-rule="evenodd" width="4.68000000000001" height="4.68000000000001"/><rect id="shape0321" transform="matrix(2.38916037346886 0 0 2.38916052634636 204.082400561077 125.208274972497)" fill="#ffa245" fill-rule="evenodd" width="4.68000000000001" height="4.68000000000001"/><rect id="shape0421" transform="matrix(2.38916035338585 0 0 2.38916046733269 220.719622492324 125.137836497501)" fill="#ffa245" fill-rule="evenodd" width="4.68000000000001" height="4.68000000000001"/><rect id="shape0161" transform="matrix(2.38916042314416 0 0 2.38916059007777 132.819193194844 142.334745863461)" fill="#ffa245" fill-rule="evenodd" width="4.68000000000001" height="4.68000000000001"/><rect id="shape0171" transform="matrix(2.38916040306114 0 0 2.3891605310641 148.924720620499 142.38104270672)" fill="#45d3ff" fill-rule="evenodd" width="4.68000000000001" height="4.68000000000001"/><rect id="shape01511" transform="matrix(2.38916037346886 0 0 2.38916052634636 168.652137016539 142.378390468557)" fill="#ffa245" fill-rule="evenodd" width="4.68000000000001" height="4.68000000000001"/><rect id="shape0251" transform="matrix(2.38916035338585 0 0 2.38916046733269 186.738072509 142.478443423059)" fill="#ffa245" fill-rule="evenodd" width="4.68000000000001" height="4.68000000000001"/><rect id="shape0331" transform="matrix(2.38916037346886 0 0 2.38916052634636 202.257857676584 142.389387906105)" fill="#45d3ff" fill-rule="evenodd" width="4.68000000000001" height="4.68000000000001"/><rect id="shape0431" transform="matrix(2.38916035338585 0 0 2.38916046733269 220.719622492324 142.318949431109)" fill="#ffa245" fill-rule="evenodd" width="4.68000000000001" height="4.68000000000001"/><rect id="shape0181" transform="matrix(2.38916042314416 0 0 2.38916059007777 132.515102717591 159.97199453867)" fill="#ffa245" fill-rule="evenodd" width="4.68000000000001" height="4.68000000000001"/><rect id="shape0191" transform="matrix(2.38916040306114 0 0 2.3891605310641 150.44517302774 160.018291381927)" fill="#ffa245" fill-rule="evenodd" width="4.68000000000001" height="4.68000000000001"/><rect id="shape01611" transform="matrix(2.38916037346886 0 0 2.38916052634636 166.523503654793 160.015639143767)" fill="#45d3ff" fill-rule="evenodd" width="4.68000000000001" height="4.68000000000001"/><rect id="shape0261" transform="matrix(2.38916035338585 0 0 2.38916046733269 184.609439147254 160.115692098268)" fill="#45d3ff" fill-rule="evenodd" width="4.68000000000001" height="4.68000000000001"/><rect id="shape0341" transform="matrix(2.38916037346886 0 0 2.38916052634636 203.778310083822 160.026636581312)" fill="#ffa245" fill-rule="evenodd" width="4.68000000000001" height="4.68000000000001"/><rect id="shape0441" transform="matrix(2.38916035338585 0 0 2.38916046733269 220.415532015071 159.956198106318)" fill="#ffa245" fill-rule="evenodd" width="4.68000000000001" height="4.68000000000001"/><ellipse id="shape61" transform="matrix(2.38916046008042 0 0 2.38916059479814 201.9742226874 65.430827558684)" rx="3.37179646401425" ry="3.37179646401424" cx="3.37179646401425" cy="3.37179646401424" fill="#45d3ff" fill-rule="evenodd"/><path id="shape71" transform="matrix(2.38916046008042 0 0 2.38916059479814 198.248209572042 52.7393676837424)" fill="none" stroke="#45d3ff" stroke-width="2.52" stroke-linecap="square" stroke-linejoin="bevel" d="M0 2.61211C6.46046 -3.41398 15.0839 1.84374 13.41 9.67711"/><path id="shape0201" transform="matrix(2.38916044896582 0 0 2.38916055796413 190.450323728652 24.6600001886311)" fill="none" stroke="#45d3ff" stroke-width="2.52" stroke-linecap="square" stroke-linejoin="bevel" d="M0 3.51782C11.8729 -4.78335 28.0346 2.23676 27.6196 17.964"/><path id="shape0211" transform="matrix(2.38916044896582 0 0 2.38916055796413 195.775428346558 38.614495014655)" fill="none" stroke="#45d3ff" stroke-width="2.52" stroke-linecap="square" stroke-linejoin="bevel" d="M0 3.16917C9.8435 -4.12468 20.7417 1.8968 19.98 13.8342"/><path id="shape81" transform="matrix(2.38916046008042 0 0 2.38916059479814 18.6131144447984 119.401935790791)" fill="none" stroke="#0c8bb3" stroke-width="1.8" stroke-linecap="square" stroke-linejoin="bevel" d="M32.0698 0C30.4438 7.05087 27.2038 10.8309 22.3498 11.34C14.7043 12.1419 9.49963 6.11029 0 14.6002"/><path id="shape0221" transform="matrix(-2.33297163117824 -0.515102507331193 -0.515102498802394 2.33297185564889 25.9182564724405 151.194883876027)" fill="#45d3ff" fill-rule="evenodd" d="M4.47373 11.5116L5.52377 10.5888L3.67822 7.66142L7.30568 5.11584L9.43761 7.88416L10.424 7.08866C8.25777 3.24475 6.56071 0.98554 5.33285 0.311046C4.51058 -0.140649 2.83741 -0.177967 1.5463 0.724703C0.455862 1.48707 -0.113735 2.65355 0.0189599 4.51127C0.0698716 5.22403 1.5548 7.55749 4.47373 11.5116Z"/><rect id="shape012" transform="matrix(2.38916038548123 0 0 2.38916050463101 38.7238007972971 37.3933154120177)" fill="#805122" fill-rule="evenodd" width="102.6" height="69.48" rx="12.7976586737563" ry="12.7976586737563"/><rect id="shape22" transform="matrix(2.25486058591062 0 0 2.29892230093881 124.281296784584 83.4982784295581)" fill="#402811" fill-rule="evenodd" width="49.3510353910047" height="41.76" rx="3.14689031925953" ry="3.14689031925953"/><rect id="shape32" transform="matrix(2.25486058591062 1.28857232895796 0 2.29892230093881 90.0074401469552 64.3714386275063)" fill="#0c8bb3" fill-rule="evenodd" width="14.76" height="41.76" rx="2.04822782948993" ry="2.04822782948993"/><rect id="shape42" transform="matrix(2.25486058591062 0 4.01355816408887 2.29892230093881 88.9160342033161 64.3557015175133)" fill="#ffa245" fill-rule="evenodd" width="49.68" height="8.49275128933164" rx="1.53065405243592" ry="1.53065405243592"/><rect id="shape52" transform="matrix(2.38916046008042 0 0 2.38916059479814 132.85914332647 91.3950038734434)" fill="#ffa245" fill-rule="evenodd" width="4.68000000000001" height="4.68000000000001"/><rect id="shape072" transform="matrix(2.38916043999741 0 0 2.38916053578447 150.789213913815 91.4413007167939)" fill="#ffa245" fill-rule="evenodd" width="4.68000000000001" height="4.68000000000001"/><rect id="shape082" transform="matrix(2.38916041040513 0 0 2.38916053106673 168.692087702139 91.4386484786252)" fill="#ffa245" fill-rule="evenodd" width="4.68000000000001" height="4.68000000000001"/><rect id="shape092" transform="matrix(2.38916039032211 0 0 2.38916047205305 186.778023474208 91.5387014333258)" fill="#ffa245" fill-rule="evenodd" width="4.68000000000001" height="4.68000000000001"/><rect id="shape0102" transform="matrix(2.38916041040513 0 0 2.38916053106673 204.122351794425 91.4496459161944)" fill="#ffa245" fill-rule="evenodd" width="4.68000000000001" height="4.68000000000001"/><rect id="shape0112" transform="matrix(2.38916039032211 0 0 2.38916047205305 220.759573982885 91.3792074410607)" fill="#ffa245" fill-rule="evenodd" width="4.68000000000001" height="4.68000000000001"/><rect id="shape0122" transform="matrix(2.38916042314416 0 0 2.38916059007777 132.819193194844 107.972519996245)" fill="#ffa245" fill-rule="evenodd" width="4.68000000000001" height="4.68000000000001"/><rect id="shape0132" transform="matrix(2.38916040306114 0 0 2.3891605310641 149.13974507746 108.018816839505)" fill="#45d3ff" fill-rule="evenodd" width="4.68000000000001" height="4.68000000000001"/><rect id="shape01312" transform="matrix(2.38916037346886 0 0 2.38916052634636 168.652137016539 108.016164601341)" fill="#ffa245" fill-rule="evenodd" width="4.68000000000001" height="4.68000000000001"/><rect id="shape0232" transform="matrix(2.38916035338585 0 0 2.38916046733269 186.738072509 108.116217555843)" fill="#ffa245" fill-rule="evenodd" width="4.68000000000001" height="4.68000000000001"/><rect id="shape0312" transform="matrix(2.38916037346886 0 0 2.38916052634636 201.953770175009 108.027162038889)" fill="#45d3ff" fill-rule="evenodd" width="4.68000000000001" height="4.68000000000001"/><rect id="shape0412" transform="matrix(2.38916035338585 0 0 2.38916046733269 220.719622492324 107.956723563893)" fill="#ffa245" fill-rule="evenodd" width="4.68000000000001" height="4.68000000000001"/><rect id="shape0142" transform="matrix(2.38916042314416 0 0 2.38916059007777 132.819193194844 125.153632929853)" fill="#ffa245" fill-rule="evenodd" width="4.68000000000001" height="4.68000000000001"/><rect id="shape0152" transform="matrix(2.38916040306114 0 0 2.3891605310641 150.749263504992 125.199929773113)" fill="#ffa245" fill-rule="evenodd" width="4.68000000000001" height="4.68000000000001"/><rect id="shape01412" transform="matrix(2.38916037346886 0 0 2.38916052634636 168.652137016539 125.197277534949)" fill="#ffa245" fill-rule="evenodd" width="4.68000000000001" height="4.68000000000001"/><rect id="shape0242" transform="matrix(2.38916035338585 0 0 2.38916046733269 186.738072509 125.297330489451)" fill="#ffa245" fill-rule="evenodd" width="4.68000000000001" height="4.68000000000001"/><rect id="shape0322" transform="matrix(2.38916037346886 0 0 2.38916052634636 204.082400561077 125.208274972497)" fill="#ffa245" fill-rule="evenodd" width="4.68000000000001" height="4.68000000000001"/><rect id="shape0422" transform="matrix(2.38916035338585 0 0 2.38916046733269 220.719622492324 125.137836497501)" fill="#ffa245" fill-rule="evenodd" width="4.68000000000001" height="4.68000000000001"/><rect id="shape0162" transform="matrix(2.38916042314416 0 0 2.38916059007777 132.819193194844 142.334745863461)" fill="#ffa245" fill-rule="evenodd" width="4.68000000000001" height="4.68000000000001"/><rect id="shape0172" transform="matrix(2.38916040306114 0 0 2.3891605310641 148.924720620499 142.38104270672)" fill="#45d3ff" fill-rule="evenodd" width="4.68000000000001" height="4.68000000000001"/><rect id="shape01512" transform="matrix(2.38916037346886 0 0 2.38916052634636 168.652137016539 142.378390468557)" fill="#ffa245" fill-rule="evenodd" width="4.68000000000001" height="4.68000000000001"/><rect id="shape0252" transform="matrix(2.38916035338585 0 0 2.38916046733269 186.738072509 142.478443423059)" fill="#ffa245" fill-rule="evenodd" width="4.68000000000001" height="4.68000000000001"/><rect id="shape0332" transform="matrix(2.38916037346886 0 0 2.38916052634636 202.257857676584 142.389387906105)" fill="#45d3ff" fill-rule="evenodd" width="4.68000000000001" height="4.68000000000001"/><rect id="shape0432" transform="matrix(2.38916035338585 0 0 2.38916046733269 220.719622492324 142.318949431109)" fill="#ffa245" fill-rule="evenodd" width="4.68000000000001" height="4.68000000000001"/><rect id="shape0182" transform="matrix(2.38916042314416 0 0 2.38916059007777 132.515102717591 159.97199453867)" fill="#ffa245" fill-rule="evenodd" width="4.68000000000001" height="4.68000000000001"/><rect id="shape0192" transform="matrix(2.38916040306114 0 0 2.3891605310641 150.44517302774 160.018291381927)" fill="#ffa245" fill-rule="evenodd" width="4.68000000000001" height="4.68000000000001"/><rect id="shape01612" transform="matrix(2.38916037346886 0 0 2.38916052634636 166.523503654793 160.015639143767)" fill="#45d3ff" fill-rule="evenodd" width="4.68000000000001" height="4.68000000000001"/><rect id="shape0262" transform="matrix(2.38916035338585 0 0 2.38916046733269 184.609439147254 160.115692098268)" fill="#45d3ff" fill-rule="evenodd" width="4.68000000000001" height="4.68000000000001"/><rect id="shape0342" transform="matrix(2.38916037346886 0 0 2.38916052634636 203.778310083822 160.026636581312)" fill="#ffa245" fill-rule="evenodd" width="4.68000000000001" height="4.68000000000001"/><rect id="shape0442" transform="matrix(2.38916035338585 0 0 2.38916046733269 220.415532015071 159.956198106318)" fill="#ffa245" fill-rule="evenodd" width="4.68000000000001" height="4.68000000000001"/><ellipse id="shape62" transform="matrix(2.38916046008042 0 0 2.38916059479814 201.9742226874 65.430827558684)" rx="3.37179646401425" ry="3.37179646401424" cx="3.37179646401425" cy="3.37179646401424" fill="#45d3ff" fill-rule="evenodd"/><path id="shape72" transform="matrix(2.38916046008042 0 0 2.38916059479814 198.248209572042 52.7393676837424)" fill="none" stroke="#45d3ff" stroke-width="2.52" stroke-linecap="square" stroke-linejoin="bevel" d="M0 2.61211C6.46046 -3.41398 15.0839 1.84374 13.41 9.67711"/><path id="shape0202" transform="matrix(2.38916044896582 0 0 2.38916055796413 190.450323728652 24.6600001886311)" fill="none" stroke="#45d3ff" stroke-width="2.52" stroke-linecap="square" stroke-linejoin="bevel" d="M0 3.51782C11.8729 -4.78335 28.0346 2.23676 27.6196 17.964"/><path id="shape0212" transform="matrix(2.38916044896582 0 0 2.38916055796413 195.775428346558 38.614495014655)" fill="none" stroke="#45d3ff" stroke-width="2.52" stroke-linecap="square" stroke-linejoin="bevel" d="M0 3.16917C9.8435 -4.12468 20.7417 1.8968 19.98 13.8342"/><path id="shape82" transform="matrix(2.38916046008042 0 0 2.38916059479814 18.6131144447984 119.401935790791)" fill="none" stroke="#0c8bb3" stroke-width="1.8" stroke-linecap="square" stroke-linejoin="bevel" d="M32.0698 0C30.4438 7.05087 27.2038 10.8309 22.3498 11.34C14.7043 12.1419 9.49963 6.11029 0 14.6002"/><path id="shape0222" transform="matrix(-2.33297163117824 -0.515102507331193 -0.515102498802394 2.33297185564889 25.9182564724405 151.194883876027)" fill="#45d3ff" fill-rule="evenodd" d="M4.47373 11.5116L5.52377 10.5888L3.67822 7.66142L7.30568 5.11584L9.43761 7.88416L10.424 7.08866C8.25777 3.24475 6.56071 0.98554 5.33285 0.311046C4.51058 -0.140649 2.83741 -0.177967 1.5463 0.724703C0.455862 1.48707 -0.113735 2.65355 0.0189599 4.51127C0.0698716 5.22403 1.5548 7.55749 4.47373 11.5116Z"/>
</svg>
