<?xml version="1.0" standalone="no"?>
<!DOCTYPE svg PUBLIC "-//W3C//DTD SVG 20010904//EN" "http://www.w3.org/TR/2001/REC-SVG-20010904/DTD/svg10.dtd">
<!-- Created using Krita: http://krita.org -->
<svg xmlns="http://www.w3.org/2000/svg" 
    xmlns:xlink="http://www.w3.org/1999/xlink"
    xmlns:krita="http://krita.org/namespaces/svg/krita"
    xmlns:sodipodi="http://sodipodi.sourceforge.net/DTD/sodipodi-0.dtd"
    width="324pt"
    height="234pt"
    viewBox="0 0 324 234">
<defs>
  <linearGradient id="gradient0" gradientUnits="objectBoundingBox" x1="0.268656736258141" y1="-0.115591406385858" x2="0.634328331676933" y2="0.970430106450012" spreadMethod="pad">
   <stop stop-color="#45d3ff" offset="0" stop-opacity="1"/>
   <stop stop-color="#0c8bb3" offset="0.463414639234543" stop-opacity="1"/>
   <stop stop-color="#ffa245" offset="0.990243911743164" stop-opacity="1"/>
  </linearGradient>
 </defs>
<rect id="shape04" transform="matrix(2.38357589314861 0 0 2.36913441743771 39.1281560494596 38.0708011171692)" fill="#805122" fill-rule="evenodd" width="102.6" height="69.48" rx="15.147437825303" ry="15.147437825303"/><path id="shape21" transform="matrix(2.38357596757344 0 0 2.36913450684905 17.5549575171042 58.3001242357337)" fill="#402811" fill-rule="evenodd" d="M0 43.738C10.5904 36.6099 19.7182 32.7097 27.3833 32.0372C44.3842 30.5457 70.2053 40.1222 91.641 24.9006C100.186 18.833 102.85 10.4531 100.551 5.17236C99.236 2.15327 89.7461 -4.02981 76.113 3.83593C86.6482 -0.797378 95.1579 3.20684 95.9633 7.82721C97.0365 13.983 87.7997 20.8052 79.7633 24.4772C62.225 32.4909 42.0929 25.7571 28.2833 28.2572C19.2525 29.8922 9.82472 35.0524 0 43.738Z"/><path id="shape011" transform="matrix(3.00153062861086 0 0 2.36913445204373 0.98784051843937 70.2526221198983)" fill="#402811" fill-rule="evenodd" d="M0 48.13C10.5904 41.0019 21.6013 36.5746 31.1246 36.3521C48.1862 35.9535 69.6528 45.8135 91.0887 30.5921C99.6336 24.5244 107.795 8.68056 98.2053 0C105.001 15.7314 86.6177 26.2001 78.5813 29.8721C61.0429 37.8858 45.3464 30.9863 31.3391 31.8521C19.4494 32.5871 9.82472 39.4444 0 48.13Z"/><rect id="shape4" transform="matrix(2.38357596757344 0 0 2.36913450684905 130.878092289577 20.3399994143688)" fill="url(#gradient0)" fill-rule="evenodd" width="24.12" height="66.96" rx="2.52000173183205" ry="2.52000173183205"/><rect id="shape5" transform="matrix(2.53806667301238 0 0 2.52268919368181 123.369827954029 175.77892069922)" fill="#402811" fill-rule="evenodd" width="28.8" height="19.44" rx="4.58999061692969" ry="4.58999061692969"/><circle id="shape0131" transform="matrix(-1.05349312106881 0 0 1.04711016917305 144.577244405109 184.536883427515)" r="5.84521116258429" cx="5.84521116258429" cy="5.84521116258429" fill="#ffa245" fill-rule="evenodd" stroke="#000000" stroke-opacity="0" stroke-width="0" stroke-linecap="square" stroke-linejoin="bevel"/><ellipse id="shape6" transform="matrix(2.16107488630813 0 0 1.88246758574183 63.5928110408068 97.0999574362779)" rx="3.06" ry="2.34" cx="3.06" cy="2.34" fill="#ffa245" fill-rule="evenodd" stroke="#000000" stroke-opacity="0" stroke-width="0" stroke-linecap="square" stroke-linejoin="bevel"/><path id="shape7" transform="matrix(2.38357596757344 0 0 2.36913450684905 74.4588726981499 71.4066977181372)" fill="none" stroke="#ffa245" stroke-width="0.7415982" stroke-linecap="square" stroke-linejoin="miter" stroke-miterlimit="2" d="M0.0320043 13.5695C0.0106681 7.4507 0 2.92753 0 0C0.994896 4.81853 5.05936 7.1017 2.8553 10.8725"/><ellipse id="shape0141" transform="matrix(2.57022561955191 0 0 2.23887046773151 250.257818563643 112.862140316915)" rx="3.06" ry="2.34" cx="3.06" cy="2.34" fill="#ffa245" fill-rule="evenodd" stroke="#000000" stroke-opacity="0" stroke-width="0" stroke-linecap="square" stroke-linejoin="bevel"/><path id="shape111" transform="matrix(2.83485225654136 0 0 2.81767682038347 263.181123643111 82.3044399674383)" fill="none" stroke="#ffa245" stroke-width="0.7415982" stroke-linecap="square" stroke-linejoin="miter" stroke-miterlimit="2" d="M0.0320043 13.5695C0.0106681 7.4507 0 2.92753 0 0C0.994896 4.81853 5.05936 7.1017 2.8553 10.8725"/><ellipse id="shape0151" transform="matrix(1.89311899054507 0 0 1.64905686395421 213.145538753217 148.245451895848)" rx="3.06" ry="2.34" cx="3.06" cy="2.34" fill="#ffa245" fill-rule="evenodd" stroke="#000000" stroke-opacity="0" stroke-width="0" stroke-linecap="square" stroke-linejoin="bevel"/><path id="shape1111" transform="matrix(2.08803172819654 0 0 2.07538103165298 223.319756194663 125.503768595791)" fill="none" stroke="#ffa245" stroke-width="0.7415982" stroke-linecap="square" stroke-linejoin="miter" stroke-miterlimit="2" d="M0.135004 13.3554C0.113668 7.23662 0 2.92753 0 0"/>
</svg>
