<?xml version="1.0" standalone="no"?>
<!DOCTYPE svg PUBLIC "-//W3C//DTD SVG 20010904//EN" "http://www.w3.org/TR/2001/REC-SVG-20010904/DTD/svg10.dtd">
<!-- Created using Krita: http://krita.org -->
<svg xmlns="http://www.w3.org/2000/svg" 
    xmlns:xlink="http://www.w3.org/1999/xlink"
    xmlns:krita="http://krita.org/namespaces/svg/krita"
    xmlns:sodipodi="http://sodipodi.sourceforge.net/DTD/sodipodi-0.dtd"
    width="324pt"
    height="234pt"
    viewBox="0 0 324 234">
<defs/>
<rect id="shape0" transform="matrix(2.38274322056935 0 0 2.38274316622191 39.2547967865671 37.8391969462474)" fill="#805122" fill-rule="evenodd" width="102.6" height="69.48" rx="13.8599989063678" ry="13.8599989063678"/><rect id="shape13" transform="matrix(2.46793217072791 0 0 2.46793211443742 92.7333719037954 105.758830125935)" fill="#ffa245" fill-rule="evenodd" width="47.16" height="30.6" rx="4.77194898743355" ry="4.77194898743355"/><rect id="shape14" transform="matrix(2.46793217072794 -0.0199819637861513 -2.95321315790158 2.49184322474828 120.375447061753 83.3236331034897)" fill="#0c8bb3" fill-rule="evenodd" width="47.16" height="9.36000000000001" rx="2.44585802817815" ry="2.44585802817815"/><circle id="shape16" transform="matrix(2.38274322056935 0 0 2.38274316622191 100.293576620822 114.872604984181)" r="1.98" cx="1.98" cy="1.98" fill="#45d3ff" fill-rule="evenodd"/><circle id="shape020" transform="matrix(2.38274326814473 0 0 2.38274308725004 99.6805593430806 127.858542326671)" r="1.98" cx="1.98" cy="1.98" fill="#45d3ff" fill-rule="evenodd"/><circle id="shape02111" transform="matrix(2.38274326814473 0 0 2.38274308725004 99.8885204444454 141.487833062355)" r="1.98" cx="1.98" cy="1.98" fill="#0c8bb3" fill-rule="evenodd"/><circle id="shape0221" transform="matrix(2.17213517935352 0 0 2.1721350454654 158.719077534417 168.120505451321)" r="1.98" cx="1.98" cy="1.98" fill="#402811" fill-rule="evenodd"/><circle id="shape0231" transform="matrix(2.17213515316341 0 0 2.17213500580912 169.038244958726 168.038996342937)" r="1.98" cx="1.98" cy="1.98" fill="#402811" fill-rule="evenodd"/><circle id="shape0241" transform="matrix(2.17213521177285 0 0 2.17213500580912 179.344569266826 168.079750886471)" r="1.98" cx="1.98" cy="1.98" fill="#402811" fill-rule="evenodd"/><circle id="shape0161" transform="matrix(2.17213518558274 0 0 2.17213496615285 189.663736845149 167.998241779576)" r="1.98" cx="1.98" cy="1.98" fill="#402811" fill-rule="evenodd"/><path id="shape17" transform="matrix(2.18063553668177 0 0 2.59857135156811 125.71793628263 4.68000017298347)" fill="#45d3ff" fill-rule="evenodd" d="M24.9187 0L4.31135 18.9894L17.5236 16.3051L0 35.7953L16.3503 32.2037L5.00673 52.1344L29.0668 24.0078L13.9045 27.6257L29.9013 8.83577L16.7586 12.0452Z"/><path id="shape71" transform="matrix(2.38274322056935 0 0 2.38274316622191 220.688444747379 128.829705851234)" fill="none" stroke="#402811" stroke-width="1.8" stroke-linecap="square" stroke-linejoin="bevel" d="M0 0.742362C3.431 5.72278 7.90194 7.84049 13.4128 7.09548C17.998 6.47561 21.7239 -1.16111 28.6953 0.151375C31.6049 0.699153 33.8268 2.17662 35.3611 4.58378"/><path id="shape06" transform="matrix(2.38274322056935 0 0 2.38274316622191 295.206406921374 133.020308051302)" fill="#45d3ff" fill-rule="evenodd" d="M4.47373 11.5116L5.52377 10.5888L3.67822 7.66142L7.30568 5.11584L9.43761 7.88416L10.424 7.08866C8.25777 3.24475 6.56071 0.98554 5.33285 0.311046C4.51058 -0.140649 2.83741 -0.177967 1.5463 0.724703C0.455862 1.48707 -0.113735 2.65355 0.0189599 4.51127C0.0698716 5.22403 1.5548 7.55749 4.47373 11.5116Z"/><rect id="shape15" transform="matrix(2.46793217072791 -2.01547803169639 6.10671481395807e-16 2.49333782060272 209.121053075325 104.870374564739)" fill="#402811" fill-rule="evenodd" width="10.8" height="30.6" rx="2.88551949578749" ry="2.88551949578749"/>
</svg>
