<?xml version="1.0" standalone="no"?>
<!DOCTYPE svg PUBLIC "-//W3C//DTD SVG 20010904//EN" "http://www.w3.org/TR/2001/REC-SVG-20010904/DTD/svg10.dtd">
<!-- Created using Krita: http://krita.org -->
<svg xmlns="http://www.w3.org/2000/svg" 
    xmlns:xlink="http://www.w3.org/1999/xlink"
    xmlns:krita="http://krita.org/namespaces/svg/krita"
    xmlns:sodipodi="http://sodipodi.sourceforge.net/DTD/sodipodi-0.dtd"
    width="324pt"
    height="234pt"
    viewBox="0 0 324 234">
<defs/>
<rect id="shape03" transform="matrix(2.37944047134962 0 0 2.37944013738098 39.1335704054429 37.3565131663461)" fill="#805122" fill-rule="evenodd" width="102.6" height="69.48" rx="14.6791176378316" ry="14.6791176378316"/><path id="shape11" transform="matrix(2.37944054564534 0 0 2.37944022718125 19.3365655636602 85.6391736662645)" fill="#402811" fill-rule="evenodd" d="M0 14.5098L22.3375 0.190919C57.3223 0.101823 82.3115 0.0381838 97.305 0C101.785 2.74923 109.252 7.33128 119.706 13.7462L96.9868 27.365L21.9557 26.9832C21.9557 26.9832 14.6371 22.8254 0 14.5098Z"/><circle id="shape3" transform="matrix(2.37944054564534 0 0 2.37944022718125 58.569046739708 73.4194551390552)" r="5.84521116258429" cx="5.84521116258429" cy="5.84521116258429" fill="#ffa245" fill-rule="evenodd"/><circle id="shape012" transform="matrix(2.37944054808048 0 0 2.37944021753049 88.230831560978 73.1171267730672)" r="5.84521116258429" cx="5.84521116258429" cy="5.84521116258429" fill="#45d3ff" fill-rule="evenodd"/><circle id="shape021" transform="matrix(2.37944050599853 0 0 2.37944021753049 118.417297618619 72.7914671459048)" r="5.84521116258429" cx="5.84521116258429" cy="5.84521116258429" fill="#ffa245" fill-rule="evenodd"/><circle id="shape031" transform="matrix(2.37944050843367 0 0 2.37944020787973 148.38193231117 73.1315876394822)" r="5.84521116258429" cx="5.84521116258429" cy="5.84521116258429" fill="#ffa245" fill-rule="evenodd"/><circle id="shape041" transform="matrix(2.37944062392174 0 0 2.3794402165612 177.598480812534 72.9400579960057)" r="5.84521116258429" cx="5.84521116258429" cy="5.84521116258429" fill="#ffa245" fill-rule="evenodd"/><circle id="shape0111" transform="matrix(2.37944058183979 0 0 2.3794402165612 207.482097452109 72.9356227973633)" r="5.84521116258429" cx="5.84521116258429" cy="5.84521116258429" fill="#0c8bb3" fill-rule="evenodd"/><circle id="shape0211" transform="matrix(2.37944058427494 0 0 2.37944020691043 237.339658275906 73.1686684816885)" r="5.84521116258429" cx="5.84521116258429" cy="5.84521116258429" fill="#ffa245" fill-rule="evenodd"/><circle id="shape05" transform="matrix(2.37944058747906 0 0 2.37944021753049 57.8366085169887 104.555464206711)" r="5.84521116258429" cx="5.84521116258429" cy="5.84521116258429" fill="#ffa245" fill-rule="evenodd"/><circle id="shape06" transform="matrix(2.37944058991421 0 0 2.37944020787973 87.8012442356396 104.253135841949)" r="5.84521116258429" cx="5.84521116258429" cy="5.84521116258429" fill="#ffa245" fill-rule="evenodd"/><circle id="shape01111" transform="matrix(2.37944054783226 0 0 2.37944020787973 117.684860448108 103.927476216107)" r="5.84521116258429" cx="5.84521116258429" cy="5.84521116258429" fill="#ffa245" fill-rule="evenodd"/><circle id="shape02111" transform="matrix(2.3794405502674 0 0 2.37944019822897 147.346645296917 104.267596708306)" r="5.84521116258429" cx="5.84521116258429" cy="5.84521116258429" fill="#45d3ff" fill-rule="evenodd"/><circle id="shape0311" transform="matrix(2.37944066575547 0 0 2.37944020691043 176.866044682509 104.076067065606)" r="5.84521116258429" cx="5.84521116258429" cy="5.84521116258429" fill="#ffa245" fill-rule="evenodd"/><circle id="shape0121" transform="matrix(2.37944062367352 0 0 2.37944020691043 206.749661847479 104.071631866981)" r="5.84521116258429" cx="5.84521116258429" cy="5.84521116258429" fill="#ffa245" fill-rule="evenodd"/><circle id="shape022" transform="matrix(2.37944062610866 0 0 2.37944019725967 236.607223196209 104.304677550361)" r="5.84521116258429" cx="5.84521116258429" cy="5.84521116258429" fill="#ffa245" fill-rule="evenodd"/><circle id="shape07" transform="matrix(2.37944058747906 0 0 2.37944021753049 58.0507581685991 135.821309157526)" r="5.84521116258429" cx="5.84521116258429" cy="5.84521116258429" fill="#ffa245" fill-rule="evenodd"/><circle id="shape08" transform="matrix(2.37944058991421 0 0 2.37944020787973 88.0153938872523 135.518980792764)" r="5.84521116258429" cx="5.84521116258429" cy="5.84521116258429" fill="#ffa245" fill-rule="evenodd"/><circle id="shape013" transform="matrix(2.37944054783226 0 0 2.37944020787973 117.899010099723 135.193321166923)" r="5.84521116258429" cx="5.84521116258429" cy="5.84521116258429" fill="#0c8bb3" fill-rule="evenodd"/><circle id="shape023" transform="matrix(2.3794405502674 0 0 2.37944019822897 147.863645319091 135.533441659121)" r="5.84521116258429" cx="5.84521116258429" cy="5.84521116258429" fill="#ffa245" fill-rule="evenodd"/><circle id="shape03111" transform="matrix(2.37944066575547 0 0 2.37944020691043 177.080194334121 135.341912016421)" r="5.84521116258429" cx="5.84521116258429" cy="5.84521116258429" fill="#ffa245" fill-rule="evenodd"/><circle id="shape014" transform="matrix(2.37944062367352 0 0 2.37944020691043 206.963811499091 135.337476817797)" r="5.84521116258429" cx="5.84521116258429" cy="5.84521116258429" fill="#ffa245" fill-rule="evenodd"/><circle id="shape024" transform="matrix(2.37944062610866 0 0 2.37944019725967 236.821372847821 135.570522501176)" r="5.84521116258429" cx="5.84521116258429" cy="5.84521116258429" fill="#ffa245" fill-rule="evenodd"/><circle id="shape09" transform="matrix(2.37944063627111 0 0 2.3794401328323 6.04912599946567 106.363647457837)" r="5.84521116258429" cx="5.84521116258429" cy="5.84521116258429" fill="#ffa245" fill-rule="evenodd"/><circle id="shape010" transform="matrix(2.37944063627111 0 0 2.3794401328323 30.8555741729208 121.193763479486)" r="5.84521116258429" cx="5.84521116258429" cy="5.84521116258429" fill="#ffa245" fill-rule="evenodd"/><circle id="shape011111" transform="matrix(2.37944063627111 0 0 2.3794401328323 30.5330290507544 89.45394676942)" r="5.84521116258429" cx="5.84521116258429" cy="5.84521116258429" fill="#0c8bb3" fill-rule="evenodd"/><circle id="shape01211" transform="matrix(-2.379440553782 0 0 2.37944007932186 317.950874000534 105.417182947382)" r="5.84521116258429" cx="5.84521116258429" cy="5.84521116258429" fill="#0c8bb3" fill-rule="evenodd"/><circle id="shape015" transform="matrix(-2.379440553782 0 0 2.37944007932186 292.376531882137 119.970425965391)" r="5.84521116258429" cx="5.84521116258429" cy="5.84521116258429" fill="#ffa245" fill-rule="evenodd"/><circle id="shape025" transform="matrix(-2.379440553782 0 0 2.37944007932186 293.101398552853 88.9617625155802)" r="5.84521116258429" cx="5.84521116258429" cy="5.84521116258429" fill="#45d3ff" fill-rule="evenodd"/>
</svg>
