<?xml version="1.0" standalone="no"?>
<!DOCTYPE svg PUBLIC "-//W3C//DTD SVG 20010904//EN" "http://www.w3.org/TR/2001/REC-SVG-20010904/DTD/svg10.dtd">
<!-- Created using Krita: http://krita.org -->
<svg xmlns="http://www.w3.org/2000/svg" 
    xmlns:xlink="http://www.w3.org/1999/xlink"
    xmlns:krita="http://krita.org/namespaces/svg/krita"
    xmlns:sodipodi="http://sodipodi.sourceforge.net/DTD/sodipodi-0.dtd"
    width="468pt"
    height="360pt"
    viewBox="0 0 468 360">
<defs>
  <linearGradient id="gradient0" gradientUnits="objectBoundingBox" x1="0.268656736258141" y1="-0.115591406385858" x2="0.634328331676933" y2="0.970430106450012" spreadMethod="pad">
   <stop stop-color="#ff4f4f" offset="0" stop-opacity="1"/>
   <stop stop-color="#866fff" offset="0.463414639234543" stop-opacity="1"/>
   <stop stop-color="#b0e5dc" offset="0.990243911743164" stop-opacity="1"/>
  </linearGradient>
 </defs>
<rect id="shape0" transform="translate(182.7, 127.721167883212)" fill="#006277" fill-rule="evenodd" width="102.6" height="69.48" rx="13.8599989063678" ry="13.8599989063678"/><rect id="shape01" transform="matrix(0.999999968775979 0 0 0.999999962259914 100.99766224648 219.294712820714)" fill="#006277" fill-rule="evenodd" width="102.6" height="69.48" rx="12.7976586737563" ry="12.7976586737563"/><rect id="shape011" transform="matrix(0.999999968775979 0 0 0.999999962259914 30.3953263726692 126.002566659359)" fill="#006277" fill-rule="evenodd" width="102.6" height="69.48" rx="12.3953228367202" ry="12.3953228367202"/><rect id="shape02" transform="matrix(0.999999968775979 0 0 0.999999962259914 339.81985138054 126.967354624496)" fill="#006277" fill-rule="evenodd" width="102.6" height="69.48" rx="12.219846825232" ry="12.219846825232"/><rect id="shape03" transform="matrix(0.999999968775979 0 0 0.999999962259914 97.479121130052 32.8474711468251)" fill="#006277" fill-rule="evenodd" width="102.6" height="69.48" rx="14.6791176378316" ry="14.6791176378316"/><rect id="shape04" transform="matrix(0.999999968775979 0 0 0.999999962259914 264.627441974454 33.7640840195192)" fill="#006277" fill-rule="evenodd" width="102.6" height="69.48" rx="15.147437825303" ry="15.147437825303"/><rect id="shape05" transform="matrix(0.999999968775979 0 0 0.999999962259914 260.126713664851 221.005837174297)" fill="#006277" fill-rule="evenodd" width="102.6" height="69.48" rx="14.9667095274621" ry="14.9667095274621"/><path id="shape01" transform="matrix(1.18676833321412 0 0 1.18676828207353 272.115645298525 267.600526393868)" sodipodi:type="arc" sodipodi:rx="5.94" sodipodi:ry="7.37999999999999" sodipodi:cx="5.94001803248845" sodipodi:cy="7.38004883404796" sodipodi:start="6.28318530717959" sodipodi:end="6.24846930817966" sodipodi:open="true" d="M11.8764 7.1239C11.7633 3.07547 9.04473 -0.10291 5.78538 0.00255024C2.52602 0.108011 -0.0556793 3.45788 0.000912871 7.50814C0.057505 11.5584 2.73124 14.7949 5.99157 14.7598C9.2519 14.7246 11.88 11.4309 11.88 7.38005" fill="#1d2460" fill-rule="evenodd"/><path id="shape0" transform="matrix(1.18676834864434 0 0 1.18676834864434 272.084119398244 267.41368968758)" fill="#1d2460" fill-rule="evenodd" d="M8.98159 15.0075L4.49236 14.9135C-2.28414 11.5272 -0.775958 2.66567 4.90909 0L9.48807 0.0536618C9.61711 0.031469 9.44828 5.01608 8.98159 15.0075Z"/><ellipse id="shape02" transform="matrix(1.18676833321412 0 0 1.18676828207353 276.003562163844 267.716055114438)" rx="5.94" ry="7.37999999999999" cx="5.94" cy="7.37999999999999" fill="#8670ff" fill-rule="evenodd"/><ellipse id="shape03" transform="matrix(1.18676833321412 0 0 1.18676828207353 279.591022145012 272.259544329031)" rx="3.02908835336371" ry="3.76341280266399" cx="3.02908835336371" cy="3.76341280266399" fill="#1d2460" fill-rule="evenodd"/><path id="shape04" transform="matrix(0.768233690978344 0 0 0.768233688654616 325.725873938584 265.870622547897)" sodipodi:type="arc" sodipodi:rx="5.94" sodipodi:ry="7.37999999999999" sodipodi:cx="5.94001803248845" sodipodi:cy="7.38004883404796" sodipodi:start="6.28318530717959" sodipodi:end="6.24846930817966" sodipodi:open="true" d="M11.8764 7.1239C11.7633 3.07547 9.04473 -0.10291 5.78538 0.00255024C2.52602 0.108011 -0.0556793 3.45788 0.000912871 7.50814C0.057505 11.5584 2.73124 14.7949 5.99157 14.7598C9.2519 14.7246 11.88 11.4309 11.88 7.38005" fill="#1d2460" fill-rule="evenodd"/><path id="shape05" transform="matrix(0.768233700966826 0 0 0.768233731748065 325.705467169079 265.749677074196)" fill="#1d2460" fill-rule="evenodd" d="M8.98159 15.0075L4.49236 14.9135C-2.28414 11.5272 -0.775959 2.66567 4.90909 0L9.48807 0.0536618C9.61711 0.031469 9.44828 5.01608 8.98159 15.0075Z"/><ellipse id="shape011" transform="matrix(0.768233690978344 0 0 0.768233688654616 328.242648813736 265.945408044348)" rx="5.94" ry="7.37999999999999" cx="5.94" cy="7.37999999999999" fill="#8670ff" fill-rule="evenodd"/><ellipse id="shape021" transform="matrix(0.768233690978344 0 0 0.768233688654616 330.564928188268 268.886556313487)" rx="3.02908835336371" ry="3.76341280266399" cx="3.02908835336371" cy="3.76341280266399" fill="#1d2460" fill-rule="evenodd"/><path id="shape1" transform="matrix(1.16349514568552 0.23387637612691 -1.58340016096514 0.892224798348508 313.919472817734 258.137134677315)" fill="#b0e5dc" fill-rule="evenodd" d="M0 13.3896L48.4455 13.4531L48.9239 26.1663L0 24.4432L0 13.3896M8.63175 0.913763L30.6137 0L31.9599 13.4146L8.43463 13.391"/><rect id="shape06" transform="matrix(0.999999969683613 0 0 0.999999979624179 182.699994461196 127.721165280788)" fill="#006277" fill-rule="evenodd" width="102.6" height="69.48" rx="13.8599989063678" ry="13.8599989063678"/><rect id="shape012" transform="matrix(0.999999938459593 0 0 0.999999941884093 30.3953254511927 126.002564091953)" fill="#006277" fill-rule="evenodd" width="102.6" height="69.48" rx="12.3953228367202" ry="12.3953228367202"/><rect id="shape022" transform="matrix(0.999999938459593 0 0 0.999999941884093 339.81984107843 126.967352037432)" fill="#006277" fill-rule="evenodd" width="102.6" height="69.48" rx="12.219846825232" ry="12.219846825232"/><rect id="shape031" transform="matrix(0.999999938459593 0 0 0.999999941884093 97.4791181748373 32.8474704775309)" fill="#006277" fill-rule="evenodd" width="102.6" height="69.48" rx="14.6791176378316" ry="14.6791176378316"/><rect id="shape041" transform="matrix(0.999999938459593 0 0 0.999999941884093 264.627433951906 33.7640833315483)" fill="#006277" fill-rule="evenodd" width="102.6" height="69.48" rx="15.147437825303" ry="15.147437825303"/><path id="shape9" transform="translate(58.4084495902331, 152.130885429762)" fill="#1d2460" fill-rule="evenodd" d="M0 5.87294L52.2 5.87294L41.22 0L9.99 0.09Z"/><path id="shape013" transform="translate(69.9781998784742, 151.323770317907)" fill="none" stroke="#b0e5dc" stroke-width="1.9800018" stroke-linecap="square" stroke-linejoin="miter" stroke-miterlimit="2" d="M0 9.14811C13.4242 -4.52603 26.5034 -1.53075 39.42 9.32811"/><path id="shape1" transform="translate(63.006118265799, 147.791989093465)" fill="none" stroke="#ec5454" stroke-width="1.9800018" stroke-linecap="square" stroke-linejoin="miter" stroke-miterlimit="2" d="M0 10.6056C12.3123 -10.7681 14.5594 5.44087 31.6289 13.533"/><path id="shape2" transform="translate(78.0973883634265, 147.460337637907)" fill="none" stroke="#8670ff" stroke-width="1.9800018" stroke-linecap="square" stroke-linejoin="miter" stroke-miterlimit="2" d="M0 10.5733C10.8654 -5.71099 20.2427 -1.155 29.1079 10.5733"/><path id="shape023" transform="translate(390.938140464587, 132.243114733769)" fill="#b0e5dc" fill-rule="evenodd" d="M0 23.4194L12.9188 37.2928L23.7376 25.774L28.7651 0L23.2285 1.90919Z"/><path id="shape11" transform="translate(89.1590961233279, 53.1390758479506)" fill="#1d2460" fill-rule="evenodd" d="M0 14.5098L22.3375 0.190919C57.3223 0.101823 82.3115 0.0381838 97.305 0C101.785 2.74923 109.252 7.33128 119.706 13.7462L96.9868 27.365L21.9557 26.9832C21.9557 26.9832 14.6371 22.8254 0 14.5098Z"/><path id="shape21" transform="translate(255.57667169239, 42.302785556386)" fill="#1d2460" fill-rule="evenodd" d="M0 43.738C10.5904 36.6099 19.7182 32.7097 27.3833 32.0372C44.3842 30.5457 70.2053 40.1222 91.641 24.9006C100.186 18.833 102.85 10.4531 100.551 5.17236C99.236 2.15327 89.7461 -4.02981 76.113 3.83593C86.6482 -0.797382 95.1579 3.20684 95.9633 7.82721C97.0365 13.983 87.7997 20.8052 79.7633 24.4772C62.225 32.4909 42.0929 25.7571 28.2833 28.2572C19.2525 29.8922 9.82472 35.0524 0 43.738Z"/><path id="shape0111" transform="matrix(1.25925528258557 0 0 0.999999976866945 248.626141386645 47.3478720694138)" fill="#1d2460" fill-rule="evenodd" d="M0 48.13C10.5904 41.0019 21.6013 36.5746 31.1246 36.3521C48.1862 35.9535 69.6528 45.8135 91.0887 30.5921C99.6336 24.5244 107.795 8.68056 98.2053 0C105.001 15.7314 86.6177 26.2001 78.5813 29.8721C61.0429 37.8858 45.3464 30.9863 31.3391 31.8521C19.4494 32.5871 9.82472 39.4444 0 48.13Z"/><circle id="shape3" transform="translate(105.647207687136, 48.0035324593759)" r="5.84521116258429" cx="5.84521116258429" cy="5.84521116258429" fill="#b0e5dc" fill-rule="evenodd"/><circle id="shape012" transform="matrix(1.00000000102341 0 0 0.999999995944104 118.240350746193 47.8764738501558)" r="5.84521116258429" cx="5.84521116258429" cy="5.84521116258429" fill="#ec5454" fill-rule="evenodd"/><circle id="shape021" transform="matrix(0.999999983337765 0 0 0.999999995944104 130.799443992615 47.7396098838152)" r="5.84521116258429" cx="5.84521116258429" cy="5.84521116258429" fill="#b0e5dc" fill-rule="evenodd"/><circle id="shape031" transform="matrix(0.999999984361175 0 0 0.999999991888208 143.392586841842 47.8825512738498)" r="5.84521116258429" cx="5.84521116258429" cy="5.84521116258429" fill="#b0e5dc" fill-rule="evenodd"/><circle id="shape041" transform="matrix(1.00000003289698 0 0 0.999999995536741 155.671333858586 47.802057701753)" r="5.84521116258429" cx="5.84521116258429" cy="5.84521116258429" fill="#b0e5dc" fill-rule="evenodd"/><circle id="shape0112" transform="matrix(1.00000001521133 0 0 0.999999995536741 168.230427505311 47.8001937345091)" r="5.84521116258429" cx="5.84521116258429" cy="5.84521116258429" fill="#8670ff" fill-rule="evenodd"/><circle id="shape0211" transform="matrix(1.00000001623474 0 0 0.999999991480845 180.778570756228 47.8981351249517)" r="5.84521116258429" cx="5.84521116258429" cy="5.84521116258429" fill="#b0e5dc" fill-rule="evenodd"/><circle id="shape051" transform="matrix(1.00000001758133 0 0 0.999999995944104 105.339388177184 61.0889668871784)" r="5.84521116258429" cx="5.84521116258429" cy="5.84521116258429" fill="#b0e5dc" fill-rule="evenodd"/><circle id="shape06" transform="matrix(1.00000001860474 0 0 0.999999991888208 117.932531457645 60.9619082784736)" r="5.84521116258429" cx="5.84521116258429" cy="5.84521116258429" fill="#b0e5dc" fill-rule="evenodd"/><circle id="shape0111" transform="matrix(1.00000000091909 0 0 0.999999991888208 130.491624924873 60.8250443126881)" r="5.84521116258429" cx="5.84521116258429" cy="5.84521116258429" fill="#b0e5dc" fill-rule="evenodd"/><circle id="shape0211" transform="matrix(1.0000000019425 0 0 0.999999987832312 143.084767995504 60.9679857021429)" r="5.84521116258429" cx="5.84521116258429" cy="5.84521116258429" fill="#ec5454" fill-rule="evenodd"/><circle id="shape0311" transform="matrix(1.00000005047831 0 0 0.999999991480845 155.363515228124 60.8874921303726)" r="5.84521116258429" cx="5.84521116258429" cy="5.84521116258429" fill="#b0e5dc" fill-rule="evenodd"/><circle id="shape0121" transform="matrix(1.00000003279266 0 0 0.999999991480845 167.922609095655 60.8856281631363)" r="5.84521116258429" cx="5.84521116258429" cy="5.84521116258429" fill="#b0e5dc" fill-rule="evenodd"/><circle id="shape022" transform="matrix(1.00000003381607 0 0 0.999999987424949 180.470752567185 60.9835695531816)" r="5.84521116258429" cx="5.84521116258429" cy="5.84521116258429" fill="#b0e5dc" fill-rule="evenodd"/><circle id="shape07" transform="matrix(1.00000001758133 0 0 0.999999995944104 105.429388178236 74.2289670408504)" r="5.84521116258429" cx="5.84521116258429" cy="5.84521116258429" fill="#b0e5dc" fill-rule="evenodd"/><circle id="shape08" transform="matrix(1.00000001860474 0 0 0.999999991888208 118.022531458698 74.1019084321457)" r="5.84521116258429" cx="5.84521116258429" cy="5.84521116258429" fill="#b0e5dc" fill-rule="evenodd"/><circle id="shape013" transform="matrix(1.00000000091909 0 0 0.999999991888208 130.581624925925 73.9650444663602)" r="5.84521116258429" cx="5.84521116258429" cy="5.84521116258429" fill="#8670ff" fill-rule="evenodd"/><circle id="shape023" transform="matrix(1.0000000019425 0 0 0.999999987832312 143.174767996556 74.107985855815)" r="5.84521116258429" cx="5.84521116258429" cy="5.84521116258429" fill="#b0e5dc" fill-rule="evenodd"/><circle id="shape0311" transform="matrix(1.00000005047831 0 0 0.999999991480845 155.453515229177 74.0274922840447)" r="5.84521116258429" cx="5.84521116258429" cy="5.84521116258429" fill="#b0e5dc" fill-rule="evenodd"/><circle id="shape014" transform="matrix(1.00000003279266 0 0 0.999999991480845 168.012609096708 74.0256283168084)" r="5.84521116258429" cx="5.84521116258429" cy="5.84521116258429" fill="#b0e5dc" fill-rule="evenodd"/><circle id="shape024" transform="matrix(1.00000003381607 0 0 0.999999987424949 180.560752568238 74.1235697068537)" r="5.84521116258429" cx="5.84521116258429" cy="5.84521116258429" fill="#b0e5dc" fill-rule="evenodd"/><circle id="shape09" transform="matrix(1.00000003808701 0 0 0.999999960348257 83.5748256575192 61.8488864810687)" r="5.84521116258429" cx="5.84521116258429" cy="5.84521116258429" fill="#b0e5dc" fill-rule="evenodd"/><circle id="shape010" transform="matrix(1.00000003808701 0 0 0.999999960348257 94.0001536695404 68.0814935674912)" r="5.84521116258429" cx="5.84521116258429" cy="5.84521116258429" fill="#b0e5dc" fill-rule="evenodd"/><circle id="shape01111" transform="matrix(1.00000003808701 0 0 0.999999960348257 93.8645986447441 54.7422987654997)" r="5.84521116258429" cx="5.84521116258429" cy="5.84521116258429" fill="#8670ff" fill-rule="evenodd"/><circle id="shape0121" transform="matrix(-1.00000000341957 0 0 0.99999993785959 214.656793043461 61.4511187625763)" r="5.84521116258429" cx="5.84521116258429" cy="5.84521116258429" fill="#8670ff" fill-rule="evenodd"/><circle id="shape015" transform="matrix(-1.00000000341957 0 0 0.99999993785959 203.90874465654 67.5673652863433)" r="5.84521116258429" cx="5.84521116258429" cy="5.84521116258429" fill="#b0e5dc" fill-rule="evenodd"/><circle id="shape025" transform="matrix(-1.00000000341957 0 0 0.99999993785959 204.340660067564 54.5354500082932)" r="5.84521116258429" cx="5.84521116258429" cy="5.84521116258429" fill="#ec5454" fill-rule="evenodd"/><rect id="shape4" transform="translate(303.12, 26.28)" fill="url(#gradient0)" fill-rule="evenodd" width="24.12" height="66.96" rx="2.52000173183205" ry="2.52000173183205"/><rect id="shape5" transform="matrix(1.06481467657866 0 0 1.06481467657866 299.969999984187 91.890002655183)" fill="#1d2460" fill-rule="evenodd" width="28.8" height="19.44" rx="4.58999061692969" ry="4.58999061692969"/><circle id="shape0131" transform="matrix(-0.44198009016734 0 0 0.441980042140243 308.867310889981 95.586695562646)" r="5.84521116258429" cx="5.84521116258429" cy="5.84521116258429" fill="#b0e5dc" fill-rule="evenodd"/><ellipse id="shape6" transform="matrix(0.906652406177842 0 0 0.794580290945793 274.891287274192 58.68)" rx="3.06" ry="2.34" cx="3.06" cy="2.34" fill="#b0e5dc" fill-rule="evenodd"/><path id="shape7" transform="translate(279.450009884743, 47.835001692026)" fill="none" stroke="#b0e5dc" stroke-width="0.7415982" stroke-linecap="square" stroke-linejoin="miter" stroke-miterlimit="2" d="M0.0320043 13.5695C0.0106681 7.4507 0 2.92753 0 0C0.994896 4.81853 5.05936 7.1017 2.8553 10.8725"/><ellipse id="shape0141" transform="matrix(1.07830656732476 0 0 0.945016191043206 353.204296828852 65.3331397162419)" rx="3.06" ry="2.34" cx="3.06" cy="2.34" fill="#b0e5dc" fill-rule="evenodd"/><path id="shape111" transform="matrix(1.18932742027406 0 0 1.18932750007976 358.626110631004 52.43488499025)" fill="none" stroke="#b0e5dc" stroke-width="0.7415982" stroke-linecap="square" stroke-linejoin="miter" stroke-miterlimit="2" d="M0.0320043 13.5695C0.0106681 7.4507 0 2.92753 0 0C0.994896 4.81853 5.05936 7.1017 2.8553 10.8725"/><ellipse id="shape0151" transform="matrix(0.794234803630921 0 0 0.696058775551523 337.634295991745 80.2682611610743)" rx="3.06" ry="2.34" cx="3.06" cy="2.34" fill="#b0e5dc" fill-rule="evenodd"/><path id="shape111" transform="matrix(0.876008046985903 0 0 0.876008105767386 341.902763865166 70.6691087134982)" fill="none" stroke="#b0e5dc" stroke-width="0.7415982" stroke-linecap="square" stroke-linejoin="miter" stroke-miterlimit="2" d="M0.135004 13.3554C0.113668 7.23662 0 2.92753 0 0"/><path id="shape8" transform="translate(45.2789686535845, 157.953508342966)" fill="#b0e5dc" fill-rule="evenodd" d="M0 29.9106L81.4587 29.9106L65.4215 0L13.1734 0.0636449C13.1734 0.0636449 8.78227 10.0126 0 29.9106Z"/><path id="shape10" transform="translate(48.6200461475928, 178.351546553778)" fill="#1d2460" fill-rule="evenodd" d="M0 9.44894L7.1001 0L14.0751 9.45Z"/><path id="shape016" transform="matrix(0.999999963858993 0 0 1 67.6172971777212 178.427890396516)" fill="#1d2460" fill-rule="evenodd" d="M0 9.5383L6.81213 0L13.8098 9.50646Z"/><path id="shape017" transform="matrix(0.999999971078653 0 0 1.00000002112674 88.1061545282816 178.481274719841)" fill="#1d2460" fill-rule="evenodd" d="M0 9.44894L7.1001 0L14.0751 9.45Z"/><path id="shape018" transform="matrix(0.999999934937647 0 0 1.00000002112674 108.644049526589 178.341470002439)" fill="#1d2460" fill-rule="evenodd" d="M0 9.5383L6.81213 0L13.8098 9.50646Z"/><path id="shape1111" transform="translate(59.0887632601909, 162.726483940485)" fill="#ec5454" fill-rule="evenodd" d="M15.719 8.33679L2.92742 0L0 6.1094C0 6.1094 5.23966 6.85186 15.719 8.33679Z"/><path id="shape019" transform="matrix(-0.999999984692836 0 0 1.00000004214357 109.780448498274 162.684660412701)" fill="#ec5454" fill-rule="evenodd" d="M15.719 8.33679L2.92742 0L0 6.1094C0 6.1094 5.23966 6.85186 15.719 8.33679Z"/><path id="shape12" transform="matrix(1.11827460758183 -0.0346699641016681 0.0356813582640089 1.15089697796233 32.4226615523765 121.26050059994)" fill="#8670ff" fill-rule="evenodd" d="M20.9537 15.0953C21.5803 3.31971 17.6285 -0.481071 15.621 0.0476215C12.4413 0.885028 9.71188 5.16854 9.06047 22.3251C8.40906 39.4814 4.12102 48.2719 0.0193928 34.7046C-0.145723 40.6573 0.657571 48.7578 5.78796 49.0675C13.515 49.534 7.64607 -13.3064 20.9537 15.0953Z"/><rect id="shape13" transform="matrix(1.03575246775362 0 0 1.03575246775362 205.144120145036 156.225974503802)" fill="#b0e5dc" fill-rule="evenodd" width="47.16" height="30.6" rx="4.77194898743355" ry="4.77194898743355"/><rect id="shape14" transform="matrix(1.03575246775363 -0.00838611734131414 -1.239417295329 1.04578758637229 216.745066029315 146.810273583749)" fill="#8670ff" fill-rule="evenodd" width="47.16" height="9.36000000000001" rx="2.44585802817815" ry="2.44585802817815"/><circle id="shape16" transform="translate(208.317019621472, 160.050883116465)" r="1.98" cx="1.98" cy="1.98" fill="#1d2460" fill-rule="evenodd"/><circle id="shape020" transform="matrix(1.00000001996664 0 0 0.99999996685674 208.187023847386 165.500877696905)" r="1.98" cx="1.98" cy="1.98" fill="#ec5454" fill-rule="evenodd"/><circle id="shape02111" transform="matrix(1.00000001996664 0 0 0.99999996685674 208.147023890132 171.220877623416)" r="1.98" cx="1.98" cy="1.98" fill="#8670ff" fill-rule="evenodd"/><circle id="shape0221" transform="matrix(0.911611104630273 0 0 0.911611069232253 232.837287021345 182.398193234479)" r="1.98" cx="1.98" cy="1.98" fill="#006277" fill-rule="evenodd"/><circle id="shape0231" transform="matrix(0.911611093638694 0 0 0.911611052589134 237.168079922245 182.363985137887)" r="1.98" cx="1.98" cy="1.98" fill="#006277" fill-rule="evenodd"/><circle id="shape0241" transform="matrix(0.911611118236158 0 0 0.911611052589134 241.493482768481 182.38108918171)" r="1.98" cx="1.98" cy="1.98" fill="#006277" fill-rule="evenodd"/><circle id="shape0161" transform="matrix(0.911611107244579 0 0 0.911611035946016 245.824275734018 182.346881085743)" r="1.98" cx="1.98" cy="1.98" fill="#006277" fill-rule="evenodd"/><path id="shape17" transform="matrix(0.915178571428571 0 0 1.09057971014493 219.114503029691 113.804772174546)" fill="#ec5454" fill-rule="evenodd" d="M24.9187 0L4.31135 18.9894L17.5236 16.3051L0 35.7953L16.3503 32.2037L5.00673 52.1344L29.0668 24.0078L13.9045 27.6257L29.9013 8.83577L16.7586 12.0452Z"/><path id="shape18" transform="translate(364.654979511306, 158.653553913034)" fill="#8670ff" fill-rule="evenodd" d="M0 28.956L0 24.6922L10.4369 12.537L11.3915 0L15.1462 13.8098L29.4015 15.1462L16.4827 17.6918L4.07294 28.8924Z"/><path id="shape19" transform="translate(378.846613094381, 151.780475765177)" fill="#b0e5dc" fill-rule="evenodd" d="M0 1.90919L2.99106 18.3282L22.1466 18.5828L4.13657 0Z"/><path id="shape20" transform="translate(380.946721279671, 132.370393958729)" fill="#ec5454" fill-rule="evenodd" d="M0.720807 38.2021L0 32.2016L33.4108 1.65463L38.9474 0L37.611 5.09117L7.08831 37.9096Z"/><path id="shape211" transform="translate(385.401493179155, 132.370393958729)" fill="#b0e5dc" fill-rule="evenodd" d="M3.30926 22.0193L15.0189 11.3279L13.7462 0L9.22774 0.190919L0 19.1555Z"/><path id="shape22" transform="translate(396.474785751385, 172.017872533867)" fill="#b0e5dc" fill-rule="evenodd" d="M0 0.127279L6.1094 0L23.6103 16.7372L4.83661 12.1552Z"/><path id="shape23" transform="translate(363.254884097605, 140.388975879348)" fill="#b0e5dc" fill-rule="evenodd" d="M1.71827 7.38219L5.37756 6.39579L5.53666 4.1684L0 3.81838L3.37291 1.24098L7.28675 1.90919L10.246 0L23.6739 2.41831L18.9646 6.23668L21.0011 7.31855L14.0962 10.8506Z"/><path id="shape24" transform="translate(372.195014536232, 142.447501051577)" fill="#8670ff" fill-rule="evenodd" d="M0 1.5525L2.45249 0L8.30249 0.945L4.54499 2.8125C5.085 2.8725 3.57 2.4525 0 1.5525Z"/><path id="shape61" transform="translate(65.1987785808851, 151.557677035938)" fill="#8670ff" fill-rule="evenodd" d="M0 6.71403L4.13657 6.71403C3.95607 2.22581 3.28785 -0.0121793 2.13193 4.98458e-05C0.976003 0.012279 0.26536 2.25027 0 6.71403Z"/><path id="shape71" transform="translate(258.844859586447, 165.908460221991)" fill="none" stroke="#1d2460" stroke-width="1.8" stroke-linecap="square" stroke-linejoin="bevel" d="M0 0.742362C3.431 5.72278 7.90194 7.84049 13.4128 7.09548C17.998 6.47561 21.7239 -1.16111 28.6953 0.151375C31.6049 0.699153 33.8268 2.17662 35.3611 4.58378"/><path id="shape07" transform="translate(290.246158926881, 167.667189762393)" fill="#ec5454" fill-rule="evenodd" d="M4.47373 11.5116L5.52377 10.5888L3.67822 7.66142L7.30568 5.11584L9.43761 7.88416L10.424 7.08866C8.25777 3.24475 6.56071 0.98554 5.33285 0.311046C4.51058 -0.140649 2.83741 -0.177967 1.5463 0.724703C0.455862 1.48707 -0.113735 2.65355 0.0189599 4.51127C0.0698716 5.22403 1.5548 7.55749 4.47373 11.5116Z"/><rect id="shape15" transform="matrix(1.03575246775362 -0.845864573348935 2.56289253547803e-16 1.04641484485135 253.990206524297 155.853103615411)" fill="#1d2460" fill-rule="evenodd" width="10.8" height="30.6" rx="2.88551949578749" ry="2.88551949578749"/><rect id="shape2" transform="matrix(0.943787838274671 0 0 0.962230126323109 136.044681691953 238.592269928396)" fill="#1d2460" fill-rule="evenodd" width="49.3510353910047" height="41.76" rx="3.14689031925953" ry="3.14689031925953"/><rect id="shape3" transform="matrix(0.943787838274671 0.539341027038339 0 0.962230126323109 122.462792030158 230.586596369366)" fill="#8670ff" fill-rule="evenodd" width="14.76" height="41.76" rx="2.04822782948993" ry="2.04822782948993"/><rect id="shape4" transform="matrix(0.943787838274671 0 1.67990314219153 0.962230126323109 122.00597635709 230.580009491101)" fill="#b0e5dc" fill-rule="evenodd" width="49.68" height="8.49275128933164" rx="1.53065405243592" ry="1.53065405243592"/><rect id="shape5" transform="translate(139.635000000501, 241.897500000028)" fill="#b0e5dc" fill-rule="evenodd" width="4.68000000000001" height="4.68000000000001"/><rect id="shape08" transform="matrix(0.999999991594111 0 0 0.999999975299411 147.139757795941 241.916877870001)" fill="#b0e5dc" fill-rule="evenodd" width="4.68000000000001" height="4.68000000000001"/><rect id="shape09" transform="matrix(0.999999979208055 0 0 0.999999973324768 154.633132178891 241.915767757029)" fill="#b0e5dc" fill-rule="evenodd" width="4.68000000000001" height="4.68000000000001"/><rect id="shape010" transform="matrix(0.999999970802166 0 0 0.999999948624179 162.203128449238 241.957645626151)" fill="#b0e5dc" fill-rule="evenodd" width="4.68000000000001" height="4.68000000000001"/><rect id="shape011" transform="matrix(0.999999979208055 0 0 0.999999973324768 169.462719678047 241.920370812007)" fill="#b0e5dc" fill-rule="evenodd" width="4.68000000000001" height="4.68000000000001"/><rect id="shape012" transform="matrix(0.999999970802166 0 0 0.999999948624179 176.42634663674 241.890888291959)" fill="#b0e5dc" fill-rule="evenodd" width="4.68000000000001" height="4.68000000000001"/><rect id="shape013" transform="matrix(0.999999984540064 0 0 0.999999998024257 139.618278590494 248.836136171617)" fill="#b0e5dc" fill-rule="evenodd" width="4.68000000000001" height="4.68000000000001"/><rect id="shape014" transform="matrix(0.999999976134175 0 0 0.999999973323668 147.213036276421 248.855514041552)" fill="#ec5454" fill-rule="evenodd" width="4.68000000000001" height="4.68000000000001"/><rect id="shape014" transform="matrix(0.999999963748119 0 0 0.999999971349025 154.616410537014 248.854403928582)" fill="#b0e5dc" fill-rule="evenodd" width="4.68000000000001" height="4.68000000000001"/><rect id="shape024" transform="matrix(0.99999995534223 0 0 0.999999946648436 162.186406690329 248.896281797621)" fill="#b0e5dc" fill-rule="evenodd" width="4.68000000000001" height="4.68000000000001"/><rect id="shape032" transform="matrix(0.999999963748119 0 0 0.999999971349025 169.445997806906 248.859006983551)" fill="#ec5454" fill-rule="evenodd" width="4.68000000000001" height="4.68000000000001"/><rect id="shape042" transform="matrix(0.99999995534223 0 0 0.999999946648436 176.409624657941 248.829524463561)" fill="#b0e5dc" fill-rule="evenodd" width="4.68000000000001" height="4.68000000000001"/><rect id="shape015" transform="matrix(0.999999984540064 0 0 0.999999998024257 139.618278590494 256.027412041065)" fill="#b0e5dc" fill-rule="evenodd" width="4.68000000000001" height="4.68000000000001"/><rect id="shape016" transform="matrix(0.999999976134175 0 0 0.999999973323668 147.123036269911 256.046789911)" fill="#b0e5dc" fill-rule="evenodd" width="4.68000000000001" height="4.68000000000001"/><rect id="shape015" transform="matrix(0.999999963748119 0 0 0.999999971349025 154.616410537014 256.04567979803)" fill="#b0e5dc" fill-rule="evenodd" width="4.68000000000001" height="4.68000000000001"/><rect id="shape025" transform="matrix(0.99999995534223 0 0 0.999999946648436 162.186406690329 256.087557667069)" fill="#b0e5dc" fill-rule="evenodd" width="4.68000000000001" height="4.68000000000001"/><rect id="shape033" transform="matrix(0.999999963748119 0 0 0.999999971349025 169.445997806906 256.050282852999)" fill="#b0e5dc" fill-rule="evenodd" width="4.68000000000001" height="4.68000000000001"/><rect id="shape043" transform="matrix(0.99999995534223 0 0 0.999999946648436 176.409624657941 256.020800333009)" fill="#b0e5dc" fill-rule="evenodd" width="4.68000000000001" height="4.68000000000001"/><rect id="shape017" transform="matrix(0.999999984540064 0 0 0.999999998024257 139.618278590494 263.218687910513)" fill="#b0e5dc" fill-rule="evenodd" width="4.68000000000001" height="4.68000000000001"/><rect id="shape018" transform="matrix(0.999999976134175 0 0 0.999999973323668 147.123036269911 263.238065780448)" fill="#ec5454" fill-rule="evenodd" width="4.68000000000001" height="4.68000000000001"/><rect id="shape016" transform="matrix(0.999999963748119 0 0 0.999999971349025 154.616410537014 263.236955667478)" fill="#b0e5dc" fill-rule="evenodd" width="4.68000000000001" height="4.68000000000001"/><rect id="shape026" transform="matrix(0.99999995534223 0 0 0.999999946648436 162.186406690329 263.278833536517)" fill="#b0e5dc" fill-rule="evenodd" width="4.68000000000001" height="4.68000000000001"/><rect id="shape034" transform="matrix(0.999999963748119 0 0 0.999999971349025 169.445997806906 263.241558722447)" fill="#ec5454" fill-rule="evenodd" width="4.68000000000001" height="4.68000000000001"/><rect id="shape044" transform="matrix(0.99999995534223 0 0 0.999999946648436 176.409624657941 263.212076202457)" fill="#b0e5dc" fill-rule="evenodd" width="4.68000000000001" height="4.68000000000001"/><rect id="shape019" transform="matrix(0.999999984540064 0 0 0.999999998024257 139.490999371566 270.600882608354)" fill="#b0e5dc" fill-rule="evenodd" width="4.68000000000001" height="4.68000000000001"/><rect id="shape020" transform="matrix(0.999999976134175 0 0 0.999999973323668 146.995757050983 270.620260478288)" fill="#b0e5dc" fill-rule="evenodd" width="4.68000000000001" height="4.68000000000001"/><rect id="shape017" transform="matrix(0.999999963748119 0 0 0.999999971349025 154.489131318086 270.619150365319)" fill="#ec5454" fill-rule="evenodd" width="4.68000000000001" height="4.68000000000001"/><rect id="shape027" transform="matrix(0.99999995534223 0 0 0.999999946648436 162.059127471401 270.661028234358)" fill="#ec5454" fill-rule="evenodd" width="4.68000000000001" height="4.68000000000001"/><rect id="shape035" transform="matrix(0.999999963748119 0 0 0.999999971349025 169.318718587977 270.623753420287)" fill="#b0e5dc" fill-rule="evenodd" width="4.68000000000001" height="4.68000000000001"/><rect id="shape045" transform="matrix(0.99999995534223 0 0 0.999999946648436 176.282345439013 270.594270900298)" fill="#b0e5dc" fill-rule="evenodd" width="4.68000000000001" height="4.68000000000001"/><ellipse id="shape6" transform="translate(169.45455835055, 231.030011070531)" rx="3.37179646401425" ry="3.37179646401424" cx="3.37179646401425" cy="3.37179646401424" fill="#ec5454" fill-rule="evenodd"/><path id="shape7" transform="translate(167.895009221216, 225.717906989841)" fill="none" stroke="#ec5454" stroke-width="2.52" stroke-linecap="square" stroke-linejoin="bevel" d="M0 2.61211C6.46046 -3.41398 15.0839 1.84374 13.41 9.67711"/><path id="shape021" transform="matrix(0.999999995347905 0 0 0.999999984582864 164.631148976715 213.965090540688)" fill="none" stroke="#ec5454" stroke-width="2.52" stroke-linecap="square" stroke-linejoin="bevel" d="M0 3.51782C11.8729 -4.78335 28.0346 2.23676 27.6196 17.964"/><path id="shape022" transform="matrix(0.999999995347905 0 0 0.999999984582864 166.860009158725 219.805842914383)" fill="none" stroke="#ec5454" stroke-width="2.52" stroke-linecap="square" stroke-linejoin="bevel" d="M0 3.16917C9.8435 -4.12468 20.7417 1.8968 19.98 13.8342"/><path id="shape8" transform="translate(92.5801923073443, 253.619998679408)" fill="none" stroke="#8670ff" stroke-width="1.8" stroke-linecap="square" stroke-linejoin="bevel" d="M32.0698 0C30.4438 7.05087 27.2038 10.8309 22.3498 11.34C14.7043 12.1419 9.49963 6.11029 0 14.6002"/><path id="shape023" transform="matrix(-0.976481768453385 -0.215599783644814 -0.215599792232061 0.976481807346236 95.6378110962012 266.927160894501)" fill="#ec5454" fill-rule="evenodd" d="M4.47373 11.5116L5.52377 10.5888L3.67822 7.66142L7.30568 5.11584L9.43761 7.88416L10.424 7.08866C8.25777 3.24475 6.56071 0.98554 5.33285 0.311046C4.51058 -0.140649 2.83741 -0.177967 1.5463 0.724703C0.455862 1.48707 -0.113735 2.65355 0.0189599 4.51127C0.0698716 5.22403 1.5548 7.55749 4.47373 11.5116Z"/><path id="shape9" transform="translate(374.490020812771, 158.040008783279)" fill="#1d2460" fill-rule="evenodd" d="M5.265 14.175L1.575 0L0 19.395L21.015 15.66C20.595 15.93 15.345 15.435 5.265 14.175Z"/><path id="shape024" transform="matrix(1.36181557486956 0 0 1.36181557075038 329.623802669398 278.74218191085)" sodipodi:type="arc" sodipodi:rx="5.94" sodipodi:ry="7.37999999999999" sodipodi:cx="5.94001803248845" sodipodi:cy="7.38004883404796" sodipodi:start="6.28318530717959" sodipodi:end="6.24846930817966" sodipodi:open="true" d="M11.8764 7.1239C11.7633 3.07547 9.04473 -0.10291 5.78538 0.00255024C2.52602 0.108011 -0.0556793 3.45788 0.000912871 7.50814C0.057505 11.5584 2.73124 14.7949 5.99157 14.7598C9.2519 14.7246 11.88 11.4309 11.88 7.38005" fill="#1d2460" fill-rule="evenodd"/><path id="shape025" transform="matrix(1.36181559257572 0 0 1.36181564714033 329.5876284468 278.527786953002)" fill="#1d2460" fill-rule="evenodd" d="M8.98159 15.0075L4.49236 14.9135C-2.28414 11.5272 -0.775959 2.66567 4.90909 0L9.48807 0.0536618C9.61711 0.031469 9.44828 5.01608 8.98159 15.0075Z"/><ellipse id="shape018" transform="matrix(1.36181557486956 0 0 1.36181557075038 334.085183709663 278.874751017151)" rx="5.94" ry="7.37999999999999" cx="5.94" cy="7.37999999999999" fill="#8670ff" fill-rule="evenodd"/><ellipse id="shape028" transform="matrix(1.36181557486956 0 0 1.36181557075038 338.201790750689 284.088400936374)" rx="3.02908835336371" ry="3.76341280266399" cx="3.02908835336371" cy="3.76341280266399" fill="#1d2460" fill-rule="evenodd"/><path id="shape10" transform="matrix(1.23945275750077 0 0 1.23945275750077 297.843883846318 219.934892099861)" fill="none" stroke="#1d2460" stroke-width="1.8" stroke-linecap="square" stroke-linejoin="bevel" d="M19.7649 53.82C24.3125 46.7276 22.0325 40.4876 17.7849 40.41C13.5374 40.3324 11.4678 44.271 7.25493 43.74C3.04211 43.209 -2.17658 39.3583 0.95493 33.21C4.08644 27.0617 14.4058 33.0777 15.3549 23.04C15.699 19.4017 6.94783 14.9687 6.17493 9.81C5.52466 5.46978 8.20638 0.671127 13.1049 0"/><path id="shape11" transform="matrix(1.23945275750077 0 0 1.23945275750077 310.511807552347 215.571616065959)" fill="#1d2460" fill-rule="evenodd" stroke="#b0e5dc" stroke-width="2.7" stroke-linecap="square" stroke-linejoin="miter" stroke-miterlimit="2" d="M0 49.0661L0 0"/><path id="shape12" transform="matrix(1.23945275750077 0 0 1.23945275750077 300.814185023318 200.807226154836)" fill="#8670ff" fill-rule="evenodd" d="M0.178469 14.5323C3.49047 14.9463 9.01047 15.6363 16.7385 16.6023C16.7835 6.94235 15.4635 1.67735 8.45848 0.222355C1.45348 -1.23264 -0.676531 4.55735 0.178469 14.5323Z"/><ellipse id="shape13" transform="matrix(-0.863318668911428 0 0 0.863318668911428 308.351202517105 206.320547457575)" rx="4.484002208298" ry="5.24012085497934" cx="4.484002208298" cy="5.24012085497934" fill="#8670ff" fill-rule="evenodd"/><path id="shape14" transform="matrix(-0.863318668911428 0 0 0.863318668911428 308.382507754025 206.320541815955)" fill="#1d2460" fill-rule="evenodd" d="M7.50873 0.0954594L4.07219 0C-1.70163 0.869669 -1.03166 9.88364 4.16765 10.5324L7.636 10.3414C7.636 10.3414 7.59358 6.92611 7.50873 0.0954594Z"/><ellipse id="shape026" transform="matrix(-0.86331866138716 0 0 0.863318656786993 305.833443577998 206.26993950942)" rx="4.484002208298" ry="5.24012085497934" cx="4.484002208298" cy="5.24012085497934" fill="#ec5454" fill-rule="evenodd"/><ellipse id="shape027" transform="matrix(-0.892366560327965 0 0 0.892366504759213 319.763547322669 208.330163849696)" rx="4.484002208298" ry="5.24012085497934" cx="4.484002208298" cy="5.24012085497934" fill="#8670ff" fill-rule="evenodd"/><path id="shape11" transform="matrix(-0.892366560327965 0 0 0.892366504759213 319.795905159015 208.330158018253)" fill="#1d2460" fill-rule="evenodd" d="M7.50873 0.0954594L4.07219 0C-1.70163 0.869669 -1.03166 9.88364 4.16765 10.5324L7.636 10.3414C7.636 10.3414 7.59358 6.92611 7.50873 0.0954594Z"/><ellipse id="shape028" transform="matrix(-0.89236655255053 0 0 0.892366492226832 317.161073908005 208.277853110412)" rx="4.484002208298" ry="5.24012085497934" cx="4.484002208298" cy="5.24012085497934" fill="#ec5454" fill-rule="evenodd"/><path id="shape15" transform="matrix(1.23945275750077 0 0 1.23945275750077 308.732413191311 237.810917732529)" fill="#b0e5dc" fill-rule="evenodd" stroke="#1d2460" stroke-width="1.8" stroke-linecap="square" stroke-linejoin="bevel" d="M4.84766 5.03968C3.9317 3.88827 1.88081 2.11837 0 0"/><ellipse id="shape16" transform="matrix(1.23945275750077 0 0 1.23945275750077 318.995054030245 285.080525863112)" rx="2.34" ry="1.79999999999998" cx="2.34" cy="1.79999999999998" fill="#ec5454" fill-rule="evenodd"/>
</svg>
