<?xml version="1.0" standalone="no"?>
<!DOCTYPE svg PUBLIC "-//W3C//DTD SVG 20010904//EN" "http://www.w3.org/TR/2001/REC-SVG-20010904/DTD/svg10.dtd">
<!-- Created using Krita: http://krita.org -->
<svg xmlns="http://www.w3.org/2000/svg" 
    xmlns:xlink="http://www.w3.org/1999/xlink"
    xmlns:krita="http://krita.org/namespaces/svg/krita"
    xmlns:sodipodi="http://sodipodi.sourceforge.net/DTD/sodipodi-0.dtd"
    width="360pt"
    height="360pt"
    viewBox="0 0 360 360">
<defs/>
<path id="shape0" transform="matrix(1.35333504708266 0 0 1.35333504708266 12.6725765431778 2.02873634231941)" fill="#7d8bf5" fill-rule="evenodd" d="M123.303 263.011C125.65 248.263 107.149 246.052 106.519 234.173C105.875 222 128.379 225.595 129.584 210.371C131.341 188.18 75.7958 196.245 80.0658 165.006C49.8971 168.402 33.9132 138.451 59.9557 130.641C9.15974 132.629 -36.1049 90.6334 42.3494 66.5926C43.8971 35.8811 57.6094 33.4362 72.1394 36.3526C69.7045 -1.23469 115.323 -7.20424 123.619 9.71257C155.793 -13.4345 206.182 9.14955 181.939 32.0326C216.794 42.6495 219.151 64.472 197.509 80.2726C242.879 78.1824 288.933 132.569 181.126 151.769C201.575 159.514 184.188 180.652 176.416 182.571C202.953 211.115 169.968 225.396 131.487 230.173C126.93 230.739 119.885 235.89 121.686 240.738C126.325 253.223 126.847 259.889 123.303 263.011Z"/><path id="shape1" transform="matrix(1.35045770553773 0.0882028073022638 -0.0882028073022638 1.35045770553773 174.445751017896 260.869667183892)" fill="#810a54" fill-rule="evenodd" d="M9.20033 33.6745C30.5761 22.0519 28.3114 5.71586 0 0.2194C44.3077 -2.19695 57.4498 15.7601 9.20033 33.6745Z"/><path id="shape2" transform="matrix(1.35333504708266 0 0 1.35333504708266 34.5923425032615 85.5996124659043)" fill="#810a54" fill-rule="evenodd" d="M117.863 124.001C81.2011 121.649 67.4304 110.173 75.7059 87.0901C79.8772 75.4555 46.3938 79.3907 54.1227 85.7958C64.9969 94.8074 71.0365 81.5126 57.2025 83.6808C81.6533 77.453 66.7405 110.696 43.6125 91.6008C30.8281 81.0454 48.8275 68.2408 65.1418 69.3347C70.0177 69.6616 81.9126 74.1506 84.2336 74.9986C104.754 82.4955 121.637 79.919 134.885 67.2692C234.429 74.7682 162.77 0.0301974 113.363 36.7008C90.9754 8.50739 51.4294 21.6985 47.8318 33.7601C44.9255 43.5039 66.2509 54.8194 97.0888 52.0883C127.523 49.3931 63.9607 25.1004 82.0875 41.3358C79.4771 35.2828 91.3697 39.1532 97.5025 43.9425C102.775 48.0601 102.223 50.8661 93.7796 49.7973C27.7465 41.4386 87.6413 9.82039 111.203 43.3608C156.722 17.0625 196.547 66.3483 129.697 57.7244C120.479 85.0691 67.7297 65.1318 66.6691 59.216C-5.89252 70.0642 -27.7494 7.04975 44.268 15.6865C62.6564 -2.49583 83.2757 -4.8717 106.126 8.55884C139.728 -8.7244 173.164 9.9431 186.821 29.6872C234.32 36.4399 225.104 77.7828 142.655 85.1809C104.584 88.597 85.2526 108.881 117.863 124.001Z"/><path id="shape3" transform="matrix(1.35333504708266 0 0 1.35333504708266 83.1526230744609 14.3649882408519)" fill="#810a54" fill-rule="evenodd" d="M1.64024 62.8498C23.6298 41.1209 51.17 38.7459 70.4983 54.3221C92.5045 36.685 124.612 47.1569 143.302 64.759C158.318 50.789 149.018 36.1269 122.819 27.3328C80.1253 40.7271 71.594 19.8879 90.9266 14.8019C118.899 7.44312 117.127 27.7111 94.8086 21.0068C109.757 23.0589 104.772 16.3231 99.8998 16.202C83.8563 15.8032 86.3012 24.998 92.07 26.8753C97.1666 28.5338 120.3 25.9182 126.628 17.4111C139.484 0.129448 85.1549 -9.03006 74.3803 12.8291C71.9137 17.8333 62.3291 31.2107 46.4756 22.3771C44.6265 21.3468 44.783 14.0469 56.6627 14.6577C39.2275 19.2526 63.3868 29.3146 68.3006 9.59712C71.9233 -4.93951 19.3822 -8.23159 27.6052 38.1577C11.0082 24.6447 -5.30018 45.1377 1.64024 62.8498Z"/><path id="shape4" transform="matrix(1.34630548915608 -0.137758047062392 0.137758047062392 1.34630548915608 189.008104455522 215.973116239185)" fill="#810a54" fill-rule="evenodd" d="M29.5413 58.0854C33.0561 54.3451 38.4254 40.5285 27.8721 35.382C3.43747 23.466 -4.7377 14.4033 2.58503 6.18594C8.45633 -0.402684 25.8595 -2.47879 42.3078 3.67565C52.2247 7.3862 51.8811 14.9479 41.8174 21.6805C33.1032 27.5104 20.2183 13.7398 30.398 10.6872C33.0531 9.89095 40.7832 13.1397 36.4229 15.751C37.2102 13.7612 33.0806 12.8336 32.8176 14.3924C31.7962 20.4459 43.0569 17.373 40.9067 12.0722C39.6426 8.95614 35.4903 7.81082 32.0794 7.57093C25.0264 7.07489 14.6658 16.3402 26.0544 24.1908C29.0911 26.2841 36.9836 28.805 40.8366 37.9542C43.2661 43.7232 38.4853 54.5363 29.5413 58.0854Z"/>
</svg>
