<?xml version="1.0" standalone="no"?>
<!DOCTYPE svg PUBLIC "-//W3C//DTD SVG 20010904//EN" "http://www.w3.org/TR/2001/REC-SVG-20010904/DTD/svg10.dtd">
<!-- Created using Krita: http://krita.org -->
<svg xmlns="http://www.w3.org/2000/svg" 
    xmlns:xlink="http://www.w3.org/1999/xlink"
    xmlns:krita="http://krita.org/namespaces/svg/krita"
    xmlns:sodipodi="http://sodipodi.sourceforge.net/DTD/sodipodi-0.dtd"
    width="360pt"
    height="324pt"
    viewBox="0 0 360 324">
<defs>
  <linearGradient id="gradient0" gradientUnits="objectBoundingBox" x1="0.33566322889972" y1="-0.16265260291369" x2="0.8288752758305" y2="1.27329488376509" spreadMethod="pad">
   <stop stop-color="#1d2460" offset="0" stop-opacity="1"/>
   <stop stop-color="#0c8bb3" offset="1" stop-opacity="0.968627450980392"/>
  </linearGradient>
 </defs>
<path id="shape0" transform="translate(-38.0096883550743, -24.6994848860437)" fill="url(#gradient0)" fill-rule="evenodd" d="M226.325 209.801L225.22 207.133L222.552 206.028L219.884 207.133L218.779 209.801L219.884 212.469L222.552 213.574L225.22 212.469L226.325 209.801M339.462 122.094L338.672 119.174L336.596 117.098L333.676 116.308L330.755 117.098L328.679 119.174L327.889 122.094L328.679 125.015L330.755 127.09L333.676 127.88L336.596 127.09L338.672 125.015L339.462 122.094M120.759 174.911L119.654 172.243L116.986 171.138L114.318 172.243L113.213 174.911L114.318 177.579L116.986 178.684L119.654 177.579L120.759 174.911M345.067 176.333L343.962 173.665L341.294 172.56L338.626 173.665L337.521 176.333L338.626 179.001L341.294 180.106L343.962 179.001L345.067 176.333M322.938 245.785L322.148 242.865L320.072 240.789L317.152 239.999L314.231 240.789L312.156 242.865L311.366 245.785L312.156 248.706L314.231 250.782L317.152 251.572L320.072 250.782L322.148 248.706L322.938 245.785M278.311 66.6875L277.206 64.0195L274.538 62.9144L271.87 64.0195L270.765 66.6875L271.87 69.3554L274.538 70.4605L277.206 69.3554L278.311 66.6875M175.528 118.355L174.423 115.687L171.755 114.582L169.087 115.687L167.982 118.355L169.087 121.023L171.755 122.128L174.423 121.023L175.528 118.355M247.633 232.386L246.528 229.718L243.86 228.613L241.192 229.718L240.087 232.386L241.192 235.054L243.86 236.159L246.528 235.054L247.633 232.386M270.612 275.839L269.507 273.171L266.839 272.066L264.171 273.171L263.066 275.839L264.171 278.507L266.839 279.612L269.507 278.507L270.612 275.839M283.714 124.773L282.609 122.105L279.941 121L277.273 122.105L276.168 124.773L277.273 127.441L279.941 128.546L282.609 127.441L283.714 124.773M221.788 82.8887L220.683 80.2208L218.015 79.1157L215.347 80.2208L214.242 82.8887L215.347 85.5567L218.015 86.6618L220.683 85.5567L221.788 82.8887M116.27 110.72L115.48 107.799L113.404 105.723L110.484 104.933L107.563 105.723L105.487 107.799L104.697 110.72L105.487 113.64L107.563 115.716L110.484 116.506L113.404 115.716L115.48 113.64L116.27 110.72M167.817 203.733L167.027 200.813L164.951 198.737L162.031 197.947L159.11 198.737L157.035 200.813L156.245 203.733L157.035 206.654L159.11 208.73L162.031 209.52L164.951 208.73L167.027 206.654L167.817 203.733M296.079 81.2287L294.974 78.5608L292.306 77.4557L289.638 78.5608L288.533 81.2287L289.638 83.8967L292.306 85.0018L294.974 83.8967L296.079 81.2287M198.156 59.6968L197.051 57.0289L194.383 55.9238L191.715 57.0289L190.61 59.6968L191.715 62.3648L194.383 63.4699L197.051 62.3648L198.156 59.6968M143.024 74.9011L141.919 72.2332L139.251 71.1281L136.583 72.2332L135.478 74.9011L136.583 77.5691L139.251 78.6742L141.919 77.5691L143.024 74.9011M82.5386 147.632L81.4032 144.891L78.6621 143.756L75.921 144.891L74.7856 147.632L75.921 150.373L78.6621 151.509L81.4032 150.373L82.5386 147.632M308.827 185.716L307.722 183.048L305.054 181.943L302.386 183.048L301.281 185.716L302.386 188.384L305.054 189.489L307.722 188.384L308.827 185.716M133.531 222.552L131.893 222.259L130.272 221.957L128.666 221.645L127.077 221.324L125.504 220.994L123.946 220.654L122.405 220.305L120.88 219.947L119.372 219.579L117.879 219.202L116.402 218.815L114.942 218.419L113.498 218.014L112.07 217.599L110.658 217.175L109.262 216.742L107.882 216.299L106.518 215.847L105.171 215.386L103.839 214.915L102.524 214.435L101.225 213.946L99.9417 213.447L98.6748 212.938L97.424 212.421L96.1893 211.894L94.9708 211.358L93.7684 210.812L92.5821 210.257L91.4119 209.693L90.2579 209.119L89.12 208.536L87.9982 207.943L86.8925 207.341L85.803 206.73L84.7296 206.11L83.6723 205.48L82.6311 204.84L81.6061 204.192L80.5971 203.534L79.6044 202.866L78.6277 202.19L77.6671 201.504L76.7227 200.808L75.7944 200.103L74.8823 199.389L73.9862 198.666L73.1063 197.933L72.2425 197.191L71.3949 196.439L70.5633 195.678L69.7479 194.908L68.5541 193.729L67.4045 192.529L66.2984 191.309L65.2352 190.07L64.2141 188.814L63.2345 187.541L62.2956 186.252L61.3968 184.95L60.5374 183.635L59.7166 182.309L58.9338 180.972L58.1882 179.625L57.4793 178.271L56.8062 176.911L56.1683 175.544L55.5649 174.174L54.9952 172.8L54.4587 171.425L53.9545 170.049L53.4821 168.674L53.0406 167.3L52.6295 165.929L52.248 164.563L51.8954 163.203L51.571 161.849L51.2741 160.502L51.004 159.166L50.7601 157.839L50.5416 156.524L50.3478 155.222L50.1781 153.934L50.0317 152.661L49.908 151.404L49.8062 150.166L49.7257 148.946L49.6657 147.746L49.6255 146.568L49.6046 145.412L49.6021 144.28L49.6174 143.173L49.6497 142.092L49.6984 141.039L49.7628 140.014L49.8422 139.019L49.9359 138.055L50.0431 137.124L50.1633 136.226L50.2956 135.363L50.4395 134.535L50.5941 133.745L50.7589 132.994L50.9331 132.282L51.1708 131.409L51.4423 130.502L51.7477 129.561L52.0867 128.587L52.4594 127.582L52.8657 126.547L53.3053 125.483L53.7784 124.392L54.2847 123.274L54.8243 122.131L55.397 120.964L56.0027 119.775L56.6414 118.563L57.3129 117.332L58.0173 116.081L58.7544 114.813L59.524 113.528L60.3263 112.227L61.1609 110.912L62.028 109.584L62.9273 108.245L63.8589 106.894L64.8226 105.535L65.8183 104.167L66.846 102.793L67.9055 101.412L68.9969 100.027L70.12 98.6392L71.2746 97.2491L72.4609 95.8581L73.6786 94.4674L74.9276 93.0784L76.208 91.6922L77.5196 90.31L78.8623 88.933L80.236 87.5626L81.6407 86.1997L83.0763 84.8458L84.5426 83.502L86.0397 82.1696L87.5674 80.8497L89.1257 79.5435L90.7144 78.2524L92.3335 76.9774L93.9829 75.7198L95.6625 74.4809L97.3722 73.2619L99.1119 72.0639L100.882 70.8881L102.681 69.7359L104.511 68.6084L106.37 67.5069L108.259 66.4325L110.177 65.3864L112.125 64.37L114.102 63.3844L116.108 62.4307L118.144 61.5104L121.932 59.8988L125.76 58.3822L129.625 56.9587L133.524 55.6262L137.455 54.3829L141.415 53.2266L145.4 52.1555L149.409 51.1675L153.439 50.2606L157.486 49.4329L161.547 48.6824L165.621 48.0072L169.704 47.4051L173.793 46.8743L177.886 46.4128L181.98 46.0185L186.072 45.6895L190.159 45.4239L194.238 45.2195L198.307 45.0746L202.363 44.9869L206.403 44.9547L210.424 44.9759L214.424 45.0485L218.399 45.1705L222.347 45.3399L226.265 45.5549L230.151 45.8133L234.001 46.1133L237.812 46.4527L241.582 46.8297L245.309 47.2423L248.989 47.6884L252.619 48.1661L256.197 48.6735L259.719 49.2084L263.184 49.769L266.588 50.3533L269.929 50.9593L273.203 51.5849L276.409 52.2283L279.542 52.8874L282.601 53.5602L285.582 54.2448L288.483 54.9392L291.3 55.6414L294.032 56.3495L296.676 57.0613L299.227 57.775L301.685 58.4886L304.045 59.2001L306.306 59.9075L308.464 60.6088L310.516 61.302L312.46 61.9853L314.294 62.6564L316.013 63.3136L317.616 63.9548L319.099 64.5781L320.46 65.1813L321.696 65.7627L322.804 66.3201L323.781 66.8516L324.613 67.3276L325.48 67.8324L326.382 68.3659L327.318 68.9282L328.285 69.5193L329.283 70.1393L330.309 70.7881L331.362 71.466L332.441 72.1728L333.543 72.9086L334.668 73.6734L335.814 74.4674L336.979 75.2904L338.161 76.1427L339.36 77.0241L340.573 77.9348L341.799 78.8747L343.037 79.8439L344.284 80.8425L345.54 81.8705L346.803 82.9279L348.07 84.0147L349.341 85.1311L350.615 86.277L351.888 87.4524L353.161 88.6575L354.431 89.8921L355.697 91.1565L356.957 92.4506L358.21 93.7744L359.454 95.1281L360.687 96.5115L361.908 97.9249L363.116 99.3681L364.309 100.841L365.485 102.344L366.643 103.878L367.78 105.441L368.897 107.034L369.99 108.657L371.06 110.311L372.102 111.995L373.118 113.709L374.104 115.453L375.059 117.228L375.982 119.033L376.872 120.868L377.725 122.734L378.542 124.63L379.32 126.557L380.058 128.514L380.755 130.502L381.293 132.139L381.801 133.768L382.279 135.387L382.729 136.997L383.15 138.596L383.542 140.186L383.907 141.765L384.245 143.334L384.557 144.892L384.842 146.439L385.102 147.974L385.337 149.498L385.547 151.01L385.733 152.51L385.896 153.997L386.035 155.472L386.152 156.935L386.247 158.384L386.321 159.82L386.373 161.242L386.405 162.65L386.417 164.045L386.41 165.425L386.383 166.791L386.338 168.142L386.275 169.478L386.195 170.798L386.098 172.104L385.984 173.393L385.854 174.666L385.709 175.924L385.549 177.164L385.374 178.388L385.186 179.595L384.984 180.785L384.769 181.957L384.541 183.112L384.302 184.248L384.052 185.367L383.79 186.467L383.518 187.548L383.236 188.61L382.945 189.653L382.645 190.677L382.337 191.681L382.021 192.665L381.697 193.629L381.367 194.573L381.03 195.495L380.687 196.397L380.339 197.278L379.986 198.138L379.629 198.975L379.268 199.791L378.904 200.585L378.537 201.356L378.167 202.105L377.796 202.831L377.424 203.534L377.051 204.213L376.677 204.869L376.304 205.501L375.734 206.394L375.085 207.308L374.358 208.243L373.553 209.2L372.67 210.177L371.707 211.175L370.667 212.194L369.548 213.235L368.351 214.296L367.075 215.378L365.721 216.482L364.289 217.606L362.778 218.752L361.189 219.918L359.521 221.106L357.775 222.314L355.95 223.544L354.048 224.794L352.067 226.066L352.267 227.603L352.424 229.118L352.537 230.611L352.608 232.082L352.636 233.53L352.62 234.956L352.561 236.359L352.459 237.741L352.314 239.1L352.126 240.436L351.895 241.751L351.621 243.043L351.303 244.313L350.943 245.56L350.539 246.786L350.092 247.989L349.602 249.169L349.069 250.328L348.493 251.464L347.873 252.578L347.211 253.67L346.505 254.739L345.756 255.786L344.964 256.811L344.129 257.814L343.251 258.794L342.33 259.752L341.366 260.688L340.738 261.257L340.084 261.815L339.403 262.361L338.695 262.895L337.96 263.418L337.198 263.929L336.409 264.428L335.593 264.915L334.749 265.391L333.879 265.855L332.982 266.307L332.057 266.748L331.106 267.176L330.128 267.594L329.122 267.999L328.09 268.393L327.03 268.775L325.944 269.145L324.83 269.504L323.69 269.85L322.522 270.186L321.328 270.509L320.106 270.821L318.857 271.121L317.582 271.409L316.279 271.686L314.949 271.95L313.593 272.204L312.209 272.445L310.798 272.675L309.36 272.893L307.895 273.099L306.403 273.294L304.884 273.477L303.338 273.648L301.766 273.807L300.166 273.955L298.538 274.091L296.884 274.215L295.203 274.328L293.495 274.429L291.76 274.518L289.998 274.595L288.209 274.661L286.393 274.715L286.315 276.473L286.285 278.16L286.302 279.776L286.367 281.321L286.479 282.795L286.638 284.197L286.845 285.528L287.099 286.788L287.401 287.977L287.75 289.094L288.146 290.141L288.59 291.116L289.081 292.02L289.62 292.853L290.506 294.048L291.526 295.311L292.68 296.643L293.967 298.041L295.389 299.508L296.944 301.043L298.633 302.645L299.616 304.602L300.48 306.421L301.226 308.102L301.852 309.646L302.36 311.053L302.749 312.322L303.019 313.454L303.17 314.448L303.202 315.305L303.116 316.024L302.494 317.198L301.132 318.475L299.029 319.855L296.185 321.339L294.34 320.795L292.53 320.242L290.755 319.683L289.015 319.116L287.311 318.541L285.642 317.959L284.008 317.37L282.409 316.773L280.846 316.169L279.318 315.558L277.825 314.939L276.367 314.312L274.945 313.679L273.558 313.037L272.206 312.389L270.889 311.733L269.607 311.069L268.361 310.399L267.15 309.72L265.974 309.035L264.834 308.342L263.728 307.641L262.658 306.933L261.623 306.218L260.624 305.495L259.659 304.765L258.73 304.027L257.836 303.282L256.977 302.53L256.154 301.77L255.365 301.003L254.612 300.229L253.895 299.447L253.212 298.657L252.565 297.86L252.09 297.246L251.604 296.594L251.105 295.904L250.594 295.176L250.071 294.411L249.536 293.608L248.989 292.767L248.43 291.888L247.859 290.972L247.275 290.018L246.68 289.026L246.072 287.996L245.452 286.929L244.82 285.824L244.176 284.681L243.52 283.501L242.852 282.283L242.172 281.027L241.48 279.733L240.775 278.401L240.059 277.032L239.33 275.625L238.589 274.18L237.836 272.698L237.071 271.178L236.294 269.62L235.505 268.024L234.704 266.391L233.89 264.72L233.065 263.011L232.227 261.264L231.378 259.48L230.516 257.658L229.642 255.798L227.958 256.09L226.291 256.369L224.639 256.637L223.005 256.892L221.386 257.136L219.784 257.367L218.199 257.586L216.629 257.793L215.076 257.988L213.54 258.171L212.019 258.342L210.516 258.501L209.028 258.648L207.557 258.783L206.102 258.905L204.664 259.016L203.241 259.114L201.836 259.201L200.446 259.275L199.073 259.337L197.717 259.388L196.376 259.426L195.052 259.452L193.745 259.466L192.454 259.468L191.179 259.458L189.92 259.435L188.678 259.401L187.452 259.355L186.243 259.296L185.05 259.226L183.873 259.143L182.713 259.048L181.569 258.942L180.441 258.823L179.33 258.692L178.235 258.549L177.156 258.394L176.094 258.227L175.048 258.048L174.019 257.856L173.006 257.653L172.009 257.438L171.029 257.21L170.065 256.971L169.117 256.719L168.185 256.455L167.271 256.18L166.372 255.892L165.49 255.592L164.624 255.28L163.774 254.956L162.941 254.62L162.124 254.272L161.324 253.911L160.54 253.539L159.772 253.155L159.021 252.758L158.286 252.35L157.567 251.929L155.749 250.809L154.001 249.674L152.323 248.526L150.716 247.363L149.178 246.185L147.712 244.994L146.315 243.788L144.989 242.568L143.733 241.333L142.547 240.085L141.432 238.822L140.387 237.544L139.412 236.253L138.508 234.947L137.674 233.627L136.91 232.293L136.216 230.944L135.593 229.581L135.04 228.204L134.557 226.812L134.145 225.407L133.803 223.987L133.531 222.552M140.492 81.1289L140.862 111.415L159.333 131.946L194.538 131.737L204.011 140.611L207.641 136.911L189.35 119.552L177.968 119.482L177.711 120.752L176.368 122.745L174.375 124.088L171.935 124.581L169.495 124.088L167.502 122.745L166.159 120.752L165.666 118.312L166.159 115.872L167.502 113.879L169.495 112.536L171.935 112.043L174.375 112.536L176.368 113.879L177.711 115.872L177.909 116.85L190.415 117.023L209.457 135.002L214.355 130.242L192.855 109.357L192.913 65.6366L191.834 65.4188L189.842 64.0753L188.498 62.0827L188.006 59.6425L188.498 57.2024L189.842 55.2097L191.834 53.8662L194.275 53.3736L196.715 53.8662L198.707 55.2097L200.051 57.2024L200.543 59.6425L200.051 62.0827L198.707 64.0753L196.715 65.4188L195.384 65.6874L195.373 108.112L216.155 128.363L218.968 125.698L222.676 129.347L232.059 120.436L232.551 98.0994L221.578 87.9975L220.612 88.6485L218.172 89.1411L215.732 88.6485L213.739 87.305L212.396 85.3123L211.903 82.8722L212.396 80.432L213.739 78.4394L215.732 77.0959L218.172 76.6033L220.612 77.0959L222.605 78.4394L223.948 80.432L224.441 82.8722L223.948 85.3123L223.444 86.0604L235.039 96.6732L234.567 121.478L224.771 131.363L228.066 134.658L273.318 95.4667L273.592 72.7833L272.122 72.4864L270.129 71.1429L268.785 69.1503L268.293 66.7101L268.785 64.27L270.129 62.2773L272.122 60.9338L274.562 60.4412L277.002 60.9338L278.995 62.2773L280.338 64.27L280.831 66.7101L280.338 69.1503L278.995 71.1429L277.002 72.4864L275.884 72.7122L275.709 93.3586L286.713 83.8657L286.587 83.6782L286.094 81.2381L286.587 78.7979L287.93 76.8052L289.923 75.4618L292.363 74.9691L294.803 75.4618L296.796 76.8052L298.139 78.7979L298.632 81.2381L298.139 83.6782L296.796 85.6709L294.803 87.0143L292.363 87.507L289.923 87.0143L288.264 85.8963L268.057 103.588L318.631 103.883L328.433 113.595L329.418 112.968L331.526 112.215L333.822 111.951L336.118 112.215L338.226 112.968L340.086 114.151L341.637 115.702L342.819 117.561L343.572 119.669L343.837 121.965L343.572 124.262L342.819 126.37L341.637 128.229L340.086 129.78L338.226 130.962L336.118 131.716L333.822 131.98L331.526 131.716L329.418 130.962L327.558 129.78L326.007 128.229L324.825 126.37L324.072 124.262L323.807 121.965L324.072 119.669L324.825 117.561L325.32 116.782L316.684 108.348L265.067 107.896L231.174 137.756L234.951 141.651L255.271 123.593L273.938 123.611L274.181 122.41L275.524 120.418L277.517 119.074L279.957 118.581L282.397 119.074L284.39 120.418L285.733 122.41L286.226 124.85L285.733 127.29L284.39 129.283L282.397 130.627L279.957 131.119L277.517 130.627L275.524 129.283L274.181 127.29L273.97 126.245L256.471 126.209L237.114 143.716L240.026 146.628L236.878 149.696L250.22 160.967L327.263 161.016L338.332 171.036L339.026 170.568L341.466 170.075L343.906 170.568L345.899 171.911L347.242 173.904L347.735 176.344L347.242 178.784L345.899 180.777L343.906 182.12L341.466 182.613L339.026 182.12L337.033 180.777L335.689 178.784L335.197 176.344L335.689 173.904L336.495 172.708L325.713 163.466L252.93 163.27L277.65 184.138L298.935 184.339L299.161 183.221L300.504 181.228L302.497 179.885L304.937 179.392L307.377 179.885L309.37 181.228L310.713 183.221L311.206 185.661L310.713 188.101L309.37 190.094L307.377 191.437L304.937 191.93L302.497 191.437L300.504 190.094L299.161 188.101L298.879 186.703L280.273 186.599L318.474 218.624L318.642 235.994L319.284 236.068L321.392 236.821L323.252 238.004L324.803 239.555L325.985 241.414L326.738 243.522L327.003 245.818L326.738 248.115L325.985 250.223L324.803 252.082L323.252 253.633L321.392 254.815L319.284 255.569L316.988 255.833L314.692 255.569L312.584 254.815L310.724 253.633L309.173 252.082L307.991 250.223L307.238 248.115L306.973 245.818L307.238 243.522L307.991 241.414L309.173 239.555L310.724 238.004L312.584 236.821L314.648 236.084L314.185 220.512L234.006 152.804L230.466 156.463L269.844 194.622L268.395 269.786L269.15 269.939L271.143 271.282L272.486 273.275L272.979 275.715L272.486 278.155L271.143 280.148L269.15 281.491L266.71 281.984L264.27 281.491L262.277 280.148L260.934 278.155L260.441 275.715L260.934 273.275L262.277 271.282L264.27 269.939L265.839 269.622L266.729 195.623L228.561 158.346L224.833 162.157L245.419 181.519L245.419 226.158L246.344 226.344L248.336 227.688L249.68 229.68L250.173 232.12L249.68 234.561L248.336 236.553L246.344 237.897L243.904 238.389L241.464 237.897L239.471 236.553L238.127 234.561L237.635 232.12L238.127 229.68L239.471 227.688L241.464 226.344L243.044 226.025L242.943 182.771L222.997 163.854L219.464 167.582L215.959 163.826L206.278 175.204L206.447 194.055L219.133 204.61L220.112 203.951L222.552 203.458L224.992 203.951L226.985 205.294L228.328 207.287L228.821 209.727L228.328 212.167L226.985 214.16L224.992 215.503L222.552 215.996L220.112 215.503L218.119 214.16L216.776 212.167L216.283 209.727L216.776 207.287L217.244 206.592L204.185 195.609L203.634 173.931L214.139 162.207L209.732 158.037L170.354 198.017L171.126 199.231L171.88 201.339L172.144 203.635L171.88 205.932L171.126 208.039L169.944 209.899L168.393 211.45L166.534 212.632L164.426 213.386L162.129 213.65L159.833 213.386L157.725 212.632L155.865 211.45L154.315 209.899L153.132 208.039L152.379 205.932L152.114 203.635L152.379 201.339L153.132 199.231L154.315 197.371L155.865 195.821L157.725 194.638L159.833 193.885L162.129 193.62L164.426 193.885L166.534 194.638L167.162 195.038L206.751 155.119L203.246 151.502L177.151 175.816L123.191 175.973L122.933 177.25L121.59 179.243L119.597 180.586L117.157 181.079L114.717 180.586L112.724 179.243L111.381 177.25L110.888 174.81L111.381 172.37L112.724 170.377L114.717 169.034L117.157 168.541L119.597 169.034L121.59 170.377L122.933 172.37L123.157 173.476L175.649 173.424L201.465 149.555L198.294 146.272L200.965 143.88L192.953 136.202L166.97 136.202L156.287 149.499L84.7678 148.794L84.4922 150.159L83.1487 152.152L81.156 153.495L78.7159 153.988L76.2757 153.495L74.2831 152.152L72.9396 150.159L72.447 147.719L72.9396 145.279L74.2831 143.286L76.2757 141.943L78.7159 141.45L81.156 141.943L83.1487 143.286L84.4922 145.279L84.6852 146.235L154.841 146.94L163.854 136.091L130.916 136.146L115.868 119.144L115.087 119.64L112.979 120.394L110.683 120.658L108.386 120.394L106.278 119.64L104.419 118.458L102.868 116.907L101.686 115.048L100.932 112.94L100.668 110.643L100.932 108.347L101.686 106.239L102.868 104.38L104.419 102.829L106.278 101.647L108.386 100.893L110.683 100.629L112.979 100.893L115.087 101.647L116.946 102.829L118.497 104.38L119.68 106.239L120.433 108.347L120.698 110.643L120.433 112.94L119.68 115.048L118.979 116.149L132.919 132.196L155.62 132.196L137.927 112.667L138.074 81.0865L136.948 80.8591L134.956 79.5157L133.612 77.523L133.119 75.0829L133.612 72.6427L134.956 70.6501L136.948 69.3066L139.388 68.8139L141.829 69.3066L143.821 70.6501L145.165 72.6427L145.657 75.0829L145.165 77.523L143.821 79.5157L141.829 80.8591L140.492 81.1289"/>
</svg>
